Roboto Serif Text Cond-Hairline.ufo
<glyph name="exclam" format="2">
  <advance width="182"/>
  <unicode hex="0021"/>
  <outline>
    <contour>
      <point x="115" y="735" type="line"/>
      <point x="115" y="544"/>
      <point x="106" y="429"/>
      <point x="106" y="168" type="curve"/>
      <point x="77" y="168" type="line"/>
      <point x="77" y="429"/>
      <point x="68" y="543"/>
      <point x="68" y="735" type="curve"/>
    </contour>
    <component base="period" xOffset="9"/>
  </outline>
</glyph>
<glyph name="ampersand" format="2">
  <advance width="561"/>
  <unicode hex="0026"/>
  <outline>
    <contour>
      <point x="471" y="336" type="curve" smooth="yes"/>
      <point x="473" y="360"/>
      <point x="483" y="365"/>
      <point x="520" y="365" type="curve" smooth="yes"/>
      <point x="527" y="365" type="line"/>
      <point x="527" y="394" type="line"/>
      <point x="389" y="394" type="line"/>
      <point x="389" y="365" type="line"/>
      <point x="390" y="365" type="line" smooth="yes"/>
      <point x="409" y="365"/>
      <point x="441" y="362"/>
      <point x="441" y="355" type="curve" smooth="yes"/>
      <point x="441" y="239"/>
      <point x="386" y="19"/>
      <point x="236" y="19" type="curve" smooth="yes"/>
      <point x="131" y="19"/>
      <point x="78" y="86"/>
      <point x="78" y="196" type="curve" smooth="yes"/>
      <point x="78" y="306"/>
      <point x="132" y="348"/>
      <point x="208" y="387" type="curve"/>
      <point x="202" y="413" type="line"/>
      <point x="110" y="377"/>
      <point x="40" y="316"/>
      <point x="40" y="196" type="curve" smooth="yes"/>
      <point x="40" y="68"/>
      <point x="111" y="-10"/>
      <point x="232" y="-10" type="curve" smooth="yes"/>
      <point x="401" y="-10"/>
      <point x="456" y="191"/>
    </contour>
    <contour>
      <point x="549" y="0" type="line"/>
      <point x="549" y="29" type="line"/>
      <point x="527" y="29" type="line" smooth="yes"/>
      <point x="492" y="29"/>
      <point x="477" y="45"/>
      <point x="451" y="73" type="curve" smooth="yes"/>
      <point x="258" y="280"/>
      <point x="198" y="420"/>
      <point x="198" y="552" type="curve" smooth="yes"/>
      <point x="198" y="652"/>
      <point x="234" y="689"/>
      <point x="288" y="689" type="curve" smooth="yes"/>
      <point x="331" y="689"/>
      <point x="362" y="657"/>
      <point x="362" y="598" type="curve" smooth="yes"/>
      <point x="362" y="510"/>
      <point x="312" y="463"/>
      <point x="211" y="415" type="curve"/>
      <point x="224" y="392" type="line"/>
      <point x="328" y="441"/>
      <point x="399" y="501"/>
      <point x="399" y="597" type="curve" smooth="yes"/>
      <point x="399" y="672"/>
      <point x="357" y="718"/>
      <point x="288" y="718" type="curve" smooth="yes"/>
      <point x="215" y="718"/>
      <point x="160" y="670"/>
      <point x="160" y="552" type="curve" smooth="yes"/>
      <point x="160" y="373"/>
      <point x="286" y="188"/>
      <point x="466" y="0" type="curve"/>
    </contour>
  </outline>
</glyph>
<glyph name="comma" format="2">
  <advance width="180"/>
  <unicode hex="002C"/>
  <outline>
    <contour>
      <point x="69" y="-121" type="line"/>
      <point x="112" y="-82"/>
      <point x="132" y="-35"/>
      <point x="132" y="13" type="curve" smooth="yes"/>
      <point x="132" y="46"/>
      <point x="116" y="61"/>
      <point x="94" y="61" type="curve" smooth="yes"/>
      <point x="75" y="61"/>
      <point x="61" y="46"/>
      <point x="61" y="26" type="curve" smooth="yes"/>
      <point x="61" y="3"/>
      <point x="73" y="-10"/>
      <point x="94" y="-10" type="curve" smooth="yes"/>
      <point x="107" y="-10"/>
      <point x="116" y="-3"/>
      <point x="119" y="12" type="curve"/>
      <point x="109" y="19"/>
      <point x="110" y="5"/>
      <point x="110" y="5" type="curve"/>
      <point x="109" y="-24"/>
      <point x="84" y="-74"/>
      <point x="44" y="-106" type="curve"/>
    </contour>
  </outline>
</glyph>
<glyph name="period" format="2">
  <advance width="165"/>
  <unicode hex="002E"/>
  <outline>
    <contour>
      <point x="83" y="-10" type="curve" smooth="yes"/>
      <point x="102" y="-10"/>
      <point x="116" y="3"/>
      <point x="116" y="26" type="curve" smooth="yes"/>
      <point x="116" y="48"/>
      <point x="102" y="61"/>
      <point x="83" y="61" type="curve" smooth="yes"/>
      <point x="63" y="61"/>
      <point x="48" y="48"/>
      <point x="48" y="26" type="curve" smooth="yes"/>
      <point x="48" y="3"/>
      <point x="63" y="-10"/>
    </contour>
  </outline>
</glyph>
<glyph name="zero" format="2">
  <advance width="560"/>
  <unicode hex="0030"/>
  <outline>
    <contour>
      <point x="280" y="-11" type="curve"/>
      <point x="405" y="-10"/>
      <point x="495" y="102"/>
      <point x="495" y="304" type="curve" smooth="yes"/>
      <point x="495" y="506"/>
      <point x="405" y="619"/>
      <point x="280" y="619" type="curve"/>
      <point x="156" y="618"/>
      <point x="66" y="506"/>
      <point x="66" y="304" type="curve" smooth="yes"/>
      <point x="66" y="102"/>
      <point x="156" y="-11"/>
    </contour>
    <contour>
      <point x="280" y="18" type="curve"/>
      <point x="174" y="18"/>
      <point x="108" y="119"/>
      <point x="108" y="304" type="curve" smooth="yes"/>
      <point x="108" y="490"/>
      <point x="174" y="590"/>
      <point x="280" y="590" type="curve"/>
      <point x="387" y="590"/>
      <point x="453" y="489"/>
      <point x="453" y="304" type="curve" smooth="yes"/>
      <point x="453" y="117"/>
      <point x="387" y="18"/>
    </contour>
  </outline>
</glyph>
<glyph name="four" format="2">
  <advance width="560"/>
  <unicode hex="0034"/>
  <outline>
    <contour>
      <point x="56" y="112" type="line"/>
      <point x="504" y="112" type="line"/>
      <point x="504" y="146" type="line"/>
      <point x="74" y="146" type="line"/>
      <point x="76" y="123" type="line"/>
      <point x="362" y="605" type="line"/>
      <point x="374" y="609" type="line"/>
      <point x="331" y="609" type="line"/>
      <point x="56" y="149" type="line"/>
    </contour>
    <contour>
      <point x="387" y="-77" type="line"/>
      <point x="387" y="609" type="line"/>
      <point x="349" y="609" type="line"/>
      <point x="348" y="596" type="line"/>
      <point x="348" y="-77" type="line"/>
    </contour>
  </outline>
</glyph>
<glyph name="five" format="2">
  <advance width="560"/>
  <unicode hex="0035"/>
  <outline>
    <contour>
      <point x="274" y="-90" type="curve"/>
      <point x="170" y="-90"/>
      <point x="106" y="-29"/>
      <point x="75" y="62" type="curve"/>
      <point x="103" y="74" type="line"/>
      <point x="131" y="-7"/>
      <point x="186" y="-61"/>
      <point x="274" y="-61" type="curve"/>
      <point x="380" y="-61"/>
      <point x="443" y="17"/>
      <point x="443" y="150" type="curve" smooth="yes"/>
      <point x="443" y="278"/>
      <point x="375" y="335"/>
      <point x="290" y="335" type="curve" smooth="yes"/>
      <point x="221" y="335"/>
      <point x="176" y="299"/>
      <point x="135" y="238" type="curve"/>
      <point x="111" y="238" type="line"/>
      <point x="111" y="609" type="line"/>
      <point x="447" y="609" type="line"/>
      <point x="440" y="573" type="line"/>
      <point x="126" y="573" type="line"/>
      <point x="141" y="589" type="line"/>
      <point x="141" y="264" type="line"/>
      <point x="138" y="254"/>
      <point x="131" y="245"/>
      <point x="123" y="257" type="curve"/>
      <point x="161" y="319"/>
      <point x="210" y="364"/>
      <point x="292" y="364" type="curve" smooth="yes"/>
      <point x="422" y="364"/>
      <point x="485" y="274"/>
      <point x="485" y="150" type="curve" smooth="yes"/>
      <point x="485" y="5"/>
      <point x="403" y="-90"/>
    </contour>
  </outline>
</glyph>
<glyph name="less" format="2">
  <advance width="560"/>
  <unicode hex="003C"/>
  <outline>
    <contour>
      <point x="426" y="528" type="line"/>
      <point x="134" y="351" type="line"/>
      <point x="134" y="325" type="line"/>
      <point x="150" y="326" type="line"/>
      <point x="426" y="493" type="line"/>
    </contour>
    <contour>
      <point x="426" y="167" type="line"/>
      <point x="148" y="336" type="line"/>
      <point x="134" y="336" type="line"/>
      <point x="134" y="310" type="line"/>
      <point x="426" y="132" type="line"/>
    </contour>
  </outline>
</glyph>
<glyph name="at" format="2">
  <advance width="718"/>
  <unicode hex="0040"/>
  <outline>
    <contour>
      <point x="380" y="-120" type="curve" smooth="yes"/>
      <point x="192" y="-120"/>
      <point x="68" y="-1"/>
      <point x="68" y="234" type="curve" smooth="yes"/>
      <point x="68" y="479"/>
      <point x="203" y="640"/>
      <point x="391" y="640" type="curve" smooth="yes"/>
      <point x="556" y="640"/>
      <point x="651" y="513"/>
      <point x="651" y="342" type="curve" smooth="yes"/>
      <point x="651" y="167"/>
      <point x="585.007518797" y="78"/>
      <point x="520" y="78" type="curve" smooth="yes"/>
      <point x="473" y="78"/>
      <point x="452" y="112"/>
      <point x="461" y="179" type="curve" smooth="yes"/>
      <point x="501" y="468" type="line"/>
      <point x="480" y="468" type="line"/>
      <point x="456" y="400" type="line"/>
      <point x="452" y="394" type="line"/>
      <point x="418" y="138" type="line"/>
      <point x="421" y="143" type="line"/>
      <point x="425" y="90"/>
      <point x="458" y="53"/>
      <point x="517" y="53" type="curve" smooth="yes"/>
      <point x="603" y="53"/>
      <point x="681" y="157"/>
      <point x="681" y="342" type="curve" smooth="yes"/>
      <point x="681" y="532"/>
      <point x="569" y="667"/>
      <point x="391" y="667" type="curve" smooth="yes"/>
      <point x="189" y="667"/>
      <point x="38" y="497"/>
      <point x="38" y="234" type="curve" smooth="yes"/>
      <point x="38" y="-20"/>
      <point x="177" y="-147"/>
      <point x="380" y="-147" type="curve" smooth="yes"/>
      <point x="464" y="-147"/>
      <point x="533" y="-121"/>
      <point x="584" y="-91" type="curve"/>
      <point x="573" y="-67" type="line"/>
      <point x="532" y="-94"/>
      <point x="462" y="-120"/>
    </contour>
    <contour>
      <point x="330" y="49" type="curve" smooth="yes"/>
      <point x="385" y="49"/>
      <point x="424" y="93"/>
      <point x="444" y="168" type="curve"/>
      <point x="439" y="198" type="line"/>
      <point x="411" y="113"/>
      <point x="380" y="75"/>
      <point x="331" y="75" type="curve" smooth="yes"/>
      <point x="278" y="75"/>
      <point x="253" y="119"/>
      <point x="253" y="216" type="curve" smooth="yes"/>
      <point x="253" y="327"/>
      <point x="304" y="448"/>
      <point x="375" y="448" type="curve" smooth="yes"/>
      <point x="418" y="448"/>
      <point x="444" y="423"/>
      <point x="458" y="338" type="curve"/>
      <point x="468" y="378" type="line"/>
      <point x="458" y="445"/>
      <point x="424" y="474"/>
      <point x="377" y="474" type="curve" smooth="yes"/>
      <point x="282" y="474"/>
      <point x="214" y="351"/>
      <point x="214" y="216" type="curve" smooth="yes"/>
      <point x="214" y="108"/>
      <point x="260" y="49"/>
    </contour>
  </outline>
</glyph>
<glyph name="A" format="2">
  <advance width="533"/>
  <unicode hex="0041"/>
  <outline>
    <contour>
      <point x="139" y="293" type="line"/>
      <point x="139" y="263" type="line"/>
      <point x="392" y="263" type="line"/>
      <point x="392" y="293" type="line"/>
    </contour>
    <contour>
      <point x="256" y="705" type="line"/>
      <point x="428" y="39" type="line"/>
      <point x="428" y="32"/>
      <point x="393" y="29"/>
      <point x="364" y="29" type="curve" smooth="yes"/>
      <point x="351" y="29" type="line"/>
      <point x="351" y="0" type="line"/>
      <point x="516" y="0" type="line"/>
      <point x="516" y="29" type="line"/>
      <point x="512" y="29" type="line" smooth="yes"/>
      <point x="487" y="29"/>
      <point x="471" y="31"/>
      <point x="464" y="57" type="curve" smooth="yes"/>
      <point x="293" y="710" type="line"/>
      <point x="241" y="710" type="line"/>
      <point x="74" y="72" type="line" smooth="yes"/>
      <point x="64" y="35"/>
      <point x="48" y="29"/>
      <point x="21" y="29" type="curve" smooth="yes"/>
      <point x="17" y="29" type="line"/>
      <point x="17" y="0" type="line"/>
      <point x="176" y="0" type="line"/>
      <point x="176" y="29" type="line"/>
      <point x="165" y="29" type="line" smooth="yes"/>
      <point x="136" y="29"/>
      <point x="102" y="36"/>
      <point x="102" y="47" type="curve"/>
      <point x="270" y="694" type="line"/>
    </contour>
  </outline>
</glyph>
<glyph name="D" format="2">
  <advance width="565"/>
  <unicode hex="0044"/>
  <outline>
    <contour>
      <point x="31" y="681" type="line"/>
      <point x="39" y="681" type="line" smooth="yes"/>
      <point x="76" y="681"/>
      <point x="102" y="674"/>
      <point x="102" y="645" type="curve" smooth="yes"/>
      <point x="102" y="65" type="line" smooth="yes"/>
      <point x="102" y="36"/>
      <point x="76" y="29"/>
      <point x="39" y="29" type="curve" smooth="yes"/>
      <point x="31" y="29" type="line"/>
      <point x="31" y="0" type="line"/>
      <point x="246" y="0" type="line" smooth="yes"/>
      <point x="404" y="0"/>
      <point x="518" y="91"/>
      <point x="518" y="357" type="curve" smooth="yes"/>
      <point x="518" y="624"/>
      <point x="404" y="710"/>
      <point x="246" y="710" type="curve" smooth="yes"/>
      <point x="31" y="710" type="line"/>
    </contour>
    <contour>
      <point x="246" y="681" type="line" smooth="yes"/>
      <point x="381" y="681"/>
      <point x="477" y="614"/>
      <point x="477" y="357" type="curve" smooth="yes"/>
      <point x="477" y="100"/>
      <point x="381" y="29"/>
      <point x="246" y="29" type="curve" smooth="yes"/>
      <point x="140" y="29" type="line"/>
      <point x="140" y="681" type="line"/>
    </contour>
  </outline>
</glyph>
<glyph name="E" format="2">
  <advance width="465"/>
  <unicode hex="0045"/>
  <outline>
    <contour>
      <point x="418" y="181" type="line"/>
      <point x="393" y="181" type="line"/>
      <point x="386" y="73" type="line" smooth="yes"/>
      <point x="384" y="39"/>
      <point x="362" y="30"/>
      <point x="285" y="30" type="curve" smooth="yes"/>
      <point x="140" y="30" type="line"/>
      <point x="140" y="680" type="line"/>
      <point x="272" y="680" type="line" smooth="yes"/>
      <point x="354" y="680"/>
      <point x="370" y="671"/>
      <point x="373" y="637" type="curve" smooth="yes"/>
      <point x="381" y="554" type="line"/>
      <point x="405" y="554" type="line"/>
      <point x="405" y="710" type="line"/>
      <point x="31" y="710" type="line"/>
      <point x="31" y="681" type="line"/>
      <point x="39" y="681" type="line" smooth="yes"/>
      <point x="76" y="681"/>
      <point x="102" y="674"/>
      <point x="102" y="645" type="curve" smooth="yes"/>
      <point x="102" y="65" type="line" smooth="yes"/>
      <point x="102" y="36"/>
      <point x="76" y="29"/>
      <point x="39" y="29" type="curve" smooth="yes"/>
      <point x="31" y="29" type="line"/>
      <point x="31" y="0" type="line"/>
      <point x="418" y="0" type="line"/>
    </contour>
    <contour>
      <point x="123" y="377" type="curve"/>
      <point x="123" y="351" type="line"/>
      <point x="194" y="350"/>
      <point x="266" y="348"/>
      <point x="338" y="347" type="curve"/>
      <point x="338" y="381" type="line"/>
      <point x="266" y="380"/>
      <point x="194" y="378"/>
    </contour>
  </outline>
</glyph>
<glyph name="F" format="2">
  <advance width="434"/>
  <unicode hex="0046"/>
  <outline>
    <contour>
      <point x="140" y="680" type="line"/>
      <point x="277" y="680" type="line" smooth="yes"/>
      <point x="358" y="680"/>
      <point x="375" y="671"/>
      <point x="378" y="637" type="curve" smooth="yes"/>
      <point x="385" y="554" type="line"/>
      <point x="409" y="554" type="line"/>
      <point x="409" y="710" type="line"/>
      <point x="31" y="710" type="line"/>
      <point x="31" y="681" type="line"/>
      <point x="39" y="681" type="line" smooth="yes"/>
      <point x="76" y="681"/>
      <point x="102" y="674"/>
      <point x="102" y="645" type="curve" smooth="yes"/>
      <point x="102" y="65" type="line" smooth="yes"/>
      <point x="102" y="36"/>
      <point x="76" y="29"/>
      <point x="39" y="29" type="curve" smooth="yes"/>
      <point x="31" y="29" type="line"/>
      <point x="31" y="0" type="line"/>
      <point x="225" y="0" type="line"/>
      <point x="225" y="29" type="line"/>
      <point x="211" y="29" type="line" smooth="yes"/>
      <point x="178" y="29"/>
      <point x="140" y="30"/>
      <point x="140" y="65" type="curve" smooth="yes"/>
    </contour>
    <contour>
      <point x="127" y="370" type="curve"/>
      <point x="127" y="344" type="line"/>
      <point x="199" y="343"/>
      <point x="272" y="341"/>
      <point x="345" y="340" type="curve"/>
      <point x="345" y="374" type="line"/>
      <point x="272" y="372"/>
      <point x="199" y="371"/>
    </contour>
  </outline>
</glyph>
<glyph name="G" format="2">
  <advance width="578"/>
  <unicode hex="0047"/>
  <outline>
    <contour>
      <point x="498" y="288" type="line" smooth="yes"/>
      <point x="498" y="317"/>
      <point x="524.9836065574" y="324"/>
      <point x="564" y="324" type="curve" smooth="yes"/>
      <point x="567" y="324" type="line"/>
      <point x="567" y="353" type="line"/>
      <point x="385" y="353" type="line"/>
      <point x="385" y="324" type="line"/>
      <point x="394" y="324" type="line" smooth="yes"/>
      <point x="433" y="324"/>
      <point x="460" y="317"/>
      <point x="460" y="288" type="curve" smooth="yes"/>
      <point x="460" y="77" type="line"/>
      <point x="416" y="39"/>
      <point x="365.3641975309" y="19"/>
      <point x="307" y="19" type="curve" smooth="yes"/>
      <point x="161" y="19"/>
      <point x="88" y="131"/>
      <point x="88" y="355" type="curve" smooth="yes"/>
      <point x="88" y="578"/>
      <point x="159" y="692"/>
      <point x="298" y="692" type="curve" smooth="yes"/>
      <point x="387" y="692"/>
      <point x="440" y="635"/>
      <point x="469" y="537" type="curve"/>
      <point x="498" y="537" type="line"/>
      <point x="498" y="710" type="line"/>
      <point x="473" y="710" type="line"/>
      <point x="463" y="578" type="line"/>
      <point x="477" y="592" type="line"/>
      <point x="452" y="660"/>
      <point x="399" y="720"/>
      <point x="300" y="720" type="curve" smooth="yes"/>
      <point x="136" y="720"/>
      <point x="47" y="594"/>
      <point x="47" y="355" type="curve" smooth="yes"/>
      <point x="47" y="119"/>
      <point x="139" y="-10"/>
      <point x="307" y="-10" type="curve" smooth="yes"/>
      <point x="378.3571428571" y="-10"/>
      <point x="458" y="25"/>
      <point x="498" y="71" type="curve"/>
    </contour>
  </outline>
</glyph>
<glyph name="I" format="2">
  <advance width="242"/>
  <unicode hex="0049"/>
  <outline>
    <contour>
      <point x="102" y="65" type="line" smooth="yes"/>
      <point x="102" y="36"/>
      <point x="76" y="29"/>
      <point x="39" y="29" type="curve" smooth="yes"/>
      <point x="31" y="29" type="line"/>
      <point x="31" y="0" type="line"/>
      <point x="211" y="0" type="line"/>
      <point x="211" y="29" type="line"/>
      <point x="202" y="29" type="line" smooth="yes"/>
      <point x="166" y="29"/>
      <point x="140" y="36"/>
      <point x="140" y="65" type="curve" smooth="yes"/>
      <point x="140" y="645" type="line" smooth="yes"/>
      <point x="140" y="674"/>
      <point x="166" y="681"/>
      <point x="202" y="681" type="curve" smooth="yes"/>
      <point x="211" y="681" type="line"/>
      <point x="211" y="710" type="line"/>
      <point x="31" y="710" type="line"/>
      <point x="31" y="681" type="line"/>
      <point x="39" y="681" type="line" smooth="yes"/>
      <point x="76" y="681"/>
      <point x="102" y="674"/>
      <point x="102" y="645" type="curve" smooth="yes"/>
    </contour>
  </outline>
</glyph>
<glyph name="K" format="2">
  <advance width="535"/>
  <unicode hex="004B"/>
  <guideline x="0" y="681" angle="0" identifier="6MYu2lgc3C"/>
  <guideline x="0" y="29" angle="0" identifier="AfMOeWKOiW"/>
  <outline>
    <contour>
      <point x="31" y="0" type="line"/>
      <point x="215" y="0" type="line"/>
      <point x="215" y="29" type="line"/>
      <point x="205" y="29" type="line" smooth="yes"/>
      <point x="175" y="29"/>
      <point x="140" y="32"/>
      <point x="140" y="39" type="curve" smooth="yes"/>
      <point x="140" y="671" type="line" smooth="yes"/>
      <point x="140" y="678"/>
      <point x="176" y="681"/>
      <point x="207" y="681" type="curve" smooth="yes"/>
      <point x="217" y="681" type="line"/>
      <point x="217" y="710" type="line"/>
      <point x="31" y="710" type="line"/>
      <point x="31" y="681" type="line"/>
      <point x="39" y="681" type="line" smooth="yes"/>
      <point x="76" y="681"/>
      <point x="102" y="674"/>
      <point x="102" y="645" type="curve" smooth="yes"/>
      <point x="102" y="65" type="line" smooth="yes"/>
      <point x="102" y="36"/>
      <point x="76" y="29"/>
      <point x="39" y="29" type="curve" smooth="yes"/>
      <point x="31" y="29" type="line"/>
    </contour>
    <contour>
      <point x="334" y="0" type="line"/>
      <point x="520" y="0" type="line"/>
      <point x="520" y="29" type="line"/>
      <point x="512" y="29" type="line" smooth="yes"/>
      <point x="476.5205479452" y="29"/>
      <point x="461" y="34"/>
      <point x="440" y="62" type="curve" smooth="yes"/>
      <point x="203" y="378" type="line"/>
      <point x="201" y="352" type="line"/>
      <point x="434" y="652" type="line" smooth="yes"/>
      <point x="451" y="674"/>
      <point x="466.380952381" y="681"/>
      <point x="494" y="681" type="curve" smooth="yes"/>
      <point x="507" y="681" type="line"/>
      <point x="507" y="710" type="line"/>
      <point x="338" y="710" type="line"/>
      <point x="338" y="681" type="line"/>
      <point x="345" y="681" type="line" smooth="yes"/>
      <point x="375" y="681"/>
      <point x="410" y="678"/>
      <point x="410" y="671" type="curve"/>
      <point x="172" y="363" type="line"/>
      <point x="172" y="359" type="line"/>
      <point x="411" y="39" type="line"/>
      <point x="411" y="32"/>
      <point x="375" y="29"/>
      <point x="344" y="29" type="curve" smooth="yes"/>
      <point x="334" y="29" type="line"/>
    </contour>
  </outline>
</glyph>
<glyph name="N" format="2">
  <advance width="593"/>
  <unicode hex="004E"/>
  <outline>
    <contour>
      <point x="31" y="0" type="line"/>
      <point x="215" y="0" type="line"/>
      <point x="215" y="29" type="line"/>
      <point x="205" y="29" type="line" smooth="yes"/>
      <point x="173" y="29"/>
      <point x="136" y="37"/>
      <point x="136" y="44" type="curve" smooth="yes"/>
      <point x="136" y="697" type="line"/>
      <point x="120" y="704" type="line"/>
      <point x="447" y="0" type="line"/>
      <point x="490" y="0" type="line"/>
      <point x="490" y="640" type="line" smooth="yes"/>
      <point x="490" y="669"/>
      <point x="516" y="681"/>
      <point x="553" y="681" type="curve" smooth="yes"/>
      <point x="562" y="681" type="line"/>
      <point x="562" y="710" type="line"/>
      <point x="377" y="710" type="line"/>
      <point x="377" y="681" type="line"/>
      <point x="388" y="681" type="line" smooth="yes"/>
      <point x="420" y="681"/>
      <point x="456" y="673"/>
      <point x="456" y="666" type="curve" smooth="yes"/>
      <point x="456" y="34" type="line"/>
      <point x="467" y="44" type="line"/>
      <point x="158" y="710" type="line"/>
      <point x="31" y="710" type="line"/>
      <point x="31" y="681" type="line"/>
      <point x="39" y="681" type="line" smooth="yes"/>
      <point x="76" y="681"/>
      <point x="102" y="674"/>
      <point x="102" y="645" type="curve" smooth="yes"/>
      <point x="102" y="70" type="line" smooth="yes"/>
      <point x="102" y="41"/>
      <point x="76" y="29"/>
      <point x="39" y="29" type="curve" smooth="yes"/>
      <point x="31" y="29" type="line"/>
    </contour>
  </outline>
</glyph>
<glyph name="O" format="2">
  <advance width="586"/>
  <unicode hex="004F"/>
  <outline>
    <contour>
      <point x="293" y="-10" type="curve" smooth="yes"/>
      <point x="450" y="-10"/>
      <point x="539" y="128"/>
      <point x="539" y="355" type="curve" smooth="yes"/>
      <point x="539" y="582"/>
      <point x="450" y="720"/>
      <point x="293" y="720" type="curve" smooth="yes"/>
      <point x="136" y="720"/>
      <point x="47" y="583"/>
      <point x="47" y="355" type="curve" smooth="yes"/>
      <point x="47" y="128"/>
      <point x="136" y="-10"/>
    </contour>
    <contour>
      <point x="293" y="20" type="curve" smooth="yes"/>
      <point x="158" y="20"/>
      <point x="88" y="142"/>
      <point x="88" y="355" type="curve" smooth="yes"/>
      <point x="88" y="568"/>
      <point x="158" y="690"/>
      <point x="293" y="690" type="curve" smooth="yes"/>
      <point x="428" y="690"/>
      <point x="498" y="568"/>
      <point x="498" y="355" type="curve" smooth="yes"/>
      <point x="498" y="142"/>
      <point x="428" y="20"/>
    </contour>
  </outline>
</glyph>
<glyph name="P" format="2">
  <advance width="476"/>
  <unicode hex="0050"/>
  <outline>
    <contour>
      <point x="140" y="39" type="line"/>
      <point x="140" y="32"/>
      <point x="175" y="29"/>
      <point x="202" y="29" type="curve" smooth="yes"/>
      <point x="224" y="29" type="line"/>
      <point x="224" y="0" type="line"/>
      <point x="31" y="0" type="line"/>
      <point x="31" y="29" type="line"/>
      <point x="39" y="29" type="line" smooth="yes"/>
      <point x="76" y="29"/>
      <point x="102" y="36"/>
      <point x="102" y="65" type="curve" smooth="yes"/>
      <point x="102" y="645" type="line" smooth="yes"/>
      <point x="102" y="674"/>
      <point x="76" y="681"/>
      <point x="39" y="681" type="curve" smooth="yes"/>
      <point x="31" y="681" type="line"/>
      <point x="31" y="710" type="line"/>
      <point x="249" y="710" type="line" smooth="yes"/>
      <point x="383" y="710"/>
      <point x="452" y="637"/>
      <point x="452" y="508" type="curve" smooth="yes"/>
      <point x="452" y="380"/>
      <point x="380" y="300"/>
      <point x="245" y="300" type="curve" smooth="yes"/>
      <point x="123" y="300" type="line"/>
      <point x="123" y="328" type="line"/>
      <point x="245" y="328" type="line" smooth="yes"/>
      <point x="360" y="328"/>
      <point x="411" y="394"/>
      <point x="411" y="507" type="curve" smooth="yes"/>
      <point x="411" y="623"/>
      <point x="359" y="681"/>
      <point x="249" y="681" type="curve" smooth="yes"/>
      <point x="140" y="681" type="line"/>
    </contour>
  </outline>
</glyph>
<glyph name="R" format="2">
  <advance width="516"/>
  <unicode hex="0052"/>
  <outline>
    <contour>
      <point x="262" y="329" type="line"/>
      <point x="296" y="344" type="line"/>
      <point x="413" y="68" type="line" smooth="yes"/>
      <point x="426" y="37"/>
      <point x="439" y="29"/>
      <point x="478" y="29" type="curve" smooth="yes"/>
      <point x="487" y="29" type="line"/>
      <point x="487" y="0" type="line"/>
      <point x="400" y="0" type="line"/>
    </contour>
    <contour>
      <point x="140" y="39" type="line" smooth="yes"/>
      <point x="140" y="32"/>
      <point x="171" y="29"/>
      <point x="196" y="29" type="curve" smooth="yes"/>
      <point x="203" y="29" type="line"/>
      <point x="203" y="0" type="line"/>
      <point x="31" y="0" type="line"/>
      <point x="31" y="29" type="line"/>
      <point x="39" y="29" type="line" smooth="yes"/>
      <point x="76" y="29"/>
      <point x="102" y="36"/>
      <point x="102" y="65" type="curve" smooth="yes"/>
      <point x="102" y="645" type="line" smooth="yes"/>
      <point x="102" y="674"/>
      <point x="76" y="681"/>
      <point x="39" y="681" type="curve" smooth="yes"/>
      <point x="31" y="681" type="line"/>
      <point x="31" y="710" type="line"/>
      <point x="245" y="710" type="line" smooth="yes"/>
      <point x="362" y="710"/>
      <point x="438" y="643"/>
      <point x="438" y="515" type="curve" smooth="yes"/>
      <point x="438" y="408"/>
      <point x="379" y="347"/>
      <point x="298" y="328" type="curve" smooth="yes"/>
      <point x="280" y="324"/>
      <point x="266" y="321"/>
      <point x="246" y="321" type="curve" smooth="yes"/>
      <point x="131" y="321" type="line"/>
      <point x="131" y="351" type="line"/>
      <point x="246" y="351" type="line" smooth="yes"/>
      <point x="350" y="351"/>
      <point x="397" y="418"/>
      <point x="397" y="515" type="curve" smooth="yes"/>
      <point x="397" y="629"/>
      <point x="341" y="680"/>
      <point x="243" y="680" type="curve" smooth="yes"/>
      <point x="140" y="680" type="line"/>
    </contour>
  </outline>
</glyph>
<glyph name="U" format="2">
  <advance width="601"/>
  <unicode hex="0055"/>
  <outline>
    <contour>
      <point x="138" y="209" type="curve" smooth="yes"/>
      <point x="138" y="671" type="line" smooth="yes"/>
      <point x="138" y="678"/>
      <point x="174" y="681"/>
      <point x="202" y="681" type="curve" smooth="yes"/>
      <point x="209" y="681" type="line"/>
      <point x="209" y="710" type="line"/>
      <point x="28" y="710" type="line"/>
      <point x="28" y="681" type="line"/>
      <point x="37" y="681" type="line" smooth="yes"/>
      <point x="74" y="681"/>
      <point x="100" y="674"/>
      <point x="100" y="645" type="curve" smooth="yes"/>
      <point x="100" y="209" type="line" smooth="yes"/>
      <point x="100" y="68"/>
      <point x="174" y="-10"/>
      <point x="305" y="-10" type="curve" smooth="yes"/>
      <point x="429" y="-10"/>
      <point x="501" y="71"/>
      <point x="501" y="209" type="curve" smooth="yes"/>
      <point x="501" y="635" type="line" smooth="yes"/>
      <point x="501" y="669"/>
      <point x="527" y="681"/>
      <point x="564" y="681" type="curve" smooth="yes"/>
      <point x="573" y="681" type="line"/>
      <point x="573" y="710" type="line"/>
      <point x="397" y="710" type="line"/>
      <point x="397" y="681" type="line"/>
      <point x="404" y="681" type="line" smooth="yes"/>
      <point x="432" y="681"/>
      <point x="468" y="673"/>
      <point x="468" y="659" type="curve" smooth="yes"/>
      <point x="468" y="209" type="line" smooth="yes"/>
      <point x="468" y="88"/>
      <point x="406" y="22"/>
      <point x="305" y="22" type="curve" smooth="yes"/>
      <point x="197" y="22"/>
      <point x="138" y="87"/>
    </contour>
  </outline>
</glyph>
<glyph name="V" format="2">
  <advance width="531"/>
  <unicode hex="0056"/>
  <outline>
    <contour>
      <point x="276" y="4" type="line"/>
      <point x="106" y="671" type="line"/>
      <point x="106" y="678"/>
      <point x="141" y="681"/>
      <point x="170" y="681" type="curve" smooth="yes"/>
      <point x="183" y="681" type="line"/>
      <point x="183" y="710" type="line"/>
      <point x="20" y="710" type="line"/>
      <point x="20" y="681" type="line"/>
      <point x="24" y="681" type="line"/>
      <point x="49" y="681"/>
      <point x="65" y="679"/>
      <point x="72" y="653" type="curve" smooth="yes"/>
      <point x="240" y="0" type="line"/>
      <point x="290" y="0" type="line"/>
      <point x="454" y="638" type="line" smooth="yes"/>
      <point x="464" y="675"/>
      <point x="480" y="681"/>
      <point x="507" y="681" type="curve"/>
      <point x="511" y="681" type="line"/>
      <point x="511" y="710" type="line"/>
      <point x="352" y="710" type="line"/>
      <point x="352" y="681" type="line"/>
      <point x="363" y="681" type="line" smooth="yes"/>
      <point x="392" y="681"/>
      <point x="426" y="674"/>
      <point x="426" y="663" type="curve"/>
      <point x="261" y="14" type="line"/>
    </contour>
  </outline>
</glyph>
<glyph name="bracketleft" format="2">
  <advance width="204"/>
  <unicode hex="005B"/>
  <outline>
    <contour>
      <point x="47" y="-130" type="line"/>
      <point x="184" y="-130" type="line"/>
      <point x="184" y="-101" type="line"/>
      <point x="84" y="-101" type="line"/>
      <point x="84" y="721" type="line"/>
      <point x="184" y="721" type="line"/>
      <point x="184" y="750" type="line"/>
      <point x="47" y="750" type="line"/>
    </contour>
  </outline>
</glyph>
<glyph name="asciicircum" format="2">
  <advance width="404"/>
  <unicode hex="005E"/>
  <outline>
    <contour>
      <point x="86" y="364" type="line"/>
      <point x="205" y="685" type="line"/>
      <point x="209" y="710" type="line"/>
      <point x="182" y="710" type="line"/>
      <point x="51" y="364" type="line"/>
    </contour>
    <contour>
      <point x="318" y="364" type="line"/>
      <point x="353" y="364" type="line"/>
      <point x="221" y="710" type="line"/>
      <point x="195" y="710" type="line"/>
      <point x="197" y="686" type="line"/>
    </contour>
  </outline>
</glyph>
<glyph name="grave" format="2">
  <advance width="403"/>
  <unicode hex="0060"/>
  <outline>
    <contour>
      <point x="166" y="707" type="line" smooth="yes"/>
      <point x="155" y="737"/>
      <point x="148" y="754"/>
      <point x="128" y="754" type="curve" smooth="yes"/>
      <point x="116" y="754"/>
      <point x="104" y="745"/>
      <point x="104" y="730" type="curve" smooth="yes"/>
      <point x="104" y="714"/>
      <point x="114" y="700"/>
      <point x="126" y="682" type="curve" smooth="yes"/>
      <point x="194" y="577" type="line"/>
      <point x="207" y="577" type="line"/>
      <point x="207" y="590" type="line"/>
    </contour>
  </outline>
</glyph>
<glyph name="b" format="2">
  <advance width="478"/>
  <unicode hex="0062"/>
  <outline>
    <contour>
      <point x="269" y="-10" type="curve" smooth="yes"/>
      <point x="368" y="-10"/>
      <point x="438" y="72"/>
      <point x="438" y="254" type="curve"/>
      <point x="438" y="436"/>
      <point x="375" y="518"/>
      <point x="268" y="518" type="curve" smooth="yes"/>
      <point x="197" y="518"/>
      <point x="156" y="487"/>
      <point x="115" y="417" type="curve"/>
      <point x="115" y="378" type="line"/>
      <point x="155" y="449"/>
      <point x="195" y="488"/>
      <point x="265" y="488" type="curve" smooth="yes"/>
      <point x="354" y="488"/>
      <point x="398" y="422"/>
      <point x="398" y="254" type="curve"/>
      <point x="398" y="86"/>
      <point x="354" y="20"/>
      <point x="265" y="20" type="curve"/>
      <point x="195" y="20"/>
      <point x="155" y="59"/>
      <point x="115" y="132" type="curve"/>
      <point x="111" y="95" type="line"/>
      <point x="156" y="21"/>
      <point x="197" y="-10"/>
    </contour>
    <contour>
      <point x="82" y="664" type="curve"/>
      <point x="82" y="-3" type="line"/>
      <point x="111" y="-3" type="line"/>
      <point x="118" y="117" type="line"/>
      <point x="120" y="116" type="line"/>
      <point x="120" y="735" type="line"/>
      <point x="21" y="735" type="line"/>
      <point x="21" y="715" type="line"/>
      <point x="32" y="713" type="line" smooth="yes"/>
      <point x="73" y="706"/>
      <point x="82" y="697"/>
    </contour>
  </outline>
</glyph>
<glyph name="h" format="2">
  <advance width="489"/>
  <unicode hex="0068"/>
  <outline>
    <contour>
      <point x="134" y="735" type="line"/>
      <point x="35.25" y="735" type="line"/>
      <point x="35.25" y="715" type="line"/>
      <point x="46.25" y="713" type="line" smooth="yes"/>
      <point x="87.2291846889" y="705.5492391475"/>
      <point x="96" y="696.6666666667"/>
      <point x="96" y="664" type="curve" smooth="yes"/>
      <point x="96" y="57" type="line" smooth="yes"/>
      <point x="96" y="32"/>
      <point x="80" y="26"/>
      <point x="57" y="26" type="curve" smooth="yes"/>
      <point x="35" y="26" type="line"/>
      <point x="35" y="0" type="line"/>
      <point x="191" y="0" type="line"/>
      <point x="191" y="26" type="line"/>
      <point x="188" y="26" type="line" smooth="yes"/>
      <point x="167" y="26"/>
      <point x="134" y="29"/>
      <point x="134" y="36" type="curve"/>
    </contour>
    <contour>
      <point x="461" y="0" type="line"/>
      <point x="461" y="26" type="line"/>
      <point x="440" y="26" type="line" smooth="yes"/>
      <point x="417" y="26"/>
      <point x="400" y="32"/>
      <point x="400" y="57" type="curve" smooth="yes"/>
      <point x="400" y="386" type="line" smooth="yes"/>
      <point x="400" y="475"/>
      <point x="354" y="518"/>
      <point x="278" y="518" type="curve" smooth="yes"/>
      <point x="215" y="518"/>
      <point x="169" y="487"/>
      <point x="129" y="417" type="curve"/>
      <point x="129" y="379" type="line"/>
      <point x="169" y="449"/>
      <point x="214" y="487"/>
      <point x="276" y="487" type="curve" smooth="yes"/>
      <point x="338" y="487"/>
      <point x="362" y="450"/>
      <point x="362" y="383" type="curve" smooth="yes"/>
      <point x="362" y="36" type="line" smooth="yes"/>
      <point x="362" y="29"/>
      <point x="327" y="26"/>
      <point x="307" y="26" type="curve" smooth="yes"/>
      <point x="305" y="26" type="line"/>
      <point x="305" y="0" type="line"/>
    </contour>
  </outline>
</glyph>
<glyph name="i" format="2">
  <advance width="228"/>
  <unicode hex="0069"/>
  <outline>
    <contour>
      <point x="109" y="658" type="curve" smooth="yes"/>
      <point x="130" y="658"/>
      <point x="146" y="672"/>
      <point x="146" y="697" type="curve" smooth="yes"/>
      <point x="146" y="723"/>
      <point x="130" y="737"/>
      <point x="109" y="737" type="curve" smooth="yes"/>
      <point x="87" y="737"/>
      <point x="72" y="723"/>
      <point x="72" y="697" type="curve" smooth="yes"/>
      <point x="72" y="672"/>
      <point x="87" y="658"/>
    </contour>
    <contour>
      <point x="134" y="508" type="line"/>
      <point x="35.25" y="508" type="line"/>
      <point x="35.25" y="488" type="line"/>
      <point x="43.25" y="486" type="line" smooth="yes"/>
      <point x="83.8319283844" y="476.0420179039"/>
      <point x="96" y="468"/>
      <point x="96" y="438" type="curve" smooth="yes"/>
      <point x="96" y="57" type="line" smooth="yes"/>
      <point x="96" y="32"/>
      <point x="78.7173913043" y="26"/>
      <point x="56.25" y="26" type="curve" smooth="yes"/>
      <point x="35.25" y="26" type="line"/>
      <point x="35.25" y="0" type="line"/>
      <point x="195.75" y="0" type="line"/>
      <point x="195.75" y="26" type="line"/>
      <point x="173.75" y="26" type="line" smooth="yes"/>
      <point x="151.2826086957" y="26"/>
      <point x="134" y="32"/>
      <point x="134" y="57" type="curve" smooth="yes"/>
    </contour>
  </outline>
</glyph>
<glyph name="k" format="2">
  <advance width="460"/>
  <unicode hex="006B"/>
  <outline>
    <contour>
      <point x="438" y="0" type="line"/>
      <point x="438" y="26" type="line"/>
      <point x="434" y="26" type="line"/>
      <point x="408" y="26"/>
      <point x="389" y="33"/>
      <point x="365" y="64" type="curve" smooth="yes"/>
      <point x="195" y="288" type="line"/>
      <point x="193" y="265" type="line"/>
      <point x="334" y="430" type="line" smooth="yes"/>
      <point x="366" y="468"/>
      <point x="383" y="479"/>
      <point x="418" y="479" type="curve"/>
      <point x="420" y="479" type="line"/>
      <point x="420" y="508" type="line"/>
      <point x="263" y="508" type="line"/>
      <point x="263" y="479" type="line"/>
      <point x="266" y="479" type="line"/>
      <point x="288" y="479"/>
      <point x="323" y="476"/>
      <point x="323" y="461" type="curve"/>
      <point x="164" y="273" type="line"/>
      <point x="164" y="268" type="line"/>
      <point x="340" y="36" type="line"/>
      <point x="340" y="29"/>
      <point x="309" y="26"/>
      <point x="285" y="26" type="curve"/>
      <point x="284" y="26" type="line"/>
      <point x="284" y="0" type="line"/>
    </contour>
    <contour>
      <point x="134" y="735" type="line"/>
      <point x="35" y="735" type="line"/>
      <point x="35" y="715" type="line"/>
      <point x="46" y="713" type="line" smooth="yes"/>
      <point x="87" y="706"/>
      <point x="96" y="697"/>
      <point x="96" y="664" type="curve" smooth="yes"/>
      <point x="96" y="57" type="line" smooth="yes"/>
      <point x="96" y="32"/>
      <point x="80" y="26"/>
      <point x="57" y="26" type="curve" smooth="yes"/>
      <point x="35" y="26" type="line"/>
      <point x="35" y="0" type="line"/>
      <point x="188" y="0" type="line"/>
      <point x="188" y="26" type="line"/>
      <point x="185" y="26" type="line" smooth="yes"/>
      <point x="164" y="26"/>
      <point x="134" y="29"/>
      <point x="134" y="36" type="curve" smooth="yes"/>
    </contour>
  </outline>
</glyph>
<glyph name="l" format="2">
  <advance width="230"/>
  <unicode hex="006C"/>
  <outline>
    <contour>
      <point x="134" y="735" type="line"/>
      <point x="35" y="735" type="line"/>
      <point x="35" y="715" type="line"/>
      <point x="46" y="713" type="line" smooth="yes"/>
      <point x="87" y="706"/>
      <point x="96" y="697"/>
      <point x="96" y="664" type="curve" smooth="yes"/>
      <point x="96" y="57" type="line" smooth="yes"/>
      <point x="96" y="32"/>
      <point x="80" y="26"/>
      <point x="57" y="26" type="curve" smooth="yes"/>
      <point x="35" y="26" type="line"/>
      <point x="35" y="0" type="line"/>
      <point x="195" y="0" type="line"/>
      <point x="195" y="26" type="line"/>
      <point x="174" y="26" type="line" smooth="yes"/>
      <point x="151" y="26"/>
      <point x="134" y="32"/>
      <point x="134" y="57" type="curve" smooth="yes"/>
    </contour>
  </outline>
</glyph>
<glyph name="m" format="2">
  <advance width="706"/>
  <unicode hex="006D"/>
  <outline>
    <contour>
      <point x="35" y="0" type="line"/>
      <point x="190" y="0" type="line"/>
      <point x="190" y="26" type="line"/>
      <point x="188" y="26" type="line" smooth="yes"/>
      <point x="167" y="26"/>
      <point x="134" y="29"/>
      <point x="134" y="36" type="curve" smooth="yes"/>
      <point x="134" y="398" type="line"/>
      <point x="132" y="398" type="line"/>
      <point x="132" y="508" type="line"/>
      <point x="35" y="508" type="line"/>
      <point x="35" y="488" type="line"/>
      <point x="43" y="486" type="line" smooth="yes"/>
      <point x="84" y="476"/>
      <point x="96" y="468"/>
      <point x="96" y="438" type="curve" smooth="yes"/>
      <point x="96" y="57" type="line" smooth="yes"/>
      <point x="96" y="32"/>
      <point x="79" y="26"/>
      <point x="56" y="26" type="curve" smooth="yes"/>
      <point x="35" y="26" type="line"/>
    </contour>
    <contour>
      <point x="431" y="0" type="line"/>
      <point x="431" y="26" type="line"/>
      <point x="429" y="26" type="line" smooth="yes"/>
      <point x="409" y="26"/>
      <point x="375" y="29"/>
      <point x="375" y="36" type="curve" smooth="yes"/>
      <point x="375" y="397" type="line" smooth="yes"/>
      <point x="375" y="467"/>
      <point x="334" y="518"/>
      <point x="264" y="518" type="curve"/>
      <point x="207" y="518"/>
      <point x="165" y="488"/>
      <point x="129" y="424" type="curve"/>
      <point x="129" y="382" type="line"/>
      <point x="163" y="447"/>
      <point x="202" y="487"/>
      <point x="256" y="487" type="curve"/>
      <point x="315" y="487"/>
      <point x="337" y="449"/>
      <point x="337" y="389" type="curve" smooth="yes"/>
      <point x="337" y="36" type="line" smooth="yes"/>
      <point x="337" y="29"/>
      <point x="303" y="26"/>
      <point x="283" y="26" type="curve" smooth="yes"/>
      <point x="281" y="26" type="line"/>
      <point x="281" y="0" type="line"/>
    </contour>
    <contour>
      <point x="678" y="0" type="line"/>
      <point x="678" y="26" type="line"/>
      <point x="656" y="26" type="line" smooth="yes"/>
      <point x="633" y="26"/>
      <point x="616" y="32"/>
      <point x="616" y="57" type="curve" smooth="yes"/>
      <point x="616" y="397" type="line" smooth="yes"/>
      <point x="616" y="467"/>
      <point x="575" y="518"/>
      <point x="505" y="518" type="curve"/>
      <point x="447" y="518"/>
      <point x="403" y="486"/>
      <point x="366" y="417" type="curve"/>
      <point x="366" y="374" type="line"/>
      <point x="402" y="443"/>
      <point x="443" y="487"/>
      <point x="497" y="487" type="curve"/>
      <point x="556" y="487"/>
      <point x="578" y="449"/>
      <point x="578" y="389" type="curve" smooth="yes"/>
      <point x="578" y="36" type="line" smooth="yes"/>
      <point x="578" y="29"/>
      <point x="544" y="26"/>
      <point x="524" y="26" type="curve" smooth="yes"/>
      <point x="522" y="26" type="line"/>
      <point x="522" y="0" type="line"/>
    </contour>
  </outline>
</glyph>
<glyph name="n" format="2">
  <advance width="488"/>
  <unicode hex="006E"/>
  <outline>
    <contour>
      <point x="35" y="0" type="line"/>
      <point x="190" y="0" type="line"/>
      <point x="190" y="26" type="line"/>
      <point x="188" y="26" type="line" smooth="yes"/>
      <point x="167" y="26"/>
      <point x="134" y="29"/>
      <point x="134" y="36" type="curve" smooth="yes"/>
      <point x="134" y="398" type="line"/>
      <point x="132" y="398" type="line"/>
      <point x="132" y="508" type="line"/>
      <point x="35" y="508" type="line"/>
      <point x="35" y="488" type="line"/>
      <point x="43" y="486" type="line" smooth="yes"/>
      <point x="84" y="476"/>
      <point x="96" y="468"/>
      <point x="96" y="438" type="curve" smooth="yes"/>
      <point x="96" y="57" type="line" smooth="yes"/>
      <point x="96" y="32"/>
      <point x="79" y="26"/>
      <point x="56" y="26" type="curve" smooth="yes"/>
      <point x="35" y="26" type="line"/>
    </contour>
    <contour>
      <point x="461" y="0" type="line"/>
      <point x="461" y="26" type="line"/>
      <point x="440" y="26" type="line" smooth="yes"/>
      <point x="417" y="26"/>
      <point x="400" y="32"/>
      <point x="400" y="57" type="curve" smooth="yes"/>
      <point x="400" y="386" type="line" smooth="yes"/>
      <point x="400" y="475"/>
      <point x="354" y="518"/>
      <point x="278" y="518" type="curve" smooth="yes"/>
      <point x="215" y="518"/>
      <point x="169" y="487"/>
      <point x="129" y="417" type="curve"/>
      <point x="129" y="379" type="line"/>
      <point x="169" y="449"/>
      <point x="214" y="487"/>
      <point x="276" y="487" type="curve" smooth="yes"/>
      <point x="338" y="487"/>
      <point x="362" y="450"/>
      <point x="362" y="383" type="curve" smooth="yes"/>
      <point x="362" y="36" type="line" smooth="yes"/>
      <point x="362" y="29"/>
      <point x="327" y="26"/>
      <point x="307" y="26" type="curve" smooth="yes"/>
      <point x="305" y="26" type="line"/>
      <point x="305" y="0" type="line"/>
    </contour>
  </outline>
</glyph>
<glyph name="o" format="2">
  <advance width="446"/>
  <unicode hex="006F"/>
  <outline>
    <contour>
      <point x="406" y="254" type="curve" smooth="yes"/>
      <point x="406" y="434"/>
      <point x="337" y="518"/>
      <point x="223" y="518" type="curve" smooth="yes"/>
      <point x="109" y="518"/>
      <point x="40" y="435"/>
      <point x="40" y="254" type="curve" smooth="yes"/>
      <point x="40" y="72"/>
      <point x="109" y="-10"/>
      <point x="223" y="-10" type="curve" smooth="yes"/>
      <point x="337" y="-10"/>
      <point x="406" y="72"/>
    </contour>
    <contour>
      <point x="80" y="254" type="curve" smooth="yes"/>
      <point x="80" y="421"/>
      <point x="127" y="488"/>
      <point x="223" y="488" type="curve" smooth="yes"/>
      <point x="319" y="488"/>
      <point x="366" y="421"/>
      <point x="366" y="254" type="curve" smooth="yes"/>
      <point x="366" y="83"/>
      <point x="319" y="20"/>
      <point x="223" y="20" type="curve" smooth="yes"/>
      <point x="127" y="20"/>
      <point x="80" y="84"/>
    </contour>
  </outline>
</glyph>
<glyph name="q" format="2">
  <advance width="478"/>
  <unicode hex="0071"/>
  <outline>
    <contour>
      <point x="269" y="-223" type="line"/>
      <point x="457" y="-223" type="line"/>
      <point x="457" y="-197" type="line"/>
      <point x="436" y="-197" type="line" smooth="yes"/>
      <point x="413" y="-197"/>
      <point x="396" y="-191"/>
      <point x="396" y="-166" type="curve" smooth="yes"/>
      <point x="396" y="511" type="line"/>
      <point x="367" y="511" type="line"/>
      <point x="360" y="391" type="line"/>
      <point x="358" y="392" type="line"/>
      <point x="358" y="-187" type="line" smooth="yes"/>
      <point x="358" y="-194"/>
      <point x="327" y="-197"/>
      <point x="285" y="-197" type="curve" smooth="yes"/>
      <point x="269" y="-197" type="line"/>
    </contour>
    <contour>
      <point x="209" y="518" type="curve" smooth="yes"/>
      <point x="110" y="518"/>
      <point x="40" y="436"/>
      <point x="40" y="254" type="curve"/>
      <point x="40" y="72"/>
      <point x="103" y="-10"/>
      <point x="210" y="-10" type="curve" smooth="yes"/>
      <point x="281" y="-10"/>
      <point x="322" y="21"/>
      <point x="363" y="91" type="curve"/>
      <point x="363" y="130" type="line"/>
      <point x="323" y="59"/>
      <point x="283" y="20"/>
      <point x="213" y="20" type="curve" smooth="yes"/>
      <point x="124" y="20"/>
      <point x="80" y="86"/>
      <point x="80" y="254" type="curve"/>
      <point x="80" y="422"/>
      <point x="124" y="488"/>
      <point x="213" y="488" type="curve"/>
      <point x="283" y="488"/>
      <point x="323" y="449"/>
      <point x="363" y="376" type="curve"/>
      <point x="367" y="413" type="line"/>
      <point x="322" y="487"/>
      <point x="281" y="518"/>
    </contour>
  </outline>
</glyph>
<glyph name="r" format="2">
  <advance width="299"/>
  <unicode hex="0072"/>
  <outline>
    <contour>
      <point x="267.25" y="514" type="line" identifier="wLLrjje5it"/>
      <point x="262.25" y="516" identifier="w2vL7kJWDY"/>
      <point x="249" y="518" identifier="g8Htazwpw5"/>
      <point x="237" y="518" type="curve" smooth="yes" identifier="FFFV71ZDtC"/>
      <point x="190" y="518" identifier="NNOS5M8u2d"/>
      <point x="153.9034092859" y="477.7464493754" identifier="yS7trs1iae"/>
      <point x="130" y="415" type="curve" identifier="cv72vEZSr4"/>
      <point x="129" y="379" type="line" identifier="x9n9P7lfSW"/>
      <point x="157.8493078508" y="445.6518491725" identifier="dcEORew5Py"/>
      <point x="191" y="475" identifier="XSMM2EhqO3"/>
      <point x="232" y="475" type="curve" smooth="yes" identifier="ajaKDx0Utx"/>
      <point x="243" y="475" identifier="SW4hyHwPpP"/>
      <point x="254.25" y="473" identifier="21B0d6CDuJ"/>
      <point x="267.25" y="470" type="curve" identifier="g4qYcbTGSA"/>
    </contour>
    <contour>
      <point x="35.25" y="0" type="line" identifier="fj7CwNoO9u"/>
      <point x="212" y="0" type="line" identifier="OsndqyUJRJ"/>
      <point x="212" y="26" type="line" identifier="PBfYY9r5qZ"/>
      <point x="178" y="26" type="line" smooth="yes" identifier="OMaEzJNGyC"/>
      <point x="148.3673469388" y="26" identifier="fNUEPaqREO"/>
      <point x="134" y="32" identifier="4GnsukhHNj"/>
      <point x="134" y="57" type="curve" identifier="GQTLHmcaif"/>
      <point x="134" y="398" type="line" identifier="Gn1Rtr1xyk"/>
      <point x="132" y="398" type="line" identifier="OhmrIYlQEE"/>
      <point x="132" y="508" type="line" identifier="auKleEGVlP"/>
      <point x="35.25" y="508" type="line" identifier="d2GV3tBBS8"/>
      <point x="35.25" y="488" type="line" identifier="cVf5TsxYRt"/>
      <point x="43.25" y="486" type="line" smooth="yes" identifier="acCf5Fl3ks"/>
      <point x="83.8319283844" y="476.0420179039" identifier="AU3IRxihs3"/>
      <point x="96" y="468" identifier="GQXAY9hYBr"/>
      <point x="96" y="438" type="curve" smooth="yes" identifier="xInHWr5Ud0"/>
      <point x="96" y="57" type="line" smooth="yes" identifier="jYRwCd1qTT"/>
      <point x="96" y="32" identifier="NC28PYz1yo"/>
      <point x="78.7173913043" y="26" identifier="elVQezQc0P"/>
      <point x="56.25" y="26" type="curve" smooth="yes" identifier="eN1fINKjM9"/>
      <point x="35.25" y="26" type="line" identifier="xNCsQAopJL"/>
    </contour>
  </outline>
</glyph>
<glyph name="z" format="2">
  <advance width="365"/>
  <unicode hex="007A"/>
  <outline>
    <contour>
      <point x="57" y="11" type="line"/>
      <point x="334" y="480" type="line"/>
      <point x="334" y="508" type="line"/>
      <point x="44" y="508" type="line"/>
      <point x="44" y="364" type="line"/>
      <point x="70" y="364" type="line"/>
      <point x="76" y="423" type="line" smooth="yes"/>
      <point x="81" y="468"/>
      <point x="101" y="479"/>
      <point x="177" y="479" type="curve" smooth="yes"/>
      <point x="314" y="479" type="line"/>
      <point x="302" y="494" type="line"/>
      <point x="29" y="32" type="line"/>
      <point x="29" y="0" type="line"/>
      <point x="344" y="0" type="line"/>
      <point x="344" y="157" type="line"/>
      <point x="319" y="157" type="line"/>
      <point x="312" y="85" type="line" smooth="yes"/>
      <point x="307.2333573258" y="35.9716753513"/>
      <point x="280" y="29"/>
      <point x="210" y="29" type="curve" smooth="yes"/>
      <point x="45" y="29" type="line"/>
    </contour>
  </outline>
</glyph>
<glyph name="yen" format="2">
  <advance width="560"/>
  <unicode hex="00A5"/>
  <outline>
    <contour>
      <point x="101" y="344" type="line"/>
      <point x="101" y="314" type="line"/>
      <point x="460" y="314" type="line"/>
      <point x="460" y="344" type="line"/>
    </contour>
    <contour>
      <point x="101" y="206" type="line"/>
      <point x="101" y="176" type="line"/>
      <point x="460" y="176" type="line"/>
      <point x="460" y="206" type="line"/>
    </contour>
    <contour>
      <point x="262" y="350" type="line"/>
      <point x="262" y="65" type="line" smooth="yes"/>
      <point x="262" y="36"/>
      <point x="231" y="29"/>
      <point x="189" y="29" type="curve" smooth="yes"/>
      <point x="175" y="29" type="line"/>
      <point x="175" y="0" type="line"/>
      <point x="388" y="0" type="line"/>
      <point x="388" y="29" type="line"/>
      <point x="373" y="29" type="line" smooth="yes"/>
      <point x="332" y="29"/>
      <point x="301" y="36"/>
      <point x="301" y="65" type="curve" smooth="yes"/>
      <point x="301" y="350" type="line"/>
    </contour>
    <contour>
      <point x="291" y="318" type="line"/>
      <point x="445" y="640" type="line" smooth="yes"/>
      <point x="462" y="677"/>
      <point x="487" y="681"/>
      <point x="515" y="681" type="curve" smooth="yes"/>
      <point x="520" y="681" type="line"/>
      <point x="520" y="710" type="line"/>
      <point x="340" y="710" type="line"/>
      <point x="340" y="681" type="line"/>
      <point x="352" y="681" type="line" smooth="yes"/>
      <point x="383" y="681"/>
      <point x="421" y="674"/>
      <point x="421" y="663" type="curve"/>
      <point x="267" y="337" type="line"/>
      <point x="297" y="347" type="line"/>
      <point x="144" y="671" type="line"/>
      <point x="144" y="678"/>
      <point x="182" y="681"/>
      <point x="212" y="681" type="curve" smooth="yes"/>
      <point x="229" y="681" type="line"/>
      <point x="229" y="710" type="line"/>
      <point x="40" y="710" type="line"/>
      <point x="40" y="681" type="line"/>
      <point x="45" y="681" type="line" smooth="yes"/>
      <point x="73" y="681"/>
      <point x="95" y="682"/>
      <point x="108" y="655" type="curve" smooth="yes"/>
      <point x="272" y="318" type="line"/>
    </contour>
  </outline>
</glyph>
<glyph name="copyright" format="2">
  <advance width="678"/>
  <unicode hex="00A9"/>
  <outline>
    <contour>
      <point x="343" y="534" type="curve" smooth="yes"/>
      <point x="400" y="534"/>
      <point x="430" y="500"/>
      <point x="444" y="437" type="curve"/>
      <point x="477" y="437" type="line"/>
      <point x="477" y="552" type="line"/>
      <point x="455" y="552" type="line"/>
      <point x="447" y="446" type="line"/>
      <point x="461" y="451" type="line"/>
      <point x="448" y="524"/>
      <point x="405" y="563"/>
      <point x="343" y="563" type="curve" smooth="yes"/>
      <point x="254" y="563"/>
      <point x="188" y="496"/>
      <point x="188" y="354" type="curve" smooth="yes"/>
      <point x="188" y="216"/>
      <point x="260" y="146"/>
      <point x="350" y="147" type="curve" smooth="yes"/>
      <point x="423" y="148"/>
      <point x="467" y="198"/>
      <point x="479" y="273" type="curve"/>
      <point x="454" y="279" type="line"/>
      <point x="441" y="213"/>
      <point x="413" y="176"/>
      <point x="350" y="175" type="curve" smooth="yes"/>
      <point x="277" y="174"/>
      <point x="226" y="230"/>
      <point x="226" y="354" type="curve" smooth="yes"/>
      <point x="226" y="484"/>
      <point x="275" y="534"/>
    </contour>
    <contour>
      <point x="65" y="355" type="curve" smooth="yes"/>
      <point x="65" y="573"/>
      <point x="177" y="709"/>
      <point x="339" y="709" type="curve" smooth="yes"/>
      <point x="501" y="709"/>
      <point x="613" y="573"/>
      <point x="613" y="355" type="curve" smooth="yes"/>
      <point x="613" y="137"/>
      <point x="501" y="1"/>
      <point x="339" y="1" type="curve" smooth="yes"/>
      <point x="177" y="1"/>
      <point x="65" y="137"/>
    </contour>
    <contour>
      <point x="32" y="355" type="curve" smooth="yes"/>
      <point x="32" y="121"/>
      <point x="164" y="-28"/>
      <point x="339" y="-28" type="curve" smooth="yes"/>
      <point x="514" y="-28"/>
      <point x="645" y="121"/>
      <point x="645" y="355" type="curve" smooth="yes"/>
      <point x="645" y="589"/>
      <point x="514" y="738"/>
      <point x="339" y="738" type="curve" smooth="yes"/>
      <point x="164" y="738"/>
      <point x="32" y="589"/>
    </contour>
  </outline>
</glyph>
<glyph name="logicalnot" format="2">
  <advance width="560"/>
  <unicode hex="00AC"/>
  <outline>
    <contour>
      <point x="404" y="341" type="line"/>
      <point x="404" y="177" type="line"/>
      <point x="432" y="177" type="line"/>
      <point x="432" y="357" type="line"/>
      <point x="128" y="357" type="line"/>
      <point x="128" y="329" type="line"/>
      <point x="420" y="329" type="line"/>
    </contour>
  </outline>
</glyph>
<glyph name="acute" format="2">
  <advance width="403"/>
  <unicode hex="00B4"/>
  <outline>
    <contour>
      <point x="204" y="707" type="curve" smooth="yes"/>
      <point x="161" y="590" type="line"/>
      <point x="161" y="577" type="line"/>
      <point x="174" y="577" type="line"/>
      <point x="243" y="683" type="line" smooth="yes"/>
      <point x="255" y="701"/>
      <point x="265" y="715"/>
      <point x="265" y="731" type="curve" smooth="yes"/>
      <point x="265" y="745"/>
      <point x="255" y="754"/>
      <point x="243" y="754" type="curve" smooth="yes"/>
      <point x="223" y="754"/>
      <point x="215" y="737"/>
    </contour>
  </outline>
</glyph>
<glyph name="cedilla" format="2">
  <advance width="484"/>
  <unicode hex="00B8"/>
  <outline>
    <contour>
      <point x="242" y="4" type="line"/>
      <point x="209" y="4" type="line"/>
      <point x="183" y="-88" type="line"/>
      <point x="194" y="-88" type="line" smooth="yes"/>
      <point x="243" y="-88"/>
      <point x="264" y="-106"/>
      <point x="264" y="-148" type="curve" smooth="yes"/>
      <point x="264" y="-185"/>
      <point x="244" y="-209"/>
      <point x="213" y="-209" type="curve" smooth="yes"/>
      <point x="186" y="-209"/>
      <point x="168" y="-196"/>
      <point x="150" y="-165" type="curve"/>
      <point x="127" y="-185" type="line"/>
      <point x="151" y="-222"/>
      <point x="175" y="-236"/>
      <point x="212" y="-236" type="curve" smooth="yes"/>
      <point x="263" y="-236"/>
      <point x="300" y="-198"/>
      <point x="300" y="-148" type="curve" smooth="yes"/>
      <point x="300" y="-90"/>
      <point x="262" y="-56"/>
      <point x="202" y="-60" type="curve"/>
      <point x="207" y="-78" type="line"/>
    </contour>
  </outline>
</glyph>
<glyph name="AE" format="2">
  <advance width="768"/>
  <unicode hex="00C6"/>
  <outline>
    <contour>
      <point x="210" y="298" type="line"/>
      <point x="193" y="268" type="line"/>
      <point x="417" y="268" type="line"/>
      <point x="417" y="298" type="line"/>
    </contour>
    <contour>
      <point x="428" y="377" type="curve"/>
      <point x="428" y="351" type="line"/>
      <point x="500" y="350"/>
      <point x="570" y="348"/>
      <point x="641" y="347" type="curve"/>
      <point x="641" y="381" type="line"/>
      <point x="569" y="381"/>
      <point x="498" y="379"/>
    </contour>
    <contour>
      <point x="330" y="0" type="line"/>
      <point x="721" y="0" type="line"/>
      <point x="721" y="182" type="line"/>
      <point x="696" y="182" type="line"/>
      <point x="689" y="72" type="line" smooth="yes"/>
      <point x="687" y="36"/>
      <point x="657" y="29"/>
      <point x="588" y="29" type="curve" smooth="yes"/>
      <point x="445" y="29" type="line"/>
      <point x="445" y="681" type="line"/>
      <point x="575" y="681" type="line" smooth="yes"/>
      <point x="645" y="681"/>
      <point x="673" y="674"/>
      <point x="676" y="638" type="curve" smooth="yes"/>
      <point x="684" y="554" type="line"/>
      <point x="708" y="554" type="line"/>
      <point x="708" y="710" type="line"/>
      <point x="289" y="710" type="line"/>
      <point x="289" y="681" type="line"/>
      <point x="299" y="681" type="line" smooth="yes"/>
      <point x="341" y="681"/>
      <point x="361" y="674"/>
      <point x="363" y="656" type="curve"/>
      <point x="71" y="72" type="line" smooth="yes"/>
      <point x="53" y="38"/>
      <point x="41" y="29"/>
      <point x="14" y="29" type="curve" smooth="yes"/>
      <point x="10" y="29" type="line"/>
      <point x="10" y="0" type="line"/>
      <point x="170" y="0" type="line"/>
      <point x="170" y="29" type="line"/>
      <point x="160" y="29" type="line" smooth="yes"/>
      <point x="130" y="29"/>
      <point x="94" y="36"/>
      <point x="94" y="47" type="curve"/>
      <point x="408" y="678" type="line"/>
      <point x="408" y="678" type="line"/>
      <point x="408" y="39" type="line"/>
      <point x="408" y="32"/>
      <point x="368" y="29"/>
      <point x="337" y="29" type="curve" smooth="yes"/>
      <point x="330" y="29" type="line"/>
    </contour>
  </outline>
</glyph>
<glyph name="Oslash" format="2">
  <advance width="586"/>
  <unicode hex="00D8"/>
  <outline>
    <contour>
      <point x="283" y="690" type="curve"/>
      <point x="422" y="690"/>
      <point x="488" y="574"/>
      <point x="488" y="355" type="curve"/>
      <point x="488" y="142"/>
      <point x="418" y="20"/>
      <point x="283" y="20" type="curve" smooth="yes"/>
      <point x="144" y="20"/>
      <point x="78" y="136"/>
      <point x="78" y="355" type="curve" smooth="yes"/>
      <point x="78" y="568"/>
      <point x="148" y="690"/>
    </contour>
    <contour>
      <point x="283" y="-10" type="curve" smooth="yes"/>
      <point x="440" y="-10"/>
      <point x="529" y="128"/>
      <point x="529" y="355" type="curve" smooth="yes"/>
      <point x="529" y="582"/>
      <point x="440" y="720"/>
      <point x="283" y="720" type="curve" smooth="yes"/>
      <point x="126" y="720"/>
      <point x="37" y="583"/>
      <point x="37" y="355" type="curve" smooth="yes"/>
      <point x="37" y="128"/>
      <point x="126" y="-10"/>
    </contour>
    <contour>
      <point x="10" y="-10" type="line"/>
      <point x="46" y="-10" type="line"/>
      <point x="556" y="720" type="line"/>
      <point x="520" y="720" type="line"/>
    </contour>
  </outline>
</glyph>
<glyph name="germandbls" format="2">
  <advance width="460"/>
  <unicode hex="00DF"/>
  <outline>
    <contour>
      <point x="35" y="508" type="line" identifier="BV4H2qlP6Q"/>
      <point x="35" y="481" type="line" identifier="zHDfp9X65l"/>
      <point x="131" y="481" type="line" identifier="QtjUe2uXJd"/>
      <point x="131" y="508" type="line" identifier="z8yOcg4Tj5"/>
    </contour>
    <contour>
      <point x="223" y="421" type="line" identifier="vUVZ7vdg3F"/>
      <point x="308" y="431" identifier="UwE2vpym9H"/>
      <point x="377" y="501" identifier="L7Ex77NyX8"/>
      <point x="377" y="606" type="curve" smooth="yes" identifier="NwCmyuuw1I"/>
      <point x="377" y="695" identifier="lLCx9a8jlt"/>
      <point x="333" y="752" identifier="hAM7rsEtgd"/>
      <point x="242" y="752" type="curve" smooth="yes" identifier="oRiuhwiVIJ"/>
      <point x="170" y="752" identifier="eP0JJzrL9T"/>
      <point x="112" y="716" identifier="xivJRUVQAp"/>
      <point x="112" y="622" type="curve" smooth="yes" identifier="Ykx0pWkdtO"/>
      <point x="112" y="62" type="line" smooth="yes" identifier="PM9knkbEEW"/>
      <point x="112" y="33" identifier="NODNnpLYId"/>
      <point x="88" y="26" identifier="ImlzYjj1ao"/>
      <point x="48" y="26" type="curve" smooth="yes" identifier="q5MjFVNDpU"/>
      <point x="39" y="26" type="line" identifier="DqQbrmgfTl"/>
      <point x="39" y="0" type="line" identifier="jXUovkIq9X"/>
      <point x="150" y="0" type="line" identifier="UWosuX5vlj"/>
      <point x="150" y="622" type="line" smooth="yes" identifier="5oEpypGEOt"/>
      <point x="150" y="699" identifier="aQHMlEF9l1"/>
      <point x="183" y="723" identifier="KQfoiRGQYk"/>
      <point x="242" y="723" type="curve" smooth="yes" identifier="x2PUuSVqt6"/>
      <point x="310" y="723" identifier="SVohJKuCG0"/>
      <point x="341" y="682" identifier="dmcD7oqIfD"/>
      <point x="341" y="606" type="curve" smooth="yes" identifier="ejDPDwD8Ln"/>
      <point x="341" y="496" identifier="4roRqAawHa"/>
      <point x="277" y="444" identifier="xv2mUtLgan"/>
      <point x="204" y="435" type="curve" identifier="ijjGOfw204"/>
      <point x="204" y="406" type="line" identifier="pntZcQR9N1"/>
      <point x="205" y="406" type="line" smooth="yes" identifier="sixsBPk6A7"/>
      <point x="308" y="406" identifier="ar3qze9cjx"/>
      <point x="387" y="352" identifier="obGTgLFcaj"/>
      <point x="387" y="196" type="curve" smooth="yes" identifier="DLvSwH6ht0"/>
      <point x="387" y="69" identifier="z1llcRkZJa"/>
      <point x="345" y="21" identifier="7ivl3psfLp"/>
      <point x="274" y="21" type="curve" smooth="yes" identifier="QWMgebJko9"/>
      <point x="233" y="21" identifier="wnwdFGhh3L"/>
      <point x="203" y="40" identifier="Vbr62IXHEV"/>
      <point x="199" y="41" type="curve" identifier="eIoB1S00bk"/>
      <point x="199" y="11" type="line" identifier="PIy3RcNSbw"/>
      <point x="213" y="1" identifier="nvzXVSv39g"/>
      <point x="241" y="-8" identifier="GIKPLGjesK"/>
      <point x="274" y="-8" type="curve" smooth="yes" identifier="S6oMX5cCtL"/>
      <point x="364" y="-8" identifier="HBf7KMg3d8"/>
      <point x="427" y="55" identifier="koUof4chqR"/>
      <point x="427" y="196" type="curve" smooth="yes" identifier="m4fvuuDu7t"/>
      <point x="427" y="352" identifier="TdhrnlHqBG"/>
      <point x="356" y="414" identifier="T1dMI3CXGi"/>
      <point x="236" y="428" type="curve" identifier="7SFL7yGwrP"/>
      <point x="242" y="417" type="line" identifier="6ZK3jza6Kq"/>
      <point x="242" y="434" type="line" identifier="EIwPMXcXgP"/>
    </contour>
  </outline>
</glyph>
<glyph name="idieresis" format="2">
  <advance width="228"/>
  <unicode hex="00EF"/>
  <outline>
    <contour>
      <point x="32" y="660" type="curve" smooth="yes"/>
      <point x="53" y="660"/>
      <point x="67" y="673"/>
      <point x="67" y="699" type="curve" smooth="yes"/>
      <point x="67" y="724"/>
      <point x="53" y="738"/>
      <point x="32" y="738" type="curve" smooth="yes"/>
      <point x="10" y="738"/>
      <point x="-4" y="724"/>
      <point x="-4" y="699" type="curve" smooth="yes"/>
      <point x="-4" y="673"/>
      <point x="10" y="660"/>
    </contour>
    <contour>
      <point x="185" y="660" type="curve" smooth="yes"/>
      <point x="206" y="660"/>
      <point x="221" y="673"/>
      <point x="221" y="699" type="curve" smooth="yes"/>
      <point x="221" y="724"/>
      <point x="206" y="738"/>
      <point x="185" y="738" type="curve" smooth="yes"/>
      <point x="164" y="738"/>
      <point x="150" y="724"/>
      <point x="150" y="699" type="curve" smooth="yes"/>
      <point x="150" y="673"/>
      <point x="164" y="660"/>
    </contour>
    <component base="dotlessi"/>
  </outline>
</glyph>
<glyph name="eth" format="2">
  <advance width="432"/>
  <unicode hex="00F0"/>
  <outline>
    <contour>
      <point x="362" y="417" type="line"/>
      <point x="344" y="478"/>
      <point x="295" y="518"/>
      <point x="221" y="518" type="curve" smooth="yes"/>
      <point x="110" y="518"/>
      <point x="40" y="435"/>
      <point x="40" y="256" type="curve" smooth="yes"/>
      <point x="40" y="72"/>
      <point x="109" y="-10"/>
      <point x="223" y="-10" type="curve" smooth="yes"/>
      <point x="321" y="-10"/>
      <point x="406" y="71"/>
      <point x="406" y="280" type="curve" smooth="yes"/>
      <point x="406" y="498"/>
      <point x="334" y="672"/>
      <point x="140" y="756" type="curve"/>
      <point x="125" y="737" type="line"/>
      <point x="302" y="650"/>
      <point x="366" y="510"/>
      <point x="366" y="280" type="curve" smooth="yes"/>
      <point x="366" y="74"/>
      <point x="303" y="20"/>
      <point x="223" y="20" type="curve" smooth="yes"/>
      <point x="127" y="20"/>
      <point x="80" y="85"/>
      <point x="80" y="256" type="curve" smooth="yes"/>
      <point x="80" y="424"/>
      <point x="125" y="488"/>
      <point x="222" y="488" type="curve" smooth="yes"/>
      <point x="285" y="488"/>
      <point x="330" y="454"/>
      <point x="369" y="371" type="curve"/>
    </contour>
    <contour>
      <point x="85" y="595" type="line"/>
      <point x="96" y="572" type="line"/>
      <point x="373" y="716" type="line"/>
      <point x="362" y="740" type="line"/>
    </contour>
  </outline>
</glyph>
<glyph name="oslash" format="2">
  <advance width="442"/>
  <unicode hex="00F8"/>
  <outline>
    <contour>
      <point x="23" y="-13" type="line"/>
      <point x="58" y="-13" type="line"/>
      <point x="419" y="518" type="line"/>
      <point x="383" y="518" type="line"/>
    </contour>
    <contour>
      <point x="82" y="254" type="curve" smooth="yes"/>
      <point x="82" y="421"/>
      <point x="129" y="488"/>
      <point x="225" y="488" type="curve" smooth="yes"/>
      <point x="325" y="488"/>
      <point x="368" y="423"/>
      <point x="368" y="254" type="curve" smooth="yes"/>
      <point x="368" y="83"/>
      <point x="321" y="20"/>
      <point x="225" y="20" type="curve"/>
      <point x="126" y="20"/>
      <point x="82" y="86"/>
    </contour>
    <contour>
      <point x="42" y="254" type="curve" smooth="yes"/>
      <point x="42" y="72"/>
      <point x="111" y="-10"/>
      <point x="225" y="-10" type="curve"/>
      <point x="339" y="-10"/>
      <point x="408" y="72"/>
      <point x="408" y="254" type="curve" smooth="yes"/>
      <point x="408" y="434"/>
      <point x="339" y="519"/>
      <point x="225" y="518" type="curve" smooth="yes"/>
      <point x="111" y="517"/>
      <point x="42" y="435"/>
    </contour>
  </outline>
</glyph>
<glyph name="Aogonek" format="2">
  <advance width="533"/>
  <unicode hex="0104"/>
  <outline>
    <contour>
      <point x="139" y="293" type="line"/>
      <point x="139" y="263" type="line"/>
      <point x="392" y="263" type="line"/>
      <point x="392" y="293" type="line"/>
    </contour>
    <contour>
      <point x="442" y="24" type="line"/>
      <point x="377" y="-27"/>
      <point x="321" y="-89"/>
      <point x="321" y="-154" type="curve" smooth="yes"/>
      <point x="321" y="-207"/>
      <point x="357" y="-233"/>
      <point x="398" y="-233" type="curve" smooth="yes"/>
      <point x="430" y="-233"/>
      <point x="453" y="-217"/>
      <point x="474" y="-182" type="curve"/>
      <point x="455" y="-167" type="line"/>
      <point x="437" y="-193"/>
      <point x="424" y="-204"/>
      <point x="401" y="-204" type="curve" smooth="yes"/>
      <point x="374" y="-204"/>
      <point x="357" y="-185"/>
      <point x="357" y="-149" type="curve" smooth="yes"/>
      <point x="357" y="-99"/>
      <point x="390" y="-53"/>
      <point x="456" y="5" type="curve"/>
    </contour>
    <contour>
      <point x="516" y="0" type="line"/>
      <point x="516" y="29" type="line"/>
      <point x="512" y="29" type="line" smooth="yes"/>
      <point x="487" y="29"/>
      <point x="471" y="31"/>
      <point x="464" y="57" type="curve" smooth="yes"/>
      <point x="293" y="710" type="line"/>
      <point x="241" y="710" type="line"/>
      <point x="74" y="72" type="line" smooth="yes"/>
      <point x="64" y="35"/>
      <point x="48" y="29"/>
      <point x="21" y="29" type="curve" smooth="yes"/>
      <point x="17" y="29" type="line"/>
      <point x="17" y="0" type="line"/>
      <point x="176" y="0" type="line"/>
      <point x="176" y="29" type="line"/>
      <point x="165" y="29" type="line" smooth="yes"/>
      <point x="136" y="29"/>
      <point x="102" y="36"/>
      <point x="102" y="47" type="curve"/>
      <point x="270" y="694" type="line"/>
      <point x="256" y="705" type="line"/>
      <point x="438" y="0" type="line"/>
    </contour>
  </outline>
</glyph>
<glyph name="dcroat" format="2">
  <advance width="492"/>
  <unicode hex="0111"/>
  <outline>
    <contour>
      <point x="209" y="518" type="curve" smooth="yes"/>
      <point x="110" y="518"/>
      <point x="40" y="436"/>
      <point x="40" y="254" type="curve"/>
      <point x="40" y="72"/>
      <point x="103" y="-10"/>
      <point x="210" y="-10" type="curve" smooth="yes"/>
      <point x="281" y="-10"/>
      <point x="322" y="21"/>
      <point x="363" y="91" type="curve"/>
      <point x="363" y="130" type="line"/>
      <point x="323" y="59"/>
      <point x="283" y="20"/>
      <point x="213" y="20" type="curve" smooth="yes"/>
      <point x="124" y="20"/>
      <point x="80" y="86"/>
      <point x="80" y="254" type="curve"/>
      <point x="80" y="422"/>
      <point x="124" y="488"/>
      <point x="213" y="488" type="curve"/>
      <point x="283" y="488"/>
      <point x="323" y="449"/>
      <point x="363" y="376" type="curve"/>
      <point x="367" y="413" type="line"/>
      <point x="322" y="487"/>
      <point x="281" y="518"/>
    </contour>
    <contour>
      <point x="358" y="735" type="line"/>
      <point x="358" y="117" type="line"/>
      <point x="360" y="117" type="line"/>
      <point x="360" y="0" type="line"/>
      <point x="460" y="0" type="line"/>
      <point x="460" y="26" type="line"/>
      <point x="448" y="26" type="line" smooth="yes"/>
      <point x="419" y="26"/>
      <point x="396" y="33"/>
      <point x="396" y="58" type="curve" smooth="yes"/>
      <point x="396" y="735" type="line"/>
    </contour>
    <contour>
      <point x="469" y="632" type="line"/>
      <point x="194" y="632" type="line"/>
      <point x="194" y="602" type="line"/>
      <point x="469" y="602" type="line"/>
    </contour>
  </outline>
</glyph>
<glyph name="itilde" format="2">
  <advance width="228"/>
  <unicode hex="0129"/>
  <outline>
    <contour>
      <point x="145" y="618" type="curve" smooth="yes"/>
      <point x="184" y="618"/>
      <point x="203" y="660"/>
      <point x="215" y="724" type="curve"/>
      <point x="189" y="728" type="line"/>
      <point x="180" y="683"/>
      <point x="170" y="651"/>
      <point x="151" y="651" type="curve" smooth="yes"/>
      <point x="120" y="651"/>
      <point x="106" y="727"/>
      <point x="57" y="727" type="curve" smooth="yes"/>
      <point x="19" y="727"/>
      <point x="0" y="689"/>
      <point x="-10" y="620" type="curve"/>
      <point x="16" y="615" type="line"/>
      <point x="23" y="664"/>
      <point x="32" y="694"/>
      <point x="51" y="694" type="curve" smooth="yes"/>
      <point x="78" y="694"/>
      <point x="93" y="618"/>
    </contour>
    <component base="dotlessi"/>
  </outline>
</glyph>
<glyph name="dotlessi" format="2">
  <advance width="228"/>
  <unicode hex="0131"/>
  <outline>
    <contour>
      <point x="134" y="508" type="line"/>
      <point x="35" y="508" type="line"/>
      <point x="35" y="488" type="line"/>
      <point x="43" y="486" type="line" smooth="yes"/>
      <point x="84" y="476"/>
      <point x="96" y="468"/>
      <point x="96" y="438" type="curve" smooth="yes"/>
      <point x="96" y="57" type="line" smooth="yes"/>
      <point x="96" y="32"/>
      <point x="79" y="26"/>
      <point x="56" y="26" type="curve" smooth="yes"/>
      <point x="35" y="26" type="line"/>
      <point x="35" y="0" type="line"/>
      <point x="196" y="0" type="line"/>
      <point x="196" y="26" type="line"/>
      <point x="174" y="26" type="line" smooth="yes"/>
      <point x="151" y="26"/>
      <point x="134" y="32"/>
      <point x="134" y="57" type="curve" smooth="yes"/>
    </contour>
  </outline>
</glyph>
<glyph name="OE" format="2">
  <advance width="782"/>
  <unicode hex="0152"/>
  <outline>
    <contour>
      <point x="442" y="377" type="curve"/>
      <point x="442" y="351" type="line"/>
      <point x="513" y="350"/>
      <point x="584" y="348"/>
      <point x="655" y="347" type="curve"/>
      <point x="655" y="381" type="line"/>
      <point x="584" y="380"/>
      <point x="513" y="378"/>
    </contour>
    <contour>
      <point x="319" y="29" type="line" smooth="yes"/>
      <point x="185" y="29"/>
      <point x="88" y="96"/>
      <point x="88" y="353" type="curve" smooth="yes"/>
      <point x="88" y="610"/>
      <point x="184" y="681"/>
      <point x="319" y="681" type="curve" smooth="yes"/>
      <point x="422" y="681" type="line"/>
      <point x="422" y="29" type="line"/>
    </contour>
    <contour>
      <point x="319" y="0" type="curve" smooth="yes"/>
      <point x="735" y="0" type="line"/>
      <point x="735" y="182" type="line"/>
      <point x="710" y="182" type="line"/>
      <point x="703" y="73" type="line" smooth="yes"/>
      <point x="701" y="39"/>
      <point x="679" y="29"/>
      <point x="602" y="29" type="curve" smooth="yes"/>
      <point x="460" y="29" type="line"/>
      <point x="460" y="681" type="line"/>
      <point x="590" y="681" type="line" smooth="yes"/>
      <point x="658" y="681"/>
      <point x="686" y="674"/>
      <point x="690" y="637" type="curve" smooth="yes"/>
      <point x="698" y="554" type="line"/>
      <point x="722" y="554" type="line"/>
      <point x="722" y="710" type="line"/>
      <point x="319" y="710" type="line" smooth="yes"/>
      <point x="160" y="710"/>
      <point x="47" y="619"/>
      <point x="47" y="353" type="curve" smooth="yes"/>
      <point x="47" y="86"/>
      <point x="161" y="0"/>
    </contour>
  </outline>
</glyph>
<glyph name="uogonek" format="2">
  <advance width="469"/>
  <unicode hex="0173"/>
  <outline>
    <contour>
      <point x="122" y="508" type="line"/>
      <point x="22" y="508" type="line"/>
      <point x="22" y="483" type="line"/>
      <point x="30" y="483" type="line" smooth="yes"/>
      <point x="61" y="483"/>
      <point x="84" y="477"/>
      <point x="84" y="447" type="curve" smooth="yes"/>
      <point x="84" y="129" type="line"/>
      <point x="84" y="34"/>
      <point x="129" y="-10"/>
      <point x="206" y="-10" type="curve"/>
      <point x="263" y="-10"/>
      <point x="314" y="21"/>
      <point x="351" y="94" type="curve"/>
      <point x="352" y="136" type="line"/>
      <point x="312" y="59"/>
      <point x="267" y="21"/>
      <point x="208" y="21" type="curve"/>
      <point x="144" y="21"/>
      <point x="122" y="59"/>
      <point x="122" y="140" type="curve"/>
    </contour>
    <contour>
      <point x="384" y="508" type="line"/>
      <point x="277" y="508" type="line"/>
      <point x="277" y="483" type="line"/>
      <point x="281" y="483" type="line" smooth="yes"/>
      <point x="322" y="483"/>
      <point x="346" y="477"/>
      <point x="346" y="447" type="curve" smooth="yes"/>
      <point x="346" y="117" type="line"/>
      <point x="348" y="117" type="line"/>
      <point x="348" y="0" type="line"/>
      <point x="448" y="0" type="line"/>
      <point x="448" y="26" type="line"/>
      <point x="436" y="26" type="line" smooth="yes"/>
      <point x="407" y="26"/>
      <point x="384" y="33"/>
      <point x="384" y="58" type="curve" smooth="yes"/>
    </contour>
    <contour>
      <point x="373" y="24" type="line" identifier="T6r8VbIgBJ"/>
      <point x="309" y="-28" identifier="YbWJKhtE6N"/>
      <point x="242" y="-83" identifier="DfjwPFN3as"/>
      <point x="242" y="-156" type="curve" smooth="yes" identifier="Hc1cb4EyH3"/>
      <point x="242" y="-207" identifier="ICOjrXJc4G"/>
      <point x="278" y="-233" identifier="DA33WWB2Fx"/>
      <point x="319" y="-233" type="curve" smooth="yes" identifier="rR7T0TLifF"/>
      <point x="351" y="-233" identifier="FYdgEm6faa"/>
      <point x="374" y="-217" identifier="rrIPPbhkq5"/>
      <point x="395" y="-182" type="curve" identifier="vnx7Ny2PNa"/>
      <point x="376" y="-167" type="line" identifier="WGj18r53zF"/>
      <point x="358" y="-193" identifier="3wgdNEgbgW"/>
      <point x="345" y="-204" identifier="zSWuMzBgq7"/>
      <point x="322" y="-204" type="curve" smooth="yes" identifier="htOmuKyr7q"/>
      <point x="295" y="-204" identifier="yAmVEisALO"/>
      <point x="278" y="-185" identifier="qBOIEjK7tm"/>
      <point x="278" y="-151" type="curve" smooth="yes" identifier="zKi0eomLW8"/>
      <point x="278" y="-93" identifier="oR42iI0ARz"/>
      <point x="322" y="-54" identifier="Pr2w1I2u5X"/>
      <point x="387" y="5" type="curve" identifier="Y1CYptZocS"/>
    </contour>
  </outline>
</glyph>
<glyph name="Schwa" format="2">
  <advance width="505"/>
  <unicode hex="018F"/>
  <outline>
    <contour>
      <point x="246" y="720" type="curve" smooth="yes"/>
      <point x="136" y="720"/>
      <point x="67" y="657"/>
      <point x="21" y="554" type="curve"/>
      <point x="49" y="539" type="line"/>
      <point x="81" y="622"/>
      <point x="141" y="691"/>
      <point x="246" y="691" type="curve" smooth="yes"/>
      <point x="370" y="691"/>
      <point x="454" y="584"/>
      <point x="454" y="360" type="curve" smooth="yes"/>
      <point x="454" y="135"/>
      <point x="372" y="20"/>
      <point x="253" y="20" type="curve" smooth="yes"/>
      <point x="129" y="20"/>
      <point x="62" y="115"/>
      <point x="59" y="348" type="curve"/>
      <point x="40" y="338" type="line"/>
      <point x="475" y="338" type="line"/>
      <point x="474" y="367" type="line"/>
      <point x="18" y="367" type="line"/>
      <point x="19" y="110"/>
      <point x="102" y="-11"/>
      <point x="253" y="-11" type="curve" smooth="yes"/>
      <point x="403" y="-11"/>
      <point x="492" y="130"/>
      <point x="492" y="357" type="curve" smooth="yes"/>
      <point x="492" y="589"/>
      <point x="402" y="720"/>
    </contour>
  </outline>
</glyph>
<glyph name="florin" format="2">
  <advance width="452"/>
  <unicode hex="0192"/>
  <outline>
    <contour>
      <point x="125" y="508" type="line"/>
      <point x="120" y="478" type="line"/>
      <point x="412" y="478" type="line"/>
      <point x="417" y="508" type="line"/>
    </contour>
    <contour>
      <point x="199" y="23" type="curve" smooth="yes"/>
      <point x="265" y="598" type="line" smooth="yes"/>
      <point x="275" y="683"/>
      <point x="313" y="723"/>
      <point x="369" y="723" type="curve" smooth="yes"/>
      <point x="401" y="723"/>
      <point x="426" y="713"/>
      <point x="452" y="701" type="curve"/>
      <point x="456" y="732" type="line"/>
      <point x="430" y="743"/>
      <point x="402" y="751"/>
      <point x="369" y="751" type="curve" smooth="yes"/>
      <point x="291" y="751"/>
      <point x="239" y="694"/>
      <point x="229" y="604" type="curve" smooth="yes"/>
      <point x="165" y="25" type="line" smooth="yes"/>
      <point x="145" y="-156"/>
      <point x="96" y="-208"/>
      <point x="38" y="-208" type="curve" smooth="yes"/>
      <point x="5" y="-208"/>
      <point x="-21" y="-198"/>
      <point x="-40" y="-184" type="curve"/>
      <point x="-44" y="-216" type="line"/>
      <point x="-28" y="-226"/>
      <point x="-2" y="-236"/>
      <point x="38" y="-236" type="curve" smooth="yes"/>
      <point x="120" y="-236"/>
      <point x="177" y="-169"/>
    </contour>
  </outline>
</glyph>
<glyph name="khook" format="2">
  <advance width="460"/>
  <unicode hex="0199"/>
  <outline>
    <contour>
      <point x="438" y="0" type="line"/>
      <point x="438" y="26" type="line"/>
      <point x="434" y="26" type="line" smooth="yes"/>
      <point x="408" y="26"/>
      <point x="389" y="33"/>
      <point x="365" y="64" type="curve" smooth="yes"/>
      <point x="195" y="288" type="line"/>
      <point x="193" y="265" type="line"/>
      <point x="334" y="430" type="line" smooth="yes"/>
      <point x="366" y="468"/>
      <point x="383" y="479"/>
      <point x="418" y="479" type="curve" smooth="yes"/>
      <point x="420" y="479" type="line"/>
      <point x="420" y="508" type="line"/>
      <point x="263" y="508" type="line"/>
      <point x="263" y="479" type="line"/>
      <point x="266" y="479" type="line" smooth="yes"/>
      <point x="288" y="479"/>
      <point x="323" y="476"/>
      <point x="323" y="461" type="curve"/>
      <point x="164" y="273" type="line"/>
      <point x="164" y="268" type="line"/>
      <point x="340" y="36" type="line"/>
      <point x="340" y="29"/>
      <point x="309" y="26"/>
      <point x="285" y="26" type="curve" smooth="yes"/>
      <point x="284" y="26" type="line"/>
      <point x="284" y="0" type="line"/>
    </contour>
    <contour>
      <point x="96" y="535" type="curve" smooth="yes"/>
      <point x="96" y="57" type="line" smooth="yes"/>
      <point x="96" y="32"/>
      <point x="80" y="26"/>
      <point x="57" y="26" type="curve" smooth="yes"/>
      <point x="35" y="26" type="line"/>
      <point x="35" y="0" type="line"/>
      <point x="188" y="0" type="line"/>
      <point x="188" y="26" type="line"/>
      <point x="185" y="26" type="line" smooth="yes"/>
      <point x="164" y="26"/>
      <point x="134" y="29"/>
      <point x="134" y="36" type="curve" smooth="yes"/>
      <point x="134" y="534" type="line" smooth="yes"/>
      <point x="134.0" y="681"/>
      <point x="193.0" y="723.0"/>
      <point x="253" y="723" type="curve" smooth="yes"/>
      <point x="292" y="723.0"/>
      <point x="320.0" y="711"/>
      <point x="342" y="698" type="curve"/>
      <point x="342" y="740" type="line"/>
      <point x="327" y="746.0"/>
      <point x="298" y="752.0"/>
      <point x="263" y="752" type="curve" smooth="yes"/>
      <point x="178.0" y="752.0"/>
      <point x="96.0" y="705"/>
    </contour>
  </outline>
</glyph>
<glyph name="Ohorn" format="2">
  <advance width="596"/>
  <unicode hex="01A0"/>
  <outline>
    <contour>
      <point x="293" y="20" type="curve" smooth="yes"/>
      <point x="158" y="20"/>
      <point x="88" y="142"/>
      <point x="88" y="355" type="curve" smooth="yes"/>
      <point x="88" y="568"/>
      <point x="158" y="690"/>
      <point x="293" y="690" type="curve" smooth="yes"/>
      <point x="428" y="690"/>
      <point x="498" y="568"/>
      <point x="498" y="355" type="curve" smooth="yes"/>
      <point x="498" y="142"/>
      <point x="428" y="20"/>
    </contour>
    <contour>
      <point x="410" y="682" type="line"/>
      <point x="414" y="689" type="line"/>
      <point x="398" y="689" type="line"/>
      <point x="409" y="687"/>
      <point x="420" y="686"/>
      <point x="431" y="686" type="curve" smooth="yes"/>
      <point x="508" y="686"/>
      <point x="570" y="741"/>
      <point x="576" y="878" type="curve"/>
      <point x="539" y="878" type="line"/>
      <point x="532" y="760"/>
      <point x="497" y="708"/>
      <point x="413" y="708" type="curve" smooth="yes"/>
      <point x="382" y="708"/>
      <point x="343" y="720"/>
      <point x="293" y="720" type="curve" smooth="yes"/>
      <point x="136" y="720"/>
      <point x="47" y="583"/>
      <point x="47" y="355" type="curve" smooth="yes"/>
      <point x="47" y="128"/>
      <point x="136" y="-10"/>
      <point x="293" y="-10" type="curve" smooth="yes"/>
      <point x="450" y="-10"/>
      <point x="539" y="128"/>
      <point x="539" y="355" type="curve" smooth="yes"/>
      <point x="539" y="522"/>
      <point x="490" y="642"/>
      <point x="402" y="692" type="curve"/>
    </contour>
  </outline>
</glyph>
<glyph name="ohorn" format="2">
  <advance width="461"/>
  <unicode hex="01A1"/>
  <outline>
    <contour>
      <point x="80" y="254" type="curve" smooth="yes"/>
      <point x="80" y="421"/>
      <point x="127" y="488"/>
      <point x="223" y="488" type="curve" smooth="yes"/>
      <point x="319" y="488"/>
      <point x="366" y="421"/>
      <point x="366" y="254" type="curve" smooth="yes"/>
      <point x="366" y="83"/>
      <point x="317" y="20"/>
      <point x="223" y="20" type="curve" smooth="yes"/>
      <point x="127" y="20"/>
      <point x="80" y="84"/>
    </contour>
    <contour>
      <point x="304" y="486" type="line"/>
      <point x="308" y="496" type="line"/>
      <point x="293" y="492" type="line"/>
      <point x="306" y="489"/>
      <point x="318" y="486"/>
      <point x="326" y="486" type="curve" smooth="yes"/>
      <point x="397" y="486"/>
      <point x="439" y="563"/>
      <point x="446" y="685" type="curve"/>
      <point x="410" y="685" type="line"/>
      <point x="405" y="569"/>
      <point x="375" y="508"/>
      <point x="316" y="508" type="curve" smooth="yes"/>
      <point x="289" y="508"/>
      <point x="266" y="518"/>
      <point x="223" y="518" type="curve" smooth="yes"/>
      <point x="109" y="518"/>
      <point x="40" y="435"/>
      <point x="40" y="254" type="curve" smooth="yes"/>
      <point x="40" y="72"/>
      <point x="109" y="-10"/>
      <point x="223" y="-10" type="curve" smooth="yes"/>
      <point x="335" y="-10"/>
      <point x="406" y="72"/>
      <point x="406" y="254" type="curve" smooth="yes"/>
      <point x="406" y="389"/>
      <point x="371" y="462"/>
      <point x="297" y="500" type="curve"/>
    </contour>
  </outline>
</glyph>
<glyph name="icaron" format="2">
  <advance width="228"/>
  <unicode hex="01D0"/>
  <outline>
    <contour>
      <point x="85" y="598" type="line"/>
      <point x="4" y="729" type="line"/>
      <point x="4" y="739" type="line"/>
      <point x="23" y="739" type="line"/>
      <point x="128" y="609" type="line"/>
      <point x="97" y="609" type="line"/>
      <point x="200" y="739" type="line"/>
      <point x="219" y="739" type="line"/>
      <point x="219" y="729" type="line"/>
      <point x="138" y="598" type="line"/>
    </contour>
    <component base="dotlessi"/>
  </outline>
</glyph>
<glyph name="Oogonek" format="2">
  <advance width="586"/>
  <unicode hex="01EA"/>
  <outline>
    <contour>
      <point x="293" y="20" type="curve" smooth="yes"/>
      <point x="158" y="20"/>
      <point x="88" y="142"/>
      <point x="88" y="355" type="curve" smooth="yes"/>
      <point x="88" y="568"/>
      <point x="158" y="690"/>
      <point x="293" y="690" type="curve" smooth="yes"/>
      <point x="428" y="690"/>
      <point x="498" y="568"/>
      <point x="498" y="355" type="curve" smooth="yes"/>
      <point x="498" y="142"/>
      <point x="428" y="20"/>
    </contour>
    <contour>
      <point x="427" y="34" type="curve" smooth="yes"/>
      <point x="499" y="92"/>
      <point x="539" y="204"/>
      <point x="539" y="355" type="curve" smooth="yes"/>
      <point x="539" y="582"/>
      <point x="450" y="720"/>
      <point x="293" y="720" type="curve" smooth="yes"/>
      <point x="136" y="720"/>
      <point x="47" y="583"/>
      <point x="47" y="355" type="curve" smooth="yes"/>
      <point x="47" y="128"/>
      <point x="136" y="-10"/>
      <point x="293" y="-10" type="curve" smooth="yes"/>
      <point x="323" y="-10"/>
      <point x="350" y="-5"/>
      <point x="375" y="4" type="curve"/>
      <point x="387" y="24" type="line"/>
      <point x="326" y="-25"/>
      <point x="267" y="-87"/>
      <point x="267" y="-154" type="curve" smooth="yes"/>
      <point x="267" y="-207"/>
      <point x="303" y="-233"/>
      <point x="344" y="-233" type="curve" smooth="yes"/>
      <point x="376" y="-233"/>
      <point x="399" y="-217"/>
      <point x="420" y="-182" type="curve"/>
      <point x="401" y="-167" type="line"/>
      <point x="383" y="-193"/>
      <point x="370" y="-204"/>
      <point x="347" y="-204" type="curve" smooth="yes"/>
      <point x="320" y="-204"/>
      <point x="303" y="-187"/>
      <point x="303" y="-144" type="curve" smooth="yes"/>
      <point x="303" y="-83"/>
      <point x="351" y="-26"/>
    </contour>
  </outline>
</glyph>
<glyph name="dhook" format="2">
  <advance width="492"/>
  <unicode hex="0257"/>
  <outline>
    <contour>
      <point x="396" y="537" type="line"/>
      <point x="396" y="686"/>
      <point x="440" y="723"/>
      <point x="480" y="723" type="curve"/>
      <point x="499" y="723"/>
      <point x="516" y="715"/>
      <point x="529" y="703" type="curve"/>
      <point x="529" y="744" type="line"/>
      <point x="518" y="748"/>
      <point x="502" y="752"/>
      <point x="482" y="752" type="curve"/>
      <point x="421" y="752"/>
      <point x="358" y="709"/>
      <point x="358" y="537" type="curve"/>
      <point x="358" y="117" type="line"/>
      <point x="360" y="117" type="line"/>
      <point x="360" y="0" type="line"/>
      <point x="460" y="0" type="line"/>
      <point x="460" y="26" type="line"/>
      <point x="448" y="26" type="line" smooth="yes"/>
      <point x="419" y="26"/>
      <point x="396" y="33"/>
      <point x="396" y="58" type="curve" smooth="yes"/>
    </contour>
    <contour>
      <point x="209" y="518" type="curve" smooth="yes"/>
      <point x="110" y="518"/>
      <point x="40" y="436"/>
      <point x="40" y="254" type="curve"/>
      <point x="40" y="72"/>
      <point x="103" y="-10"/>
      <point x="210" y="-10" type="curve" smooth="yes"/>
      <point x="281" y="-10"/>
      <point x="322" y="21"/>
      <point x="363" y="91" type="curve"/>
      <point x="363" y="130" type="line"/>
      <point x="323" y="59"/>
      <point x="283" y="20"/>
      <point x="213" y="20" type="curve" smooth="yes"/>
      <point x="124" y="20"/>
      <point x="80" y="86"/>
      <point x="80" y="254" type="curve"/>
      <point x="80" y="422"/>
      <point x="124" y="488"/>
      <point x="213" y="488" type="curve"/>
      <point x="283" y="488"/>
      <point x="323" y="449"/>
      <point x="363" y="376" type="curve"/>
      <point x="367" y="413" type="line"/>
      <point x="322" y="487"/>
      <point x="281" y="518"/>
    </contour>
  </outline>
</glyph>
<glyph name="circumflex" format="2">
  <advance width="403"/>
  <unicode hex="02C6"/>
  <outline>
    <contour>
      <point x="228" y="739" type="line"/>
      <point x="309" y="608" type="line"/>
      <point x="309" y="598" type="line"/>
      <point x="290" y="598" type="line"/>
      <point x="185" y="728" type="line"/>
      <point x="216" y="728" type="line"/>
      <point x="113" y="598" type="line"/>
      <point x="94" y="598" type="line"/>
      <point x="94" y="608" type="line"/>
      <point x="175" y="739" type="line"/>
    </contour>
  </outline>
</glyph>
<glyph name="verticallinemod" format="2">
  <advance width="403"/>
  <unicode hex="02C8"/>
  <outline>
    <contour>
      <point x="184" y="547" type="line"/>
      <point x="219" y="547" type="line"/>
      <point x="219" y="750" type="line"/>
      <point x="184" y="750" type="line"/>
    </contour>
  </outline>
</glyph>
<glyph name="ring" format="2">
  <advance width="403"/>
  <unicode hex="02DA"/>
  <outline>
    <contour>
      <point x="152" y="677" type="curve" smooth="yes"/>
      <point x="152" y="717"/>
      <point x="170" y="741"/>
      <point x="202" y="741" type="curve" smooth="yes"/>
      <point x="234" y="741"/>
      <point x="252" y="717"/>
      <point x="252" y="677" type="curve" smooth="yes"/>
      <point x="252" y="637"/>
      <point x="234" y="613"/>
      <point x="202" y="613" type="curve" smooth="yes"/>
      <point x="170" y="613"/>
      <point x="152" y="637"/>
    </contour>
    <contour>
      <point x="285" y="677" type="curve" smooth="yes"/>
      <point x="285" y="732"/>
      <point x="252" y="768"/>
      <point x="202" y="768" type="curve" smooth="yes"/>
      <point x="151" y="768"/>
      <point x="119" y="733"/>
      <point x="119" y="677" type="curve" smooth="yes"/>
      <point x="119" y="623"/>
      <point x="152" y="587"/>
      <point x="202" y="587" type="curve" smooth="yes"/>
      <point x="252" y="587"/>
      <point x="285" y="623"/>
    </contour>
  </outline>
</glyph>
<glyph name="Omega" format="2">
  <advance width="619"/>
  <unicode hex="03A9"/>
  <outline>
    <contour>
      <point x="310" y="720" type="curve" smooth="yes"/>
      <point x="453" y="720"/>
      <point x="549" y="614"/>
      <point x="549" y="439" type="curve" smooth="yes"/>
      <point x="549" y="278"/>
      <point x="473" y="188"/>
      <point x="359" y="8" type="curve"/>
      <point x="362" y="28" type="line"/>
      <point x="448" y="28" type="line" smooth="yes"/>
      <point x="526" y="28"/>
      <point x="545" y="35"/>
      <point x="547" y="71" type="curve" smooth="yes"/>
      <point x="554" y="176" type="line"/>
      <point x="579" y="176" type="line"/>
      <point x="579" y="0" type="line"/>
      <point x="349" y="0" type="line"/>
      <point x="349" y="41" type="line"/>
      <point x="445" y="194"/>
      <point x="509" y="265"/>
      <point x="509" y="439" type="curve" smooth="yes"/>
      <point x="509" y="613"/>
      <point x="434" y="692"/>
      <point x="310" y="692" type="curve" smooth="yes"/>
      <point x="186" y="692"/>
      <point x="111" y="613"/>
      <point x="111" y="439" type="curve" smooth="yes"/>
      <point x="111" y="265"/>
      <point x="175" y="194"/>
      <point x="270" y="41" type="curve"/>
      <point x="270" y="0" type="line"/>
      <point x="40" y="0" type="line"/>
      <point x="40" y="176" type="line"/>
      <point x="65" y="176" type="line"/>
      <point x="72" y="71" type="line" smooth="yes"/>
      <point x="74" y="35"/>
      <point x="99" y="28"/>
      <point x="171" y="28" type="curve" smooth="yes"/>
      <point x="257" y="28" type="line"/>
      <point x="260" y="8" type="line"/>
      <point x="147" y="188"/>
      <point x="71" y="278"/>
      <point x="71" y="439" type="curve" smooth="yes"/>
      <point x="71" y="614"/>
      <point x="166" y="720"/>
    </contour>
  </outline>
</glyph>
<glyph name="Djecyr" format="2">
  <advance width="636"/>
  <unicode hex="0402"/>
  <outline>
    <contour>
      <point x="608" y="200" type="curve" smooth="yes"/>
      <point x="608" y="324"/>
      <point x="539" y="400"/>
      <point x="410" y="400" type="curve" smooth="yes"/>
      <point x="351" y="400"/>
      <point x="307" y="391"/>
      <point x="244" y="365" type="curve"/>
      <point x="244" y="335" type="line"/>
      <point x="307" y="360"/>
      <point x="351" y="370"/>
      <point x="410" y="370" type="curve" smooth="yes"/>
      <point x="509" y="370"/>
      <point x="567" y="304"/>
      <point x="567" y="200" type="curve" smooth="yes"/>
      <point x="567" y="96"/>
      <point x="526" y="20"/>
      <point x="423" y="20" type="curve"/>
      <point x="423" y="-10" type="line"/>
      <point x="552" y="-10"/>
      <point x="608" y="76"/>
    </contour>
    <contour>
      <point x="144" y="0" type="line"/>
      <point x="332" y="0" type="line"/>
      <point x="332" y="29" type="line"/>
      <point x="321" y="29" type="line" smooth="yes"/>
      <point x="293" y="29"/>
      <point x="257" y="32"/>
      <point x="257" y="39" type="curve" smooth="yes"/>
      <point x="257" y="680" type="line"/>
      <point x="334" y="680" type="line" smooth="yes"/>
      <point x="416" y="680"/>
      <point x="432" y="671"/>
      <point x="435" y="637" type="curve" smooth="yes"/>
      <point x="442" y="546" type="line"/>
      <point x="466" y="546" type="line"/>
      <point x="466" y="710" type="line"/>
      <point x="30" y="710" type="line"/>
      <point x="30" y="546" type="line"/>
      <point x="54" y="546" type="line"/>
      <point x="62" y="637" type="line" smooth="yes"/>
      <point x="65" y="671"/>
      <point x="81" y="680"/>
      <point x="163" y="680" type="curve" smooth="yes"/>
      <point x="219" y="680" type="line"/>
      <point x="219" y="65" type="line" smooth="yes"/>
      <point x="219" y="36"/>
      <point x="193" y="29"/>
      <point x="156" y="29" type="curve" smooth="yes"/>
      <point x="144" y="29" type="line"/>
    </contour>
  </outline>
</glyph>
<glyph name="Njecyr" format="2">
  <advance width="814"/>
  <unicode hex="040A"/>
  <outline>
    <contour>
      <point x="130" y="405" type="line"/>
      <point x="130" y="375" type="line"/>
      <point x="463" y="375" type="line"/>
      <point x="463" y="405" type="line"/>
    </contour>
    <contour>
      <point x="31" y="0" type="line"/>
      <point x="211" y="0" type="line"/>
      <point x="211" y="29" type="line"/>
      <point x="204" y="29" type="line" smooth="yes"/>
      <point x="176" y="29"/>
      <point x="140" y="32"/>
      <point x="140" y="39" type="curve" smooth="yes"/>
      <point x="140" y="671" type="line" smooth="yes"/>
      <point x="140" y="678"/>
      <point x="176" y="681"/>
      <point x="204" y="681" type="curve" smooth="yes"/>
      <point x="211" y="681" type="line"/>
      <point x="211" y="710" type="line"/>
      <point x="31" y="710" type="line"/>
      <point x="31" y="681" type="line"/>
      <point x="39" y="681" type="line" smooth="yes"/>
      <point x="76" y="681"/>
      <point x="102" y="674"/>
      <point x="102" y="645" type="curve" smooth="yes"/>
      <point x="102" y="65" type="line" smooth="yes"/>
      <point x="102" y="36"/>
      <point x="76" y="29"/>
      <point x="39" y="29" type="curve" smooth="yes"/>
      <point x="31" y="29" type="line"/>
    </contour>
    <contour>
      <point x="368" y="0" type="line"/>
      <point x="585" y="0" type="line" smooth="yes"/>
      <point x="719" y="0"/>
      <point x="790" y="78"/>
      <point x="790" y="202" type="curve" smooth="yes"/>
      <point x="790" y="327"/>
      <point x="723" y="405"/>
      <point x="585" y="405" type="curve" smooth="yes"/>
      <point x="454" y="405" type="line"/>
      <point x="454" y="375" type="line"/>
      <point x="583" y="375" type="line" smooth="yes"/>
      <point x="693" y="375"/>
      <point x="749" y="312"/>
      <point x="749" y="202" type="curve" smooth="yes"/>
      <point x="749" y="88"/>
      <point x="693" y="30"/>
      <point x="583" y="30" type="curve" smooth="yes"/>
      <point x="478" y="30" type="line"/>
      <point x="478" y="645" type="line" smooth="yes"/>
      <point x="478" y="674"/>
      <point x="504" y="681"/>
      <point x="540" y="681" type="curve" smooth="yes"/>
      <point x="549" y="681" type="line"/>
      <point x="549" y="710" type="line"/>
      <point x="368" y="710" type="line"/>
      <point x="368" y="681" type="line"/>
      <point x="375" y="681" type="line" smooth="yes"/>
      <point x="404" y="681"/>
      <point x="440" y="678"/>
      <point x="440" y="671" type="curve" smooth="yes"/>
      <point x="440" y="39" type="line" smooth="yes"/>
      <point x="440" y="32"/>
      <point x="404" y="29"/>
      <point x="375" y="29" type="curve" smooth="yes"/>
      <point x="368" y="29" type="line"/>
    </contour>
  </outline>
</glyph>
<glyph name="Gecyr" format="2">
  <advance width="429"/>
  <unicode hex="0413"/>
  <outline>
    <contour>
      <point x="140" y="680" type="line"/>
      <point x="272" y="680" type="line" smooth="yes"/>
      <point x="353" y="680"/>
      <point x="370" y="671"/>
      <point x="373" y="637" type="curve" smooth="yes"/>
      <point x="380" y="546" type="line"/>
      <point x="404" y="546" type="line"/>
      <point x="404" y="710" type="line"/>
      <point x="31" y="710" type="line"/>
      <point x="31" y="681" type="line"/>
      <point x="39" y="681" type="line" smooth="yes"/>
      <point x="76" y="681"/>
      <point x="102" y="674"/>
      <point x="102" y="645" type="curve" smooth="yes"/>
      <point x="102" y="65" type="line" smooth="yes"/>
      <point x="102" y="36"/>
      <point x="76" y="29"/>
      <point x="39" y="29" type="curve" smooth="yes"/>
      <point x="31" y="29" type="line"/>
      <point x="31" y="0" type="line"/>
      <point x="225" y="0" type="line"/>
      <point x="225" y="29" type="line"/>
      <point x="211" y="29" type="line" smooth="yes"/>
      <point x="178" y="29"/>
      <point x="140" y="30"/>
      <point x="140" y="65" type="curve" smooth="yes"/>
    </contour>
  </outline>
</glyph>
<glyph name="Elcyr" format="2">
  <advance width="590"/>
  <unicode hex="041B"/>
  <outline>
    <contour>
      <point x="152" y="710" type="line"/>
      <point x="152" y="680" type="line"/>
      <point x="479" y="680" type="line"/>
      <point x="479" y="710" type="line"/>
    </contour>
    <contour>
      <point x="378" y="0" type="line"/>
      <point x="559" y="0" type="line"/>
      <point x="559" y="29" type="line"/>
      <point x="550" y="29" type="line" smooth="yes"/>
      <point x="514" y="29"/>
      <point x="488" y="36"/>
      <point x="488" y="65" type="curve" smooth="yes"/>
      <point x="488" y="645" type="line" smooth="yes"/>
      <point x="488" y="674"/>
      <point x="514" y="681"/>
      <point x="550" y="681" type="curve" smooth="yes"/>
      <point x="559" y="681" type="line"/>
      <point x="559" y="710" type="line"/>
      <point x="450" y="710" type="line"/>
      <point x="450" y="39" type="line" smooth="yes"/>
      <point x="450" y="32"/>
      <point x="414" y="29"/>
      <point x="385" y="29" type="curve" smooth="yes"/>
      <point x="378" y="29" type="line"/>
    </contour>
    <contour>
      <point x="154" y="320" type="line" smooth="yes"/>
      <point x="142.1932432053" y="94.9771057956"/>
      <point x="106" y="32"/>
      <point x="50" y="32" type="curve" smooth="yes"/>
      <point x="29" y="32"/>
      <point x="15" y="37"/>
      <point x="5" y="42" type="curve"/>
      <point x="5" y="0" type="line"/>
      <point x="14" y="-5"/>
      <point x="29" y="-10"/>
      <point x="50" y="-10" type="curve" smooth="yes"/>
      <point x="131" y="-10"/>
      <point x="172.85297684" y="60.9966296268"/>
      <point x="187" y="315" type="curve" smooth="yes"/>
      <point x="209" y="710" type="line"/>
      <point x="100" y="710" type="line"/>
      <point x="100" y="681" type="line"/>
      <point x="108" y="681" type="line" smooth="yes"/>
      <point x="145" y="681"/>
      <point x="173" y="673"/>
      <point x="171" y="644" type="curve" smooth="yes"/>
    </contour>
  </outline>
</glyph>
<glyph name="Pecyr" format="2">
  <advance width="588"/>
  <unicode hex="041F"/>
  <outline>
    <contour>
      <point x="130" y="710" type="line"/>
      <point x="130" y="680" type="line"/>
      <point x="477" y="680" type="line"/>
      <point x="477" y="710" type="line"/>
    </contour>
    <contour>
      <point x="31" y="0" type="line"/>
      <point x="211" y="0" type="line"/>
      <point x="211" y="29" type="line"/>
      <point x="204" y="29" type="line" smooth="yes"/>
      <point x="176" y="29"/>
      <point x="140" y="32"/>
      <point x="140" y="39" type="curve" smooth="yes"/>
      <point x="140" y="710" type="line"/>
      <point x="31" y="710" type="line"/>
      <point x="31" y="681" type="line"/>
      <point x="39" y="681" type="line" smooth="yes"/>
      <point x="76" y="681"/>
      <point x="102" y="674"/>
      <point x="102" y="645" type="curve" smooth="yes"/>
      <point x="102" y="65" type="line" smooth="yes"/>
      <point x="102" y="36"/>
      <point x="76" y="29"/>
      <point x="39" y="29" type="curve" smooth="yes"/>
      <point x="31" y="29" type="line"/>
    </contour>
    <contour>
      <point x="376" y="0" type="line"/>
      <point x="557" y="0" type="line"/>
      <point x="557" y="29" type="line"/>
      <point x="548" y="29" type="line" smooth="yes"/>
      <point x="512" y="29"/>
      <point x="486" y="36"/>
      <point x="486" y="65" type="curve" smooth="yes"/>
      <point x="486" y="645" type="line" smooth="yes"/>
      <point x="486" y="674"/>
      <point x="512" y="681"/>
      <point x="548" y="681" type="curve" smooth="yes"/>
      <point x="557" y="681" type="line"/>
      <point x="557" y="710" type="line"/>
      <point x="448" y="710" type="line"/>
      <point x="448" y="39" type="line" smooth="yes"/>
      <point x="448" y="32"/>
      <point x="412" y="29"/>
      <point x="383" y="29" type="curve" smooth="yes"/>
      <point x="376" y="29" type="line"/>
    </contour>
  </outline>
</glyph>
<glyph name="Tsecyr" format="2">
  <advance width="588"/>
  <unicode hex="0426"/>
  <outline>
    <contour>
      <point x="111" y="0" type="line"/>
      <point x="458" y="0" type="line"/>
      <point x="458" y="30" type="line"/>
      <point x="111" y="30" type="line"/>
    </contour>
    <contour>
      <point x="31" y="710" type="line"/>
      <point x="31" y="681" type="line"/>
      <point x="40" y="681" type="line" smooth="yes"/>
      <point x="76" y="681"/>
      <point x="102" y="674"/>
      <point x="102" y="645" type="curve" smooth="yes"/>
      <point x="102" y="65" type="line" smooth="yes"/>
      <point x="102" y="36"/>
      <point x="76" y="29"/>
      <point x="40" y="29" type="curve" smooth="yes"/>
      <point x="31" y="29" type="line"/>
      <point x="31" y="0" type="line"/>
      <point x="140" y="0" type="line"/>
      <point x="140" y="671" type="line" smooth="yes"/>
      <point x="140" y="678"/>
      <point x="176" y="681"/>
      <point x="205" y="681" type="curve" smooth="yes"/>
      <point x="212" y="681" type="line"/>
      <point x="212" y="710" type="line"/>
    </contour>
    <contour>
      <point x="377" y="710" type="line"/>
      <point x="377" y="681" type="line"/>
      <point x="384" y="681" type="line" smooth="yes"/>
      <point x="412" y="681"/>
      <point x="448" y="678"/>
      <point x="448" y="671" type="curve" smooth="yes"/>
      <point x="448" y="0" type="line"/>
      <point x="486" y="0" type="line"/>
      <point x="486" y="645" type="line" smooth="yes"/>
      <point x="486" y="674"/>
      <point x="512" y="681"/>
      <point x="549" y="681" type="curve" smooth="yes"/>
      <point x="557" y="681" type="line"/>
      <point x="557" y="710" type="line"/>
    </contour>
    <contour>
      <point x="400" y="0" type="line"/>
      <point x="435" y="0" type="line" smooth="yes"/>
      <point x="517" y="0"/>
      <point x="534" y="-9"/>
      <point x="536" y="-43" type="curve" smooth="yes"/>
      <point x="543" y="-145" type="line"/>
      <point x="567" y="-145" type="line"/>
      <point x="567" y="30" type="line"/>
      <point x="400" y="30" type="line"/>
    </contour>
  </outline>
</glyph>
<glyph name="Shacyr" format="2">
  <advance width="842"/>
  <unicode hex="0428"/>
  <outline>
    <contour>
      <point x="722" y="0" type="line"/>
      <point x="722" y="30" type="line"/>
      <point x="120" y="30" type="line"/>
      <point x="120" y="0" type="line"/>
    </contour>
    <contour>
      <point x="811" y="710" type="line"/>
      <point x="631" y="710" type="line"/>
      <point x="631" y="681" type="line"/>
      <point x="638" y="681" type="line" smooth="yes"/>
      <point x="666.5538461538" y="681"/>
      <point x="702" y="678"/>
      <point x="702" y="671" type="curve" smooth="yes"/>
      <point x="702" y="0" type="line"/>
      <point x="811" y="0" type="line"/>
      <point x="811" y="29" type="line"/>
      <point x="802" y="29" type="line" smooth="yes"/>
      <point x="766" y="29"/>
      <point x="740" y="36"/>
      <point x="740" y="65" type="curve" smooth="yes"/>
      <point x="740" y="645" type="line" smooth="yes"/>
      <point x="740" y="674"/>
      <point x="766" y="681"/>
      <point x="802" y="681" type="curve" smooth="yes"/>
      <point x="811" y="681" type="line"/>
    </contour>
    <contour>
      <point x="211" y="710" type="line"/>
      <point x="31" y="710" type="line"/>
      <point x="31" y="681" type="line"/>
      <point x="39" y="681" type="line" smooth="yes"/>
      <point x="76" y="681"/>
      <point x="102" y="674"/>
      <point x="102" y="645" type="curve" smooth="yes"/>
      <point x="102" y="65" type="line" smooth="yes"/>
      <point x="102" y="36"/>
      <point x="76" y="29"/>
      <point x="39" y="29" type="curve" smooth="yes"/>
      <point x="31" y="29" type="line"/>
      <point x="31" y="0" type="line"/>
      <point x="140" y="0" type="line"/>
      <point x="140" y="671" type="line" smooth="yes"/>
      <point x="140" y="678"/>
      <point x="176" y="681"/>
      <point x="204" y="681" type="curve" smooth="yes"/>
      <point x="211" y="681" type="line"/>
    </contour>
    <contour>
      <point x="331" y="710" type="line"/>
      <point x="331" y="681" type="line"/>
      <point x="338" y="681" type="line" smooth="yes"/>
      <point x="366" y="681"/>
      <point x="402" y="678"/>
      <point x="402" y="671" type="curve" smooth="yes"/>
      <point x="402" y="0" type="line"/>
      <point x="440" y="0" type="line"/>
      <point x="440" y="671" type="line" smooth="yes"/>
      <point x="440" y="678"/>
      <point x="476" y="681"/>
      <point x="504" y="681" type="curve" smooth="yes"/>
      <point x="511" y="681" type="line"/>
      <point x="511" y="710" type="line"/>
    </contour>
  </outline>
</glyph>
<glyph name="Yacyr" format="2">
  <advance width="516"/>
  <unicode hex="042F"/>
  <outline>
    <contour>
      <point x="255" y="324" type="line"/>
      <point x="223" y="339" type="line"/>
      <point x="103" y="68" type="line" smooth="yes"/>
      <point x="89" y="37"/>
      <point x="77" y="29"/>
      <point x="38" y="29" type="curve" smooth="yes"/>
      <point x="29" y="29" type="line"/>
      <point x="29" y="0" type="line"/>
      <point x="114" y="0" type="line"/>
    </contour>
    <contour>
      <point x="376" y="39" type="line" smooth="yes"/>
      <point x="376" y="32"/>
      <point x="345" y="29"/>
      <point x="320" y="29" type="curve" smooth="yes"/>
      <point x="313" y="29" type="line"/>
      <point x="313" y="0" type="line"/>
      <point x="485" y="0" type="line"/>
      <point x="485" y="29" type="line"/>
      <point x="477" y="29" type="line" smooth="yes"/>
      <point x="440" y="29"/>
      <point x="414" y="36"/>
      <point x="414" y="65" type="curve" smooth="yes"/>
      <point x="414" y="645" type="line" smooth="yes"/>
      <point x="414" y="674"/>
      <point x="440" y="681"/>
      <point x="477" y="681" type="curve" smooth="yes"/>
      <point x="485" y="681" type="line"/>
      <point x="485" y="710" type="line"/>
      <point x="268" y="710" type="line" smooth="yes"/>
      <point x="151" y="710"/>
      <point x="75" y="643"/>
      <point x="75" y="515" type="curve" smooth="yes"/>
      <point x="75" y="405.4293193717"/>
      <point x="135" y="340"/>
      <point x="224" y="323" type="curve"/>
      <point x="239" y="320" type="line"/>
      <point x="385" y="320" type="line"/>
      <point x="385" y="350" type="line"/>
      <point x="267" y="350" type="line" smooth="yes"/>
      <point x="163" y="350"/>
      <point x="116" y="417"/>
      <point x="116" y="515" type="curve" smooth="yes"/>
      <point x="116" y="629"/>
      <point x="172" y="680"/>
      <point x="270" y="680" type="curve" smooth="yes"/>
      <point x="376" y="680" type="line"/>
    </contour>
  </outline>
</glyph>
<glyph name="becyr" format="2">
  <advance width="451"/>
  <unicode hex="0431"/>
  <outline>
    <contour>
      <point x="275" y="731" type="line" smooth="yes"/>
      <point x="113" y="718"/>
      <point x="45" y="586"/>
      <point x="45" y="310" type="curve" smooth="yes"/>
      <point x="45" y="63"/>
      <point x="122" y="-10"/>
      <point x="228" y="-10" type="curve" smooth="yes"/>
      <point x="334" y="-10"/>
      <point x="411" y="63"/>
      <point x="411" y="250" type="curve" smooth="yes"/>
      <point x="411" y="430"/>
      <point x="340" y="508"/>
      <point x="245" y="508" type="curve" smooth="yes"/>
      <point x="173" y="508"/>
      <point x="124" y="482"/>
      <point x="80" y="405" type="curve"/>
      <point x="80" y="366" type="line"/>
      <point x="125" y="446"/>
      <point x="171" y="478"/>
      <point x="240" y="478" type="curve" smooth="yes"/>
      <point x="319" y="478"/>
      <point x="371" y="412"/>
      <point x="371" y="250" type="curve" smooth="yes"/>
      <point x="371" y="77"/>
      <point x="315" y="20"/>
      <point x="228" y="20" type="curve" smooth="yes"/>
      <point x="141" y="20"/>
      <point x="85" y="87"/>
      <point x="85" y="280" type="curve" smooth="yes"/>
      <point x="85" y="313"/>
      <point x="85" y="337"/>
      <point x="85" y="385" type="curve"/>
      <point x="83" y="385" type="line"/>
      <point x="83" y="573"/>
      <point x="134" y="682"/>
      <point x="275" y="694" type="curve" smooth="yes"/>
      <point x="385" y="703" type="line"/>
      <point x="385" y="740" type="line"/>
    </contour>
  </outline>
</glyph>
<glyph name="vecyr" format="2">
  <advance width="425"/>
  <unicode hex="0432"/>
  <outline>
    <contour>
      <point x="35" y="508" type="line"/>
      <point x="35" y="482" type="line"/>
      <point x="56" y="482" type="line" smooth="yes"/>
      <point x="79" y="482"/>
      <point x="96" y="476"/>
      <point x="96" y="451" type="curve" smooth="yes"/>
      <point x="96" y="57" type="line" smooth="yes"/>
      <point x="96" y="32"/>
      <point x="79" y="26"/>
      <point x="56" y="26" type="curve" smooth="yes"/>
      <point x="35" y="26" type="line"/>
      <point x="35" y="0" type="line"/>
      <point x="235" y="0" type="line" smooth="yes"/>
      <point x="331" y="0"/>
      <point x="390" y="52"/>
      <point x="390" y="140" type="curve" smooth="yes"/>
      <point x="390" y="228.3308270677"/>
      <point x="326" y="269"/>
      <point x="257" y="269" type="curve"/>
      <point x="271" y="257" type="line"/>
      <point x="271" y="281" type="line"/>
      <point x="252" y="263" type="line"/>
      <point x="320" y="263"/>
      <point x="369" y="320.4621848739"/>
      <point x="369" y="385" type="curve" smooth="yes"/>
      <point x="369" y="455"/>
      <point x="327" y="508"/>
      <point x="228" y="508" type="curve" smooth="yes"/>
    </contour>
    <contour>
      <point x="134" y="30" type="line"/>
      <point x="134" y="478" type="line"/>
      <point x="220" y="478" type="line" smooth="yes"/>
      <point x="305" y="478"/>
      <point x="329" y="440"/>
      <point x="329" y="385" type="curve" smooth="yes"/>
      <point x="329" y="334.5192307692"/>
      <point x="308" y="280"/>
      <point x="220" y="280" type="curve" smooth="yes"/>
      <point x="116" y="280" type="line"/>
      <point x="116" y="250" type="line"/>
      <point x="220" y="250" type="line" smooth="yes"/>
      <point x="319" y="250"/>
      <point x="350" y="204.4144144144"/>
      <point x="350" y="140" type="curve" smooth="yes"/>
      <point x="350" y="74"/>
      <point x="319" y="30"/>
      <point x="227" y="30" type="curve" smooth="yes"/>
    </contour>
  </outline>
</glyph>
<glyph name="zecyr" format="2">
  <advance width="385"/>
  <unicode hex="0437"/>
  <outline>
    <contour>
      <point x="181" y="20" type="curve" smooth="yes"/>
      <point x="124" y="20"/>
      <point x="68" y="43"/>
      <point x="46" y="84" type="curve"/>
      <point x="44" y="68"/>
      <point x="53" y="33"/>
      <point x="75" y="36" type="curve"/>
      <point x="75" y="134" type="line"/>
      <point x="32" y="134" type="line"/>
      <point x="32" y="40" type="line"/>
      <point x="50" y="17"/>
      <point x="107" y="-10"/>
      <point x="180" y="-10" type="curve" smooth="yes"/>
      <point x="283" y="-10"/>
      <point x="350" y="41"/>
      <point x="350" y="140" type="curve" smooth="yes"/>
      <point x="350" y="225.3435114504"/>
      <point x="290" y="270"/>
      <point x="209" y="270" type="curve"/>
      <point x="225" y="256" type="line"/>
      <point x="225" y="275" type="line"/>
      <point x="209" y="262" type="line"/>
      <point x="285.2195121951" y="262"/>
      <point x="334" y="321.5348837209"/>
      <point x="334" y="390" type="curve" smooth="yes"/>
      <point x="334" y="467"/>
      <point x="284" y="518"/>
      <point x="187" y="518" type="curve" smooth="yes"/>
      <point x="119" y="518"/>
      <point x="57" y="492"/>
      <point x="39" y="468" type="curve"/>
      <point x="39" y="374" type="line"/>
      <point x="82" y="374" type="line"/>
      <point x="82" y="472" type="line"/>
      <point x="60" y="475"/>
      <point x="51" y="441"/>
      <point x="53" y="425" type="curve"/>
      <point x="75" y="467"/>
      <point x="131" y="488"/>
      <point x="187" y="488" type="curve" smooth="yes"/>
      <point x="262" y="488"/>
      <point x="294" y="449"/>
      <point x="294" y="390" type="curve" smooth="yes"/>
      <point x="294" y="329"/>
      <point x="266.274509804" y="280"/>
      <point x="193" y="280" type="curve" smooth="yes"/>
      <point x="125" y="280" type="line"/>
      <point x="125" y="250" type="line"/>
      <point x="193" y="250" type="line" smooth="yes"/>
      <point x="265.15" y="250"/>
      <point x="310" y="209.2592592593"/>
      <point x="310" y="140" type="curve" smooth="yes"/>
      <point x="310" y="63"/>
      <point x="267" y="20"/>
    </contour>
  </outline>
</glyph>
<glyph name="kacyr" format="2">
  <advance width="460"/>
  <unicode hex="043A"/>
  <guideline x="241" y="553" angle="90" identifier="lmgRx0QBdK"/>
  <outline>
    <contour>
      <point x="96" y="57" type="line" smooth="yes"/>
      <point x="96" y="32"/>
      <point x="80" y="26"/>
      <point x="57" y="26" type="curve" smooth="yes"/>
      <point x="35" y="26" type="line"/>
      <point x="35" y="0" type="line"/>
      <point x="188" y="0" type="line"/>
      <point x="188" y="26" type="line"/>
      <point x="185" y="26" type="line" smooth="yes"/>
      <point x="164" y="26"/>
      <point x="134" y="29"/>
      <point x="134" y="36" type="curve" smooth="yes"/>
      <point x="134" y="472" type="line" smooth="yes"/>
      <point x="134" y="479"/>
      <point x="164" y="482"/>
      <point x="185" y="482" type="curve" smooth="yes"/>
      <point x="188" y="482" type="line"/>
      <point x="188" y="508" type="line"/>
      <point x="35" y="508" type="line"/>
      <point x="35" y="482" type="line"/>
      <point x="57" y="482" type="line" smooth="yes"/>
      <point x="80" y="482"/>
      <point x="96" y="476"/>
      <point x="96" y="451" type="curve" smooth="yes"/>
    </contour>
    <contour>
      <point x="438" y="0" type="line"/>
      <point x="438" y="26" type="line"/>
      <point x="434" y="26" type="line"/>
      <point x="408" y="26"/>
      <point x="389" y="33"/>
      <point x="365" y="64" type="curve" smooth="yes"/>
      <point x="195" y="288" type="line"/>
      <point x="193" y="265" type="line"/>
      <point x="334" y="430" type="line" smooth="yes"/>
      <point x="366" y="468"/>
      <point x="383" y="479"/>
      <point x="418" y="479" type="curve"/>
      <point x="420" y="479" type="line"/>
      <point x="420" y="508" type="line"/>
      <point x="263" y="508" type="line"/>
      <point x="263" y="479" type="line"/>
      <point x="266" y="479" type="line"/>
      <point x="288" y="479"/>
      <point x="323" y="476"/>
      <point x="323" y="461" type="curve"/>
      <point x="164" y="273" type="line"/>
      <point x="164" y="268" type="line"/>
      <point x="340" y="36" type="line"/>
      <point x="340" y="29"/>
      <point x="309" y="26"/>
      <point x="285" y="26" type="curve"/>
      <point x="284" y="26" type="line"/>
      <point x="284" y="0" type="line"/>
    </contour>
  </outline>
</glyph>
<glyph name="emcyr" format="2">
  <advance width="612"/>
  <unicode hex="043C"/>
  <outline>
    <contour>
      <point x="158" y="508" type="line"/>
      <point x="35" y="508" type="line"/>
      <point x="35" y="482" type="line"/>
      <point x="56" y="482" type="line" smooth="yes"/>
      <point x="79" y="482"/>
      <point x="96" y="476"/>
      <point x="96" y="451" type="curve" smooth="yes"/>
      <point x="96" y="57" type="line" smooth="yes"/>
      <point x="96" y="32"/>
      <point x="79" y="26"/>
      <point x="56" y="26" type="curve" smooth="yes"/>
      <point x="35" y="26" type="line"/>
      <point x="35" y="0" type="line"/>
      <point x="186" y="0" type="line"/>
      <point x="186" y="26" type="line"/>
      <point x="184" y="26" type="line" smooth="yes"/>
      <point x="163" y="26"/>
      <point x="130" y="29"/>
      <point x="130" y="36" type="curve" smooth="yes"/>
      <point x="130" y="502" type="line"/>
      <point x="122" y="502" type="line"/>
      <point x="287" y="-2" type="line"/>
      <point x="321" y="-2" type="line"/>
      <point x="486" y="502" type="line"/>
      <point x="478" y="502" type="line"/>
      <point x="478" y="36" type="line" smooth="yes"/>
      <point x="478" y="29"/>
      <point x="443" y="26"/>
      <point x="423" y="26" type="curve" smooth="yes"/>
      <point x="421" y="26" type="line"/>
      <point x="421" y="0" type="line"/>
      <point x="577" y="0" type="line"/>
      <point x="577" y="26" type="line"/>
      <point x="556" y="26" type="line" smooth="yes"/>
      <point x="533" y="26"/>
      <point x="516" y="32"/>
      <point x="516" y="57" type="curve" smooth="yes"/>
      <point x="516" y="451" type="line" smooth="yes"/>
      <point x="516" y="476"/>
      <point x="533" y="482"/>
      <point x="556" y="482" type="curve" smooth="yes"/>
      <point x="577" y="482" type="line"/>
      <point x="577" y="508" type="line"/>
      <point x="454" y="508" type="line"/>
      <point x="294" y="16" type="line"/>
      <point x="318" y="16" type="line"/>
    </contour>
  </outline>
</glyph>
<glyph name="pecyr" format="2">
  <advance width="480"/>
  <unicode hex="043F"/>
  <outline>
    <contour>
      <point x="96" y="57" type="line" smooth="yes"/>
      <point x="96" y="32"/>
      <point x="79" y="26"/>
      <point x="56" y="26" type="curve" smooth="yes"/>
      <point x="35" y="26" type="line"/>
      <point x="35" y="0" type="line"/>
      <point x="190" y="0" type="line"/>
      <point x="190" y="26" type="line"/>
      <point x="188" y="26" type="line" smooth="yes"/>
      <point x="167" y="26"/>
      <point x="134" y="29"/>
      <point x="134" y="36" type="curve" smooth="yes"/>
      <point x="134" y="508" type="line"/>
      <point x="35" y="508" type="line"/>
      <point x="35" y="482" type="line"/>
      <point x="56" y="482" type="line" smooth="yes"/>
      <point x="79" y="482"/>
      <point x="96" y="476"/>
      <point x="96" y="451" type="curve" smooth="yes"/>
    </contour>
    <contour>
      <point x="346" y="36" type="line"/>
      <point x="347" y="29"/>
      <point x="312" y="26"/>
      <point x="291" y="26" type="curve"/>
      <point x="289" y="26" type="line"/>
      <point x="289" y="0" type="line"/>
      <point x="445" y="0" type="line"/>
      <point x="445" y="26" type="line"/>
      <point x="424" y="26" type="line"/>
      <point x="402" y="26"/>
      <point x="385" y="32"/>
      <point x="384" y="57" type="curve"/>
      <point x="384" y="451" type="line"/>
      <point x="385" y="476"/>
      <point x="402" y="482"/>
      <point x="424" y="482" type="curve"/>
      <point x="445" y="482" type="line"/>
      <point x="445" y="508" type="line"/>
      <point x="346" y="508" type="line"/>
    </contour>
    <contour>
      <point x="101" y="478" type="line"/>
      <point x="380" y="478" type="line"/>
      <point x="380" y="508" type="line"/>
      <point x="101" y="508" type="line"/>
    </contour>
  </outline>
</glyph>
<glyph name="efcyr" format="2">
  <advance width="558"/>
  <unicode hex="0444"/>
  <outline>
    <contour>
      <point x="298" y="735" type="line"/>
      <point x="199" y="735" type="line"/>
      <point x="199" y="715" type="line"/>
      <point x="210" y="713" type="line" smooth="yes"/>
      <point x="251" y="706"/>
      <point x="260" y="697"/>
      <point x="260" y="664" type="curve" smooth="yes"/>
      <point x="260" y="-166" type="line" smooth="yes"/>
      <point x="260" y="-191"/>
      <point x="244" y="-197"/>
      <point x="221" y="-197" type="curve" smooth="yes"/>
      <point x="199" y="-197" type="line"/>
      <point x="199" y="-223" type="line"/>
      <point x="359" y="-223" type="line"/>
      <point x="359" y="-197" type="line"/>
      <point x="338" y="-197" type="line" smooth="yes"/>
      <point x="315" y="-197"/>
      <point x="298" y="-191"/>
      <point x="298" y="-166" type="curve" smooth="yes"/>
    </contour>
    <contour>
      <point x="260" y="518" type="line"/>
      <point x="129" y="513"/>
      <point x="40" y="431"/>
      <point x="40" y="254" type="curve" smooth="yes"/>
      <point x="40" y="73"/>
      <point x="129" y="-5"/>
      <point x="260" y="-10" type="curve"/>
      <point x="260" y="20" type="line"/>
      <point x="145" y="25"/>
      <point x="80" y="91"/>
      <point x="80" y="254" type="curve" smooth="yes"/>
      <point x="80" y="417"/>
      <point x="145" y="483"/>
      <point x="260" y="488" type="curve"/>
    </contour>
    <contour>
      <point x="298" y="-10" type="line"/>
      <point x="429" y="-5"/>
      <point x="518" y="77"/>
      <point x="518" y="254" type="curve" smooth="yes"/>
      <point x="518" y="435"/>
      <point x="429" y="513"/>
      <point x="298" y="518" type="curve"/>
      <point x="298" y="488" type="line"/>
      <point x="413" y="483"/>
      <point x="478" y="417"/>
      <point x="478" y="254" type="curve" smooth="yes"/>
      <point x="478" y="91"/>
      <point x="413" y="25"/>
      <point x="298" y="20" type="curve"/>
    </contour>
  </outline>
</glyph>
<glyph name="tsecyr" format="2">
  <advance width="480"/>
  <unicode hex="0446"/>
  <outline>
    <contour>
      <point x="96" y="451" type="curve"/>
      <point x="96" y="57" type="line"/>
      <point x="95" y="32"/>
      <point x="78" y="26"/>
      <point x="56" y="26" type="curve"/>
      <point x="35" y="26" type="line"/>
      <point x="35" y="0" type="line"/>
      <point x="134" y="0" type="line"/>
      <point x="134" y="472" type="line"/>
      <point x="133" y="479"/>
      <point x="168" y="482"/>
      <point x="189" y="482" type="curve"/>
      <point x="191" y="482" type="line"/>
      <point x="191" y="508" type="line"/>
      <point x="35" y="508" type="line"/>
      <point x="35" y="482" type="line"/>
      <point x="56" y="482" type="line"/>
      <point x="78" y="482"/>
      <point x="95" y="476"/>
    </contour>
    <contour>
      <point x="346" y="472" type="curve" smooth="yes"/>
      <point x="346" y="0" type="line"/>
      <point x="384" y="0" type="line"/>
      <point x="384" y="451" type="line" smooth="yes"/>
      <point x="384" y="476"/>
      <point x="401" y="482"/>
      <point x="424" y="482" type="curve" smooth="yes"/>
      <point x="445" y="482" type="line"/>
      <point x="445" y="508" type="line"/>
      <point x="290" y="508" type="line"/>
      <point x="290" y="482" type="line"/>
      <point x="292" y="482" type="line" smooth="yes"/>
      <point x="313" y="482"/>
      <point x="346" y="479"/>
    </contour>
    <contour>
      <point x="288" y="0" type="line"/>
      <point x="323" y="0" type="line" smooth="yes"/>
      <point x="405" y="0"/>
      <point x="421" y="-9"/>
      <point x="424" y="-43" type="curve" smooth="yes"/>
      <point x="431" y="-130" type="line"/>
      <point x="455" y="-130" type="line"/>
      <point x="455" y="30" type="line"/>
      <point x="288" y="30" type="line"/>
    </contour>
    <contour>
      <point x="100" y="0" type="line"/>
      <point x="379" y="0" type="line"/>
      <point x="379" y="30" type="line"/>
      <point x="100" y="30" type="line"/>
    </contour>
  </outline>
</glyph>
<glyph name="shchacyr" format="2">
  <advance width="694"/>
  <unicode hex="0449"/>
  <outline>
    <contour>
      <point x="96" y="451" type="curve"/>
      <point x="96" y="57" type="line"/>
      <point x="95" y="32"/>
      <point x="78" y="26"/>
      <point x="56" y="26" type="curve"/>
      <point x="35" y="26" type="line"/>
      <point x="35" y="0" type="line"/>
      <point x="134" y="0" type="line"/>
      <point x="134" y="472" type="line"/>
      <point x="133" y="479"/>
      <point x="168" y="482"/>
      <point x="189" y="482" type="curve"/>
      <point x="191" y="482" type="line"/>
      <point x="191" y="508" type="line"/>
      <point x="35" y="508" type="line"/>
      <point x="35" y="482" type="line"/>
      <point x="56" y="482" type="line"/>
      <point x="78" y="482"/>
      <point x="95" y="476"/>
    </contour>
    <contour>
      <point x="560" y="472" type="curve" smooth="yes"/>
      <point x="560" y="0" type="line"/>
      <point x="598" y="0" type="line"/>
      <point x="598" y="451" type="line" smooth="yes"/>
      <point x="598" y="476"/>
      <point x="615" y="482"/>
      <point x="638" y="482" type="curve" smooth="yes"/>
      <point x="659" y="482" type="line"/>
      <point x="659" y="508" type="line"/>
      <point x="504" y="508" type="line"/>
      <point x="504" y="482" type="line"/>
      <point x="506" y="482" type="line" smooth="yes"/>
      <point x="527" y="482"/>
      <point x="560" y="479"/>
    </contour>
    <contour>
      <point x="502" y="0" type="line"/>
      <point x="537" y="0" type="line" smooth="yes"/>
      <point x="619" y="0"/>
      <point x="635" y="-9"/>
      <point x="638" y="-43" type="curve" smooth="yes"/>
      <point x="645" y="-130" type="line"/>
      <point x="669" y="-130" type="line"/>
      <point x="669" y="30" type="line"/>
      <point x="502" y="30" type="line"/>
    </contour>
    <contour>
      <point x="100" y="0" type="line"/>
      <point x="593" y="0" type="line"/>
      <point x="593" y="30" type="line"/>
      <point x="100" y="30" type="line"/>
    </contour>
    <contour>
      <point x="271" y="482" type="line"/>
      <point x="273" y="482" type="line"/>
      <point x="294" y="482"/>
      <point x="329" y="479"/>
      <point x="328" y="472" type="curve"/>
      <point x="328" y="0" type="line"/>
      <point x="366" y="0" type="line"/>
      <point x="366" y="472" type="line"/>
      <point x="365" y="479"/>
      <point x="400" y="482"/>
      <point x="421" y="482" type="curve"/>
      <point x="423" y="482" type="line"/>
      <point x="423" y="508" type="line"/>
      <point x="271" y="508" type="line"/>
    </contour>
  </outline>
</glyph>
<glyph name="hardcyr" format="2">
  <advance width="472"/>
  <unicode hex="044A"/>
  <guideline x="241" y="553" angle="90" identifier="xmfrCOG8GV"/>
  <outline>
    <contour>
      <point x="206" y="30" type="line"/>
      <point x="206" y="472" type="line" smooth="yes"/>
      <point x="206" y="479"/>
      <point x="239" y="482"/>
      <point x="260" y="482" type="curve" smooth="yes"/>
      <point x="262" y="482" type="line"/>
      <point x="262" y="508" type="line"/>
      <point x="168" y="508" type="line"/>
      <point x="168" y="57" type="line" smooth="yes"/>
      <point x="168" y="32"/>
      <point x="151" y="26"/>
      <point x="128" y="26" type="curve" smooth="yes"/>
      <point x="107" y="26" type="line"/>
      <point x="107" y="0" type="line"/>
      <point x="302" y="0" type="line" smooth="yes"/>
      <point x="401" y="0"/>
      <point x="452" y="65"/>
      <point x="452" y="153" type="curve" smooth="yes"/>
      <point x="452" y="247"/>
      <point x="401" y="305"/>
      <point x="302" y="305" type="curve" smooth="yes"/>
      <point x="190" y="305" type="line"/>
      <point x="190" y="275" type="line"/>
      <point x="297" y="275" type="line" smooth="yes"/>
      <point x="379" y="275"/>
      <point x="412" y="228"/>
      <point x="412" y="153" type="curve" smooth="yes"/>
      <point x="412" y="80"/>
      <point x="382" y="30"/>
      <point x="297" y="30" type="curve" smooth="yes"/>
    </contour>
    <contour>
      <point x="191" y="478" type="line"/>
      <point x="191" y="508" type="line"/>
      <point x="30" y="508" type="line"/>
      <point x="30" y="357" type="line"/>
      <point x="54" y="357" type="line"/>
      <point x="62" y="435" type="line" smooth="yes"/>
      <point x="65" y="469"/>
      <point x="81" y="478"/>
      <point x="163" y="478" type="curve" smooth="yes"/>
    </contour>
  </outline>
</glyph>
<glyph name="yucyr" format="2">
  <advance width="614"/>
  <unicode hex="044E"/>
  <outline>
    <contour>
      <point x="96" y="57" type="line" smooth="yes"/>
      <point x="96" y="32"/>
      <point x="79" y="26"/>
      <point x="56" y="26" type="curve" smooth="yes"/>
      <point x="35" y="26" type="line"/>
      <point x="35" y="0" type="line"/>
      <point x="190" y="0" type="line"/>
      <point x="190" y="26" type="line"/>
      <point x="188" y="26" type="line" smooth="yes"/>
      <point x="167" y="26"/>
      <point x="134" y="29"/>
      <point x="134" y="36" type="curve" smooth="yes"/>
      <point x="134" y="472" type="line" smooth="yes"/>
      <point x="134" y="479"/>
      <point x="167" y="482"/>
      <point x="188" y="482" type="curve" smooth="yes"/>
      <point x="190" y="482" type="line"/>
      <point x="190" y="508" type="line"/>
      <point x="35" y="508" type="line"/>
      <point x="35" y="482" type="line"/>
      <point x="56" y="482" type="line" smooth="yes"/>
      <point x="79" y="482"/>
      <point x="96" y="476"/>
      <point x="96" y="451" type="curve" smooth="yes"/>
    </contour>
    <contour>
      <point x="105" y="250" type="line"/>
      <point x="244" y="250" type="line"/>
      <point x="244" y="280" type="line"/>
      <point x="105" y="280" type="line"/>
    </contour>
    <contour>
      <point x="574" y="254" type="curve" smooth="yes"/>
      <point x="574" y="434"/>
      <point x="507" y="518"/>
      <point x="396" y="518" type="curve" smooth="yes"/>
      <point x="285" y="518"/>
      <point x="218" y="435"/>
      <point x="218" y="254" type="curve" smooth="yes"/>
      <point x="218" y="72"/>
      <point x="285" y="-10"/>
      <point x="396" y="-10" type="curve" smooth="yes"/>
      <point x="507" y="-10"/>
      <point x="574" y="72"/>
    </contour>
    <contour>
      <point x="258" y="254" type="curve" smooth="yes"/>
      <point x="258" y="421"/>
      <point x="304" y="488"/>
      <point x="396" y="488" type="curve" smooth="yes"/>
      <point x="488" y="488"/>
      <point x="534" y="421"/>
      <point x="534" y="254" type="curve" smooth="yes"/>
      <point x="534" y="83"/>
      <point x="488" y="20"/>
      <point x="396" y="20" type="curve" smooth="yes"/>
      <point x="304" y="20"/>
      <point x="258" y="84"/>
    </contour>
  </outline>
</glyph>
<glyph name="eukrcyr" format="2">
  <advance width="403"/>
  <unicode hex="0454"/>
  <outline>
    <contour>
      <point x="71" y="250" type="line"/>
      <point x="270" y="250" type="line"/>
      <point x="270" y="280" type="line"/>
      <point x="71" y="280" type="line"/>
    </contour>
    <contour>
      <point x="224" y="20" type="curve" smooth="yes"/>
      <point x="141" y="20"/>
      <point x="80" y="83"/>
      <point x="80" y="253" type="curve" smooth="yes"/>
      <point x="80" y="416"/>
      <point x="140.3921568627" y="488"/>
      <point x="234" y="488" type="curve" smooth="yes"/>
      <point x="282.5663716814" y="488"/>
      <point x="325.0400151531" y="463.9237806608"/>
      <point x="346" y="424" type="curve"/>
      <point x="348" y="440"/>
      <point x="339" y="475"/>
      <point x="317" y="472" type="curve"/>
      <point x="317" y="374" type="line"/>
      <point x="360" y="374" type="line"/>
      <point x="360" y="468" type="line"/>
      <point x="343" y="490"/>
      <point x="296" y="518"/>
      <point x="234" y="518" type="curve" smooth="yes"/>
      <point x="117" y="518"/>
      <point x="40" y="429"/>
      <point x="40" y="253" type="curve" smooth="yes"/>
      <point x="40" y="70"/>
      <point x="120" y="-10"/>
      <point x="224" y="-10" type="curve" smooth="yes"/>
      <point x="297" y="-10"/>
      <point x="342" y="29"/>
      <point x="371" y="119" type="curve"/>
      <point x="343" y="129" type="line"/>
      <point x="318" y="55"/>
      <point x="288" y="20"/>
    </contour>
  </outline>
</glyph>
<glyph name="yukrcyr" format="2">
  <advance width="230"/>
  <unicode hex="0457"/>
  <outline>
    <contour>
      <point x="58" y="660" type="curve" smooth="yes"/>
      <point x="79" y="660"/>
      <point x="93" y="673"/>
      <point x="93" y="699" type="curve" smooth="yes"/>
      <point x="93" y="724"/>
      <point x="79" y="738"/>
      <point x="58" y="738" type="curve" smooth="yes"/>
      <point x="36" y="738"/>
      <point x="22" y="724"/>
      <point x="22" y="699" type="curve" smooth="yes"/>
      <point x="22" y="673"/>
      <point x="36" y="660"/>
    </contour>
    <contour>
      <point x="172" y="660" type="curve" smooth="yes"/>
      <point x="193" y="660"/>
      <point x="208" y="673"/>
      <point x="208" y="699" type="curve" smooth="yes"/>
      <point x="208" y="724"/>
      <point x="193" y="738"/>
      <point x="172" y="738" type="curve" smooth="yes"/>
      <point x="151" y="738"/>
      <point x="137" y="724"/>
      <point x="137" y="699" type="curve" smooth="yes"/>
      <point x="137" y="673"/>
      <point x="151" y="660"/>
    </contour>
    <component base="dotlessi"/>
  </outline>
</glyph>
<glyph name="geupcyr" format="2">
  <advance width="369"/>
  <unicode hex="0491"/>
  <outline>
    <contour>
      <point x="96" y="57" type="line" smooth="yes"/>
      <point x="96" y="32"/>
      <point x="79" y="26"/>
      <point x="56" y="26" type="curve" smooth="yes"/>
      <point x="35" y="26" type="line"/>
      <point x="35" y="0" type="line"/>
      <point x="212" y="0" type="line"/>
      <point x="212" y="26" type="line"/>
      <point x="178" y="26" type="line" smooth="yes"/>
      <point x="148" y="26"/>
      <point x="134" y="32"/>
      <point x="134" y="57" type="curve" smooth="yes"/>
      <point x="134" y="508" type="line"/>
      <point x="35" y="508" type="line"/>
      <point x="35" y="482" type="line"/>
      <point x="56" y="482" type="line" smooth="yes"/>
      <point x="79" y="482"/>
      <point x="96" y="476"/>
      <point x="96" y="451" type="curve" smooth="yes"/>
    </contour>
    <contour>
      <point x="117" y="508" type="line"/>
      <point x="117" y="478" type="line"/>
      <point x="344" y="478" type="line"/>
      <point x="344" y="638" type="line"/>
      <point x="320" y="638" type="line"/>
      <point x="313" y="551" type="line" smooth="yes"/>
      <point x="310" y="517"/>
      <point x="294" y="508"/>
      <point x="212" y="508" type="curve" smooth="yes"/>
    </contour>
  </outline>
</glyph>
<glyph name="gestrokecyr" format="2">
  <advance width="374"/>
  <unicode hex="0493"/>
  <outline>
    <contour>
      <point x="35" y="244" type="line"/>
      <point x="244" y="244" type="line"/>
      <point x="244" y="274" type="line"/>
      <point x="35" y="274" type="line"/>
    </contour>
    <contour>
      <point x="96" y="57" type="line" smooth="yes"/>
      <point x="96" y="32"/>
      <point x="79" y="26"/>
      <point x="56" y="26" type="curve" smooth="yes"/>
      <point x="35" y="26" type="line"/>
      <point x="35" y="0" type="line"/>
      <point x="212" y="0" type="line"/>
      <point x="212" y="26" type="line"/>
      <point x="178" y="26" type="line" smooth="yes"/>
      <point x="148" y="26"/>
      <point x="134" y="32"/>
      <point x="134" y="57" type="curve" smooth="yes"/>
      <point x="134" y="508" type="line"/>
      <point x="35" y="508" type="line"/>
      <point x="35" y="482" type="line"/>
      <point x="56" y="482" type="line" smooth="yes"/>
      <point x="79" y="482"/>
      <point x="96" y="476"/>
      <point x="96" y="451" type="curve" smooth="yes"/>
    </contour>
    <contour>
      <point x="113" y="478" type="line"/>
      <point x="211" y="478" type="line" smooth="yes"/>
      <point x="293" y="478"/>
      <point x="309" y="469"/>
      <point x="312" y="435" type="curve" smooth="yes"/>
      <point x="320" y="357" type="line"/>
      <point x="344" y="357" type="line"/>
      <point x="344" y="508" type="line"/>
      <point x="113" y="508" type="line"/>
    </contour>
  </outline>
</glyph>
<glyph name="zhetailcyr" format="2">
  <advance width="668"/>
  <unicode hex="0497"/>
  <guideline x="241" y="553" angle="90" identifier="lmgRx0QBdK"/>
  <guideline x="241" y="553" angle="90" identifier="ScNIVYsZ4z"/>
  <outline>
    <contour>
      <point x="596" y="0" type="line"/>
      <point x="596" y="30" type="line"/>
      <point x="412" y="288" type="line"/>
      <point x="411" y="265" type="line"/>
      <point x="543" y="430" type="line" smooth="yes"/>
      <point x="574" y="469"/>
      <point x="592" y="479"/>
      <point x="627" y="479" type="curve"/>
      <point x="629" y="479" type="line"/>
      <point x="629" y="508" type="line"/>
      <point x="471" y="508" type="line"/>
      <point x="471" y="479" type="line"/>
      <point x="474" y="479" type="line"/>
      <point x="496" y="479"/>
      <point x="531" y="476"/>
      <point x="531" y="461" type="curve"/>
      <point x="382" y="273" type="line"/>
      <point x="382" y="268" type="line"/>
      <point x="547" y="36" type="line"/>
      <point x="547" y="29"/>
      <point x="516" y="26"/>
      <point x="492" y="26" type="curve"/>
      <point x="491" y="26" type="line"/>
      <point x="491" y="0" type="line"/>
    </contour>
    <contour>
      <point x="22" y="0" type="line"/>
      <point x="175" y="0" type="line"/>
      <point x="175" y="26" type="line"/>
      <point x="174" y="26" type="line"/>
      <point x="150" y="26"/>
      <point x="119" y="29"/>
      <point x="119" y="36" type="curve"/>
      <point x="284" y="268" type="line"/>
      <point x="284" y="273" type="line"/>
      <point x="135" y="461" type="line"/>
      <point x="135" y="476"/>
      <point x="170" y="479"/>
      <point x="192" y="479" type="curve"/>
      <point x="195" y="479" type="line"/>
      <point x="195" y="508" type="line"/>
      <point x="35" y="508" type="line"/>
      <point x="35" y="479" type="line"/>
      <point x="37" y="479" type="line"/>
      <point x="72" y="479"/>
      <point x="90" y="469"/>
      <point x="121" y="430" type="curve" smooth="yes"/>
      <point x="253" y="265" type="line"/>
      <point x="256" y="288" type="line"/>
      <point x="96" y="64" type="line" smooth="yes"/>
      <point x="73" y="32"/>
      <point x="52" y="26"/>
      <point x="26" y="26" type="curve"/>
      <point x="22" y="26" type="line"/>
    </contour>
    <contour>
      <point x="515" y="0" type="line"/>
      <point x="520" y="0" type="line" smooth="yes"/>
      <point x="602" y="0"/>
      <point x="618" y="-9"/>
      <point x="621" y="-43" type="curve" smooth="yes"/>
      <point x="628" y="-130" type="line"/>
      <point x="652" y="-130" type="line"/>
      <point x="652" y="30" type="line"/>
      <point x="555" y="30" type="line"/>
    </contour>
    <contour>
      <point x="260" y="482" type="line"/>
      <point x="263" y="482" type="line" smooth="yes"/>
      <point x="284" y="482"/>
      <point x="314" y="479"/>
      <point x="314" y="472" type="curve" smooth="yes"/>
      <point x="314" y="36" type="line" smooth="yes"/>
      <point x="314" y="29"/>
      <point x="284" y="26"/>
      <point x="263" y="26" type="curve" smooth="yes"/>
      <point x="260" y="26" type="line"/>
      <point x="260" y="0" type="line"/>
      <point x="406" y="0" type="line"/>
      <point x="406" y="26" type="line"/>
      <point x="403" y="26" type="line" smooth="yes"/>
      <point x="382" y="26"/>
      <point x="352" y="29"/>
      <point x="352" y="36" type="curve" smooth="yes"/>
      <point x="352" y="472" type="line" smooth="yes"/>
      <point x="352" y="479"/>
      <point x="382" y="482"/>
      <point x="403" y="482" type="curve" smooth="yes"/>
      <point x="406" y="482" type="line"/>
      <point x="406" y="508" type="line"/>
      <point x="260" y="508" type="line"/>
    </contour>
  </outline>
</glyph>
<glyph name="kaverticalstrokecyr" format="2">
  <advance width="524"/>
  <unicode hex="049D"/>
  <guideline x="241" y="553" angle="90" identifier="lmgRx0QBdK"/>
  <guideline x="241" y="553" angle="90" identifier="d9bip9lgkk"/>
  <outline>
    <contour>
      <point x="96" y="57" type="line" smooth="yes"/>
      <point x="96" y="32"/>
      <point x="80" y="26"/>
      <point x="57" y="26" type="curve" smooth="yes"/>
      <point x="35" y="26" type="line"/>
      <point x="35" y="0" type="line"/>
      <point x="188" y="0" type="line"/>
      <point x="188" y="26" type="line"/>
      <point x="185" y="26" type="line" smooth="yes"/>
      <point x="164" y="26"/>
      <point x="134" y="29"/>
      <point x="134" y="36" type="curve" smooth="yes"/>
      <point x="134" y="472" type="line" smooth="yes"/>
      <point x="134" y="479"/>
      <point x="164" y="482"/>
      <point x="185" y="482" type="curve" smooth="yes"/>
      <point x="188" y="482" type="line"/>
      <point x="188" y="508" type="line"/>
      <point x="35" y="508" type="line"/>
      <point x="35" y="482" type="line"/>
      <point x="57" y="482" type="line" smooth="yes"/>
      <point x="80" y="482"/>
      <point x="96" y="476"/>
      <point x="96" y="451" type="curve" smooth="yes"/>
    </contour>
    <contour>
      <point x="502" y="0" type="line"/>
      <point x="502" y="26" type="line"/>
      <point x="498" y="26" type="line"/>
      <point x="472" y="26"/>
      <point x="451" y="30"/>
      <point x="430" y="64" type="curve" smooth="yes"/>
      <point x="289" y="287" type="line"/>
      <point x="286" y="265" type="line"/>
      <point x="400" y="430" type="line" smooth="yes"/>
      <point x="428" y="471"/>
      <point x="447" y="479"/>
      <point x="482" y="479" type="curve"/>
      <point x="484" y="479" type="line"/>
      <point x="484" y="508" type="line"/>
      <point x="327" y="508" type="line"/>
      <point x="327" y="479" type="line"/>
      <point x="330" y="479" type="line"/>
      <point x="352" y="479"/>
      <point x="387" y="476"/>
      <point x="387" y="461" type="curve"/>
      <point x="258" y="273" type="line"/>
      <point x="258" y="268" type="line"/>
      <point x="404" y="36" type="line"/>
      <point x="404" y="29"/>
      <point x="373" y="26"/>
      <point x="349" y="26" type="curve"/>
      <point x="348" y="26" type="line"/>
      <point x="348" y="0" type="line"/>
    </contour>
    <contour>
      <point x="198" y="108" type="line"/>
      <point x="228" y="108" type="line"/>
      <point x="228" y="396" type="line"/>
      <point x="198" y="396" type="line"/>
    </contour>
  </outline>
</glyph>
<glyph name="Kabashkcyr" format="2">
  <advance width="642"/>
  <unicode hex="04A0"/>
  <guideline x="480" y="796" angle="90" identifier="LxfLwWU0sJ"/>
  <outline>
    <contour>
      <point x="441" y="0" type="line"/>
      <point x="627" y="0" type="line"/>
      <point x="627" y="29" type="line"/>
      <point x="619" y="29" type="line" smooth="yes"/>
      <point x="584" y="29"/>
      <point x="568" y="34"/>
      <point x="547" y="62" type="curve" smooth="yes"/>
      <point x="310" y="378" type="line"/>
      <point x="308" y="352" type="line"/>
      <point x="541" y="652" type="line" smooth="yes"/>
      <point x="558" y="674"/>
      <point x="573" y="681"/>
      <point x="601" y="681" type="curve" smooth="yes"/>
      <point x="614" y="681" type="line"/>
      <point x="614" y="710" type="line"/>
      <point x="445" y="710" type="line"/>
      <point x="445" y="681" type="line"/>
      <point x="452" y="681" type="line" smooth="yes"/>
      <point x="482" y="681"/>
      <point x="517" y="678"/>
      <point x="517" y="671" type="curve"/>
      <point x="279" y="363" type="line"/>
      <point x="279" y="359" type="line"/>
      <point x="518" y="39" type="line"/>
      <point x="518" y="32"/>
      <point x="482" y="29"/>
      <point x="451" y="29" type="curve" smooth="yes"/>
      <point x="441" y="29" type="line"/>
    </contour>
    <contour>
      <point x="138" y="0" type="line"/>
      <point x="322" y="0" type="line"/>
      <point x="322" y="29" type="line"/>
      <point x="312" y="29" type="line" smooth="yes"/>
      <point x="282" y="29"/>
      <point x="247" y="32"/>
      <point x="247" y="39" type="curve" smooth="yes"/>
      <point x="247" y="671" type="line" smooth="yes"/>
      <point x="247" y="678"/>
      <point x="283" y="681"/>
      <point x="314" y="681" type="curve" smooth="yes"/>
      <point x="324" y="681" type="line"/>
      <point x="324" y="710" type="line"/>
      <point x="30" y="710" type="line"/>
      <point x="30" y="546" type="line"/>
      <point x="54" y="546" type="line"/>
      <point x="62" y="637" type="line" smooth="yes"/>
      <point x="65" y="671"/>
      <point x="81" y="680"/>
      <point x="163" y="680" type="curve" smooth="yes"/>
      <point x="209" y="680" type="line"/>
      <point x="209" y="65" type="line" smooth="yes"/>
      <point x="209" y="36"/>
      <point x="183" y="29"/>
      <point x="146" y="29" type="curve" smooth="yes"/>
      <point x="138" y="29" type="line"/>
    </contour>
  </outline>
</glyph>
<glyph name="Entailcyr" format="2">
  <advance width="596"/>
  <unicode hex="04A2"/>
  <outline>
    <contour>
      <point x="130" y="380" type="line"/>
      <point x="130" y="350" type="line"/>
      <point x="479" y="350" type="line"/>
      <point x="479" y="380" type="line"/>
    </contour>
    <contour>
      <point x="31" y="0" type="line"/>
      <point x="211" y="0" type="line"/>
      <point x="211" y="29" type="line"/>
      <point x="204" y="29" type="line" smooth="yes"/>
      <point x="176" y="29"/>
      <point x="140" y="32"/>
      <point x="140" y="39" type="curve" smooth="yes"/>
      <point x="140" y="671" type="line" smooth="yes"/>
      <point x="140" y="678"/>
      <point x="176" y="681"/>
      <point x="204" y="681" type="curve" smooth="yes"/>
      <point x="211" y="681" type="line"/>
      <point x="211" y="710" type="line"/>
      <point x="31" y="710" type="line"/>
      <point x="31" y="681" type="line"/>
      <point x="39" y="681" type="line" smooth="yes"/>
      <point x="76" y="681"/>
      <point x="102" y="674"/>
      <point x="102" y="645" type="curve" smooth="yes"/>
      <point x="102" y="65" type="line" smooth="yes"/>
      <point x="102" y="36"/>
      <point x="76" y="29"/>
      <point x="39" y="29" type="curve" smooth="yes"/>
      <point x="31" y="29" type="line"/>
    </contour>
    <contour>
      <point x="384" y="0" type="line"/>
      <point x="494" y="0" type="line"/>
      <point x="494" y="645" type="line" smooth="yes"/>
      <point x="494" y="674"/>
      <point x="520" y="681"/>
      <point x="556" y="681" type="curve" smooth="yes"/>
      <point x="565" y="681" type="line"/>
      <point x="565" y="710" type="line"/>
      <point x="384" y="710" type="line"/>
      <point x="384" y="681" type="line"/>
      <point x="391" y="681" type="line" smooth="yes"/>
      <point x="420" y="681"/>
      <point x="456" y="678"/>
      <point x="456" y="671" type="curve" smooth="yes"/>
      <point x="456" y="39" type="line" smooth="yes"/>
      <point x="456" y="32"/>
      <point x="420" y="29"/>
      <point x="391" y="29" type="curve" smooth="yes"/>
      <point x="384" y="29" type="line"/>
    </contour>
    <contour>
      <point x="443" y="0" type="line" smooth="yes"/>
      <point x="525" y="0"/>
      <point x="542" y="-9"/>
      <point x="544" y="-43" type="curve" smooth="yes"/>
      <point x="551" y="-145" type="line"/>
      <point x="575" y="-145" type="line"/>
      <point x="575" y="30" type="line"/>
      <point x="438" y="30" type="line"/>
      <point x="438" y="0" type="line"/>
    </contour>
  </outline>
</glyph>
<glyph name="entailcyr" format="2">
  <advance width="488"/>
  <unicode hex="04A3"/>
  <outline>
    <contour>
      <point x="96" y="57" type="line" smooth="yes"/>
      <point x="96" y="32"/>
      <point x="79" y="26"/>
      <point x="56" y="26" type="curve" smooth="yes"/>
      <point x="35" y="26" type="line"/>
      <point x="35" y="0" type="line"/>
      <point x="190" y="0" type="line"/>
      <point x="190" y="26" type="line"/>
      <point x="188" y="26" type="line" smooth="yes"/>
      <point x="167" y="26"/>
      <point x="134" y="29"/>
      <point x="134" y="36" type="curve" smooth="yes"/>
      <point x="134" y="472" type="line" smooth="yes"/>
      <point x="134" y="479"/>
      <point x="167" y="482"/>
      <point x="188" y="482" type="curve" smooth="yes"/>
      <point x="190" y="482" type="line"/>
      <point x="190" y="508" type="line"/>
      <point x="35" y="508" type="line"/>
      <point x="35" y="482" type="line"/>
      <point x="56" y="482" type="line" smooth="yes"/>
      <point x="79" y="482"/>
      <point x="96" y="476"/>
      <point x="96" y="451" type="curve" smooth="yes"/>
    </contour>
    <contour>
      <point x="354" y="36" type="line" smooth="yes"/>
      <point x="354" y="29"/>
      <point x="319" y="26"/>
      <point x="299" y="26" type="curve" smooth="yes"/>
      <point x="297" y="26" type="line"/>
      <point x="297" y="0" type="line"/>
      <point x="392" y="0" type="line"/>
      <point x="392" y="451" type="line" smooth="yes"/>
      <point x="392" y="476"/>
      <point x="409" y="482"/>
      <point x="432" y="482" type="curve" smooth="yes"/>
      <point x="453" y="482" type="line"/>
      <point x="453" y="508" type="line"/>
      <point x="297" y="508" type="line"/>
      <point x="297" y="482" type="line"/>
      <point x="299" y="482" type="line" smooth="yes"/>
      <point x="319" y="482"/>
      <point x="354" y="479"/>
      <point x="354" y="472" type="curve" smooth="yes"/>
    </contour>
    <contour>
      <point x="105" y="250" type="line"/>
      <point x="384" y="250" type="line"/>
      <point x="384" y="280" type="line"/>
      <point x="105" y="280" type="line"/>
    </contour>
    <contour>
      <point x="326" y="0" type="line"/>
      <point x="331" y="0" type="line" smooth="yes"/>
      <point x="413" y="0"/>
      <point x="429" y="-9"/>
      <point x="432" y="-43" type="curve" smooth="yes"/>
      <point x="439" y="-130" type="line"/>
      <point x="463" y="-130" type="line"/>
      <point x="463" y="30" type="line"/>
      <point x="356" y="30" type="line"/>
    </contour>
  </outline>
</glyph>
<glyph name="Tetailcyr" format="2">
  <advance width="486"/>
  <unicode hex="04AC"/>
  <outline>
    <contour>
      <point x="224" y="65" type="line" smooth="yes"/>
      <point x="224" y="36"/>
      <point x="198" y="29"/>
      <point x="161" y="29" type="curve" smooth="yes"/>
      <point x="149" y="29" type="line"/>
      <point x="149" y="0" type="line"/>
      <point x="262" y="0" type="line"/>
      <point x="262" y="680" type="line"/>
      <point x="324" y="680" type="line" smooth="yes"/>
      <point x="406" y="680"/>
      <point x="422" y="671"/>
      <point x="425" y="637" type="curve" smooth="yes"/>
      <point x="432" y="546" type="line"/>
      <point x="456" y="546" type="line"/>
      <point x="456" y="710" type="line"/>
      <point x="30" y="710" type="line"/>
      <point x="30" y="546" type="line"/>
      <point x="54" y="546" type="line"/>
      <point x="62" y="637" type="line" smooth="yes"/>
      <point x="65" y="671"/>
      <point x="81" y="680"/>
      <point x="163" y="680" type="curve" smooth="yes"/>
      <point x="224" y="680" type="line"/>
    </contour>
    <contour>
      <point x="215" y="0" type="line" smooth="yes"/>
      <point x="297" y="0"/>
      <point x="314" y="-9"/>
      <point x="316" y="-43" type="curve" smooth="yes"/>
      <point x="323" y="-145" type="line"/>
      <point x="347" y="-145" type="line"/>
      <point x="347" y="30" type="line"/>
      <point x="210" y="30" type="line"/>
      <point x="210" y="0" type="line"/>
    </contour>
  </outline>
</glyph>
<glyph name="Ustraightstrokecyr" format="2">
  <advance width="520"/>
  <unicode hex="04B0"/>
  <outline>
    <contour>
      <point x="124" y="294" type="line"/>
      <point x="124" y="264" type="line"/>
      <point x="396" y="264" type="line"/>
      <point x="396" y="294" type="line"/>
    </contour>
    <contour>
      <point x="241" y="311" type="line"/>
      <point x="241" y="65" type="line" smooth="yes"/>
      <point x="241" y="36"/>
      <point x="215" y="29"/>
      <point x="178" y="29" type="curve" smooth="yes"/>
      <point x="165" y="29" type="line"/>
      <point x="165" y="0" type="line"/>
      <point x="354" y="0" type="line"/>
      <point x="354" y="29" type="line"/>
      <point x="341" y="29" type="line" smooth="yes"/>
      <point x="305" y="29"/>
      <point x="279" y="36"/>
      <point x="279" y="65" type="curve" smooth="yes"/>
      <point x="279" y="311" type="line"/>
      <point x="272" y="279" type="line"/>
      <point x="443" y="640" type="line" smooth="yes"/>
      <point x="461" y="677"/>
      <point x="473" y="681"/>
      <point x="501" y="681" type="curve" smooth="yes"/>
      <point x="505" y="681" type="line"/>
      <point x="505" y="710" type="line"/>
      <point x="354" y="710" type="line"/>
      <point x="354" y="681" type="line"/>
      <point x="357" y="681" type="line" smooth="yes"/>
      <point x="387" y="681"/>
      <point x="420" y="674"/>
      <point x="420" y="663" type="curve"/>
      <point x="250" y="297" type="line"/>
      <point x="274" y="306" type="line"/>
      <point x="103" y="671" type="line"/>
      <point x="103" y="678"/>
      <point x="142" y="681"/>
      <point x="172" y="681" type="curve" smooth="yes"/>
      <point x="176" y="681" type="line"/>
      <point x="176" y="710" type="line"/>
      <point x="15" y="710" type="line"/>
      <point x="15" y="681" type="line"/>
      <point x="19" y="681" type="line" smooth="yes"/>
      <point x="46" y="681"/>
      <point x="59" y="679"/>
      <point x="70" y="655" type="curve" smooth="yes"/>
      <point x="249" y="277" type="line"/>
    </contour>
  </outline>
</glyph>
<glyph name="xatailcyr" format="2">
  <advance width="442"/>
  <unicode hex="04B3"/>
  <outline>
    <contour>
      <point x="380" y="0" type="line"/>
      <point x="380" y="30" type="line"/>
      <point x="231" y="271" type="line"/>
      <point x="227" y="276" type="line"/>
      <point x="109" y="471" type="line"/>
      <point x="109" y="477"/>
      <point x="140" y="481"/>
      <point x="168" y="481" type="curve" smooth="yes"/>
      <point x="169" y="481" type="line"/>
      <point x="169" y="508" type="line"/>
      <point x="20" y="508" type="line"/>
      <point x="20" y="482" type="line"/>
      <point x="24" y="482" type="line" smooth="yes"/>
      <point x="50" y="482"/>
      <point x="66" y="471"/>
      <point x="82" y="445" type="curve" smooth="yes"/>
      <point x="199" y="256" type="line"/>
      <point x="203" y="252" type="line"/>
      <point x="332" y="38" type="line"/>
      <point x="332" y="31"/>
      <point x="300" y="26"/>
      <point x="269" y="26" type="curve" smooth="yes"/>
      <point x="267" y="26" type="line"/>
      <point x="267" y="0" type="line"/>
    </contour>
    <contour>
      <point x="16" y="0" type="line"/>
      <point x="161" y="0" type="line"/>
      <point x="161" y="26" type="line"/>
      <point x="159" y="26" type="line" smooth="yes"/>
      <point x="130" y="26"/>
      <point x="97" y="35"/>
      <point x="97" y="44" type="curve"/>
      <point x="219" y="245" type="line"/>
      <point x="199" y="265" type="line"/>
      <point x="76" y="67" type="line" smooth="yes"/>
      <point x="59" y="39"/>
      <point x="40" y="26"/>
      <point x="17" y="26" type="curve"/>
      <point x="16" y="26" type="line"/>
    </contour>
    <contour>
      <point x="231" y="248" type="line"/>
      <point x="345" y="434" type="line" smooth="yes"/>
      <point x="366" y="469"/>
      <point x="384" y="481"/>
      <point x="409" y="481" type="curve"/>
      <point x="410" y="481" type="line"/>
      <point x="410" y="508" type="line"/>
      <point x="276" y="508" type="line"/>
      <point x="276" y="481" type="line"/>
      <point x="278" y="481" type="line" smooth="yes"/>
      <point x="302" y="481"/>
      <point x="331" y="474"/>
      <point x="331" y="466" type="curve"/>
      <point x="215" y="273" type="line"/>
    </contour>
    <contour>
      <point x="289" y="0" type="line"/>
      <point x="294" y="0" type="line" smooth="yes"/>
      <point x="376" y="0"/>
      <point x="392" y="-9"/>
      <point x="395" y="-43" type="curve" smooth="yes"/>
      <point x="402" y="-130" type="line"/>
      <point x="426" y="-130" type="line"/>
      <point x="426" y="30" type="line"/>
      <point x="329" y="30" type="line"/>
    </contour>
  </outline>
</glyph>
<glyph name="chetailcyr" format="2">
  <advance width="465"/>
  <unicode hex="04B7"/>
  <guideline x="855" y="515" angle="90" identifier="GGEFes61Q6"/>
  <outline>
    <contour>
      <point x="331" y="36" type="line" smooth="yes"/>
      <point x="331" y="29"/>
      <point x="296" y="26"/>
      <point x="276" y="26" type="curve" smooth="yes"/>
      <point x="274" y="26" type="line"/>
      <point x="274" y="0" type="line"/>
      <point x="369" y="0" type="line"/>
      <point x="369" y="451" type="line" smooth="yes"/>
      <point x="369" y="476"/>
      <point x="386" y="482"/>
      <point x="409" y="482" type="curve" smooth="yes"/>
      <point x="430" y="482" type="line"/>
      <point x="430" y="508" type="line"/>
      <point x="274" y="508" type="line"/>
      <point x="274" y="482" type="line"/>
      <point x="276" y="482" type="line" smooth="yes"/>
      <point x="296" y="482"/>
      <point x="331" y="479"/>
      <point x="331" y="472" type="curve" smooth="yes"/>
    </contour>
    <contour>
      <point x="81" y="335" type="line" smooth="yes"/>
      <point x="81" y="247"/>
      <point x="124" y="210"/>
      <point x="213" y="210" type="curve" smooth="yes"/>
      <point x="256" y="210"/>
      <point x="295" y="217"/>
      <point x="338" y="234" type="curve"/>
      <point x="338" y="264" type="line"/>
      <point x="295" y="245"/>
      <point x="256" y="240"/>
      <point x="213" y="240" type="curve" smooth="yes"/>
      <point x="145" y="240"/>
      <point x="119" y="270"/>
      <point x="119" y="340" type="curve" smooth="yes"/>
      <point x="119" y="472" type="line" smooth="yes"/>
      <point x="119" y="479"/>
      <point x="152" y="482"/>
      <point x="173" y="482" type="curve" smooth="yes"/>
      <point x="175" y="482" type="line"/>
      <point x="175" y="508" type="line"/>
      <point x="20" y="508" type="line"/>
      <point x="20" y="482" type="line"/>
      <point x="41" y="482" type="line" smooth="yes"/>
      <point x="64" y="482"/>
      <point x="81" y="476"/>
      <point x="81" y="451" type="curve" smooth="yes"/>
    </contour>
    <contour>
      <point x="303" y="0" type="line"/>
      <point x="308" y="0" type="line" smooth="yes"/>
      <point x="390" y="0"/>
      <point x="406" y="-9"/>
      <point x="409" y="-43" type="curve" smooth="yes"/>
      <point x="416" y="-130" type="line"/>
      <point x="440" y="-130" type="line"/>
      <point x="440" y="30" type="line"/>
      <point x="333" y="30" type="line"/>
    </contour>
  </outline>
</glyph>
<glyph name="chevertcyr" format="2">
  <advance width="478"/>
  <unicode hex="04B9"/>
  <guideline x="855" y="515" angle="90" identifier="rBEXk9AqX9"/>
  <outline>
    <contour>
      <point x="344" y="36" type="line" smooth="yes"/>
      <point x="344" y="29"/>
      <point x="309" y="26"/>
      <point x="289" y="26" type="curve" smooth="yes"/>
      <point x="287" y="26" type="line"/>
      <point x="287" y="0" type="line"/>
      <point x="443" y="0" type="line"/>
      <point x="443" y="26" type="line"/>
      <point x="422" y="26" type="line" smooth="yes"/>
      <point x="399" y="26"/>
      <point x="382" y="32"/>
      <point x="382" y="57" type="curve" smooth="yes"/>
      <point x="382" y="451" type="line" smooth="yes"/>
      <point x="382" y="476"/>
      <point x="399" y="482"/>
      <point x="422" y="482" type="curve" smooth="yes"/>
      <point x="443" y="482" type="line"/>
      <point x="443" y="508" type="line"/>
      <point x="287" y="508" type="line"/>
      <point x="287" y="482" type="line"/>
      <point x="289" y="482" type="line" smooth="yes"/>
      <point x="309" y="482"/>
      <point x="344" y="479"/>
      <point x="344" y="472" type="curve" smooth="yes"/>
    </contour>
    <contour>
      <point x="81" y="335" type="line" smooth="yes"/>
      <point x="81" y="247"/>
      <point x="125.7042253521" y="210"/>
      <point x="219" y="210" type="curve" smooth="yes"/>
      <point x="263.9777777778" y="210"/>
      <point x="305.8851509081" y="216.3463633988"/>
      <point x="351" y="234" type="curve"/>
      <point x="351" y="264" type="line"/>
      <point x="305.8581592209" y="244.3731127047"/>
      <point x="263.9777777778" y="240"/>
      <point x="219" y="240" type="curve" smooth="yes"/>
      <point x="146.8846153846" y="240"/>
      <point x="119" y="270"/>
      <point x="119" y="340" type="curve" smooth="yes"/>
      <point x="119" y="472" type="line" smooth="yes"/>
      <point x="119" y="479"/>
      <point x="152" y="482"/>
      <point x="173" y="482" type="curve" smooth="yes"/>
      <point x="175" y="482" type="line"/>
      <point x="175" y="508" type="line"/>
      <point x="20" y="508" type="line"/>
      <point x="20" y="482" type="line"/>
      <point x="41" y="482" type="line" smooth="yes"/>
      <point x="64" y="482"/>
      <point x="81" y="476"/>
      <point x="81" y="451" type="curve" smooth="yes"/>
    </contour>
    <contour>
      <point x="219" y="109" type="line"/>
      <point x="249" y="109" type="line"/>
      <point x="249" y="377" type="line"/>
      <point x="219" y="377" type="line"/>
    </contour>
  </outline>
</glyph>
<glyph name="horizontalbar" format="2">
  <advance width="762"/>
  <unicode hex="2015"/>
  <outline>
    <contour>
      <point x="0" y="329" type="line"/>
      <point x="0" y="301" type="line"/>
      <point x="762" y="301" type="line"/>
      <point x="762" y="329" type="line"/>
    </contour>
  </outline>
</glyph>
<glyph name="quoteright" format="2">
  <advance width="160"/>
  <unicode hex="2019"/>
  <outline>
    <contour>
      <point x="70" y="549" type="line"/>
      <point x="101" y="586"/>
      <point x="119" y="623.2689655172"/>
      <point x="119" y="670" type="curve" smooth="yes"/>
      <point x="119" y="708"/>
      <point x="104" y="715"/>
      <point x="84" y="715" type="curve" smooth="yes"/>
      <point x="67" y="715"/>
      <point x="53" y="704"/>
      <point x="53" y="683" type="curve" smooth="yes"/>
      <point x="53" y="662"/>
      <point x="65" y="651"/>
      <point x="85" y="651" type="curve" smooth="yes"/>
      <point x="96" y="651"/>
      <point x="103" y="657"/>
      <point x="106" y="673" type="curve"/>
      <point x="97" y="663" type="line"/>
      <point x="97" y="633.2786885246"/>
      <point x="75" y="594"/>
      <point x="47" y="565" type="curve"/>
    </contour>
  </outline>
</glyph>
<glyph name="dagger" format="2">
  <advance width="327"/>
  <unicode hex="2020"/>
  <outline>
    <contour>
      <point x="159" y="505" type="line"/>
      <point x="168" y="505" type="line"/>
      <point x="286" y="494" type="line"/>
      <point x="310" y="494" type="line"/>
      <point x="310" y="532" type="line"/>
      <point x="286" y="532" type="line"/>
      <point x="168" y="523" type="line"/>
      <point x="159" y="523" type="line"/>
      <point x="41" y="532" type="line"/>
      <point x="17" y="532" type="line"/>
      <point x="17" y="494" type="line"/>
      <point x="41" y="494" type="line"/>
    </contour>
    <contour>
      <point x="183" y="710" type="line"/>
      <point x="144" y="710" type="line"/>
      <point x="144" y="675" type="line" smooth="yes"/>
      <point x="144" y="640"/>
      <point x="152" y="586"/>
      <point x="152" y="507" type="curve" smooth="yes"/>
      <point x="152" y="440"/>
      <point x="148" y="403"/>
      <point x="141" y="377" type="curve"/>
      <point x="141" y="357" type="line" smooth="yes"/>
      <point x="141" y="316"/>
      <point x="149" y="219"/>
      <point x="154" y="0" type="curve"/>
      <point x="173" y="0" type="line"/>
      <point x="178" y="219"/>
      <point x="187" y="316"/>
      <point x="187" y="357" type="curve" smooth="yes"/>
      <point x="187" y="377" type="line"/>
      <point x="179" y="403"/>
      <point x="175" y="440"/>
      <point x="175" y="507" type="curve" smooth="yes"/>
      <point x="175" y="586"/>
      <point x="183" y="640"/>
      <point x="183" y="675" type="curve" smooth="yes"/>
    </contour>
  </outline>
</glyph>
<glyph name="daggerdbl" format="2">
  <advance width="327"/>
  <unicode hex="2021"/>
  <outline>
    <contour>
      <point x="168" y="523" type="line"/>
      <point x="159" y="523" type="line"/>
      <point x="41" y="532" type="line"/>
      <point x="17" y="532" type="line"/>
      <point x="17" y="494" type="line"/>
      <point x="41" y="494" type="line"/>
      <point x="159" y="505" type="line"/>
      <point x="168" y="505" type="line"/>
      <point x="286" y="494" type="line"/>
      <point x="310" y="494" type="line"/>
      <point x="310" y="532" type="line"/>
      <point x="286" y="532" type="line"/>
    </contour>
    <contour>
      <point x="183" y="710" type="line"/>
      <point x="144" y="710" type="line"/>
      <point x="144" y="675" type="line" smooth="yes"/>
      <point x="144" y="642"/>
      <point x="153" y="577"/>
      <point x="153" y="508" type="curve"/>
      <point x="153" y="449"/>
      <point x="148" y="403"/>
      <point x="141" y="364" type="curve"/>
      <point x="141" y="346" type="line"/>
      <point x="148" y="307"/>
      <point x="153" y="261"/>
      <point x="153" y="202" type="curve"/>
      <point x="153" y="133"/>
      <point x="144" y="68"/>
      <point x="144" y="35" type="curve" smooth="yes"/>
      <point x="144" y="0" type="line"/>
      <point x="183" y="0" type="line"/>
      <point x="183" y="35" type="line" smooth="yes"/>
      <point x="183" y="68"/>
      <point x="174" y="133"/>
      <point x="174" y="202" type="curve"/>
      <point x="174" y="261"/>
      <point x="179" y="307"/>
      <point x="187" y="346" type="curve"/>
      <point x="187" y="364" type="line"/>
      <point x="179" y="403"/>
      <point x="174" y="449"/>
      <point x="174" y="508" type="curve"/>
      <point x="174" y="577"/>
      <point x="183" y="642"/>
      <point x="183" y="675" type="curve" smooth="yes"/>
    </contour>
    <contour>
      <point x="168" y="205" type="line"/>
      <point x="159" y="205" type="line"/>
      <point x="41" y="216" type="line"/>
      <point x="17" y="216" type="line"/>
      <point x="17" y="178" type="line"/>
      <point x="41" y="178" type="line"/>
      <point x="159" y="187" type="line"/>
      <point x="168" y="187" type="line"/>
      <point x="286" y="178" type="line"/>
      <point x="310" y="178" type="line"/>
      <point x="310" y="216" type="line"/>
      <point x="286" y="216" type="line"/>
    </contour>
  </outline>
</glyph>
<glyph name="perthousand" format="2">
  <advance width="895"/>
  <unicode hex="2030"/>
  <outline>
    <contour>
      <point x="154" y="411" type="curve" smooth="yes"/>
      <point x="105" y="411"/>
      <point x="76" y="459"/>
      <point x="76" y="551" type="curve" smooth="yes"/>
      <point x="76" y="644"/>
      <point x="105" y="691"/>
      <point x="154" y="691" type="curve" smooth="yes"/>
      <point x="202" y="691"/>
      <point x="231" y="644"/>
      <point x="231" y="551" type="curve" smooth="yes"/>
      <point x="231" y="459"/>
      <point x="202" y="411"/>
    </contour>
    <contour>
      <point x="154" y="382" type="curve" smooth="yes"/>
      <point x="221" y="382"/>
      <point x="270" y="444"/>
      <point x="270" y="551" type="curve" smooth="yes"/>
      <point x="270" y="659"/>
      <point x="221" y="720"/>
      <point x="154" y="720" type="curve" smooth="yes"/>
      <point x="86" y="720"/>
      <point x="37" y="658"/>
      <point x="37" y="551" type="curve" smooth="yes"/>
      <point x="37" y="443"/>
      <point x="86" y="382"/>
    </contour>
    <contour>
      <point x="74" y="0" type="line"/>
      <point x="568" y="710" type="line"/>
      <point x="529" y="710" type="line"/>
      <point x="35" y="0" type="line"/>
    </contour>
    <contour>
      <point x="444" y="19" type="curve" smooth="yes"/>
      <point x="396" y="19"/>
      <point x="366" y="67"/>
      <point x="366" y="159" type="curve" smooth="yes"/>
      <point x="366" y="252"/>
      <point x="396" y="299"/>
      <point x="444" y="299" type="curve" smooth="yes"/>
      <point x="492" y="299"/>
      <point x="521" y="252"/>
      <point x="521" y="159" type="curve" smooth="yes"/>
      <point x="521" y="67"/>
      <point x="492" y="19"/>
    </contour>
    <contour>
      <point x="444" y="-10" type="curve" smooth="yes"/>
      <point x="511" y="-10"/>
      <point x="560" y="52"/>
      <point x="560" y="159" type="curve" smooth="yes"/>
      <point x="560" y="267"/>
      <point x="511" y="328"/>
      <point x="444" y="328" type="curve" smooth="yes"/>
      <point x="376" y="328"/>
      <point x="328" y="266"/>
      <point x="328" y="159" type="curve" smooth="yes"/>
      <point x="328" y="51"/>
      <point x="376" y="-10"/>
    </contour>
    <contour>
      <point x="739" y="19" type="curve" smooth="yes"/>
      <point x="691" y="19"/>
      <point x="661" y="67"/>
      <point x="661" y="159" type="curve" smooth="yes"/>
      <point x="661" y="252"/>
      <point x="691" y="299"/>
      <point x="739" y="299" type="curve" smooth="yes"/>
      <point x="787" y="299"/>
      <point x="816" y="252"/>
      <point x="816" y="159" type="curve" smooth="yes"/>
      <point x="816" y="67"/>
      <point x="787" y="19"/>
    </contour>
    <contour>
      <point x="739" y="-10" type="curve" smooth="yes"/>
      <point x="806" y="-10"/>
      <point x="855" y="52"/>
      <point x="855" y="159" type="curve" smooth="yes"/>
      <point x="855" y="267"/>
      <point x="806" y="328"/>
      <point x="739" y="328" type="curve" smooth="yes"/>
      <point x="671" y="328"/>
      <point x="623" y="266"/>
      <point x="623" y="159" type="curve" smooth="yes"/>
      <point x="623" y="51"/>
      <point x="671" y="-10"/>
    </contour>
  </outline>
</glyph>
<glyph name="minute" format="2">
  <advance width="194"/>
  <unicode hex="2032"/>
  <outline>
    <contour>
      <point x="135" y="710" type="line"/>
      <point x="126" y="616"/>
      <point x="112" y="571"/>
      <point x="101" y="455" type="curve"/>
      <point x="74" y="455" type="line"/>
      <point x="88" y="591"/>
      <point x="84" y="634"/>
      <point x="92" y="710" type="curve"/>
    </contour>
  </outline>
</glyph>
<glyph name="plus.sup" format="2">
  <advance width="323"/>
  <unicode hex="207A"/>
  <outline>
    <contour>
      <point x="147" y="695" type="line"/>
      <point x="147" y="424" type="line"/>
      <point x="174" y="424" type="line"/>
      <point x="174" y="695" type="line"/>
    </contour>
    <contour>
      <point x="274" y="574" type="line"/>
      <point x="48" y="574" type="line"/>
      <point x="48" y="545" type="line"/>
      <point x="274" y="545" type="line"/>
    </contour>
  </outline>
</glyph>
<glyph name="colonmonetary" format="2">
  <advance width="560"/>
  <unicode hex="20A1"/>
  <outline>
    <contour>
      <point x="318" y="699" type="curve" smooth="yes" identifier="91KCC5tp9Q"/>
      <point x="167" y="699" identifier="yIKlH7cTYW"/>
      <point x="59" y="594" identifier="LdnGQRGNyH"/>
      <point x="59" y="352" type="curve" smooth="yes" identifier="6bfLzK2bGw"/>
      <point x="59" y="124" identifier="vqorisv4yU"/>
      <point x="157" y="10" identifier="Jc93ikJuWw"/>
      <point x="303" y="10" type="curve" smooth="yes" identifier="1H2p9nuyAS"/>
      <point x="415" y="10" identifier="ubcl1JrWDX"/>
      <point x="477" y="83" identifier="8i7EbRdhr1"/>
      <point x="508" y="204" type="curve" identifier="b1N6qaWOTL"/>
      <point x="477" y="214" type="line" identifier="Tx63xuMIsH"/>
      <point x="453" y="112" identifier="ly4iQT0194"/>
      <point x="404" y="39" identifier="tbWyevrxbO"/>
      <point x="303" y="39" type="curve" smooth="yes" identifier="GDkemjbUhC"/>
      <point x="178" y="39" identifier="gpUMLaGj5C"/>
      <point x="101" y="134" identifier="6y9LCM0mwc"/>
      <point x="101" y="352" type="curve" smooth="yes" identifier="xVhl8qDxkE"/>
      <point x="101" y="581" identifier="sQoxjfEl92"/>
      <point x="188" y="671" identifier="UWEjjB8LfA"/>
      <point x="318" y="671" type="curve" smooth="yes" identifier="Gwe7WBTycU"/>
      <point x="398" y="671" identifier="4jNuCVyNpc"/>
      <point x="457" y="640" identifier="VKzrGeNO9u"/>
      <point x="477" y="595" type="curve" identifier="KNpCYyERjn"/>
      <point x="490" y="590" identifier="kjbBzUqcmE"/>
      <point x="483" y="625" identifier="itHwzAHvil"/>
      <point x="456" y="636" type="curve" identifier="L1tCCb4DvZ"/>
      <point x="456" y="538" type="line" identifier="F3rlHU9uvn"/>
      <point x="501" y="538" type="line" identifier="bRXUwwBGfZ"/>
      <point x="501" y="628" type="line" identifier="zUZSTRqHpF"/>
      <point x="473" y="660" identifier="Ls6msAkFA6"/>
      <point x="413" y="699" identifier="gjTB9UJ14s"/>
    </contour>
    <contour>
      <point x="245" y="790" type="line"/>
      <point x="230" y="673" type="line"/>
      <point x="229" y="667" type="line"/>
      <point x="159" y="96" type="line"/>
      <point x="159" y="87" type="line"/>
      <point x="132" y="-120" type="line"/>
      <point x="166" y="-120" type="line"/>
      <point x="188" y="63" type="line"/>
      <point x="189" y="70" type="line"/>
      <point x="265" y="682" type="line"/>
      <point x="265" y="685" type="line"/>
      <point x="278" y="790" type="line"/>
    </contour>
    <contour>
      <point x="374" y="790" type="line"/>
      <point x="361" y="685" type="line"/>
      <point x="360" y="681" type="line"/>
      <point x="281" y="35" type="line"/>
      <point x="280" y="26" type="line"/>
      <point x="262" y="-120" type="line"/>
      <point x="295" y="-120" type="line"/>
      <point x="312" y="21" type="line"/>
      <point x="313" y="26" type="line"/>
      <point x="392" y="671" type="line"/>
      <point x="393" y="675" type="line"/>
      <point x="407" y="790" type="line"/>
    </contour>
  </outline>
</glyph>
<glyph name="lira" format="2">
  <advance width="560"/>
  <unicode hex="20A4"/>
  <outline>
    <contour>
      <point x="68" y="427" type="line"/>
      <point x="68" y="397" type="line"/>
      <point x="386" y="397" type="line"/>
      <point x="386" y="427" type="line"/>
    </contour>
    <contour>
      <point x="68" y="274" type="line"/>
      <point x="68" y="244" type="line"/>
      <point x="386" y="244" type="line"/>
      <point x="386" y="274" type="line"/>
    </contour>
    <contour>
      <point x="63" y="-8" type="line"/>
      <point x="179" y="19"/>
      <point x="236" y="96"/>
      <point x="236" y="211" type="curve" smooth="yes"/>
      <point x="236" y="329"/>
      <point x="161" y="410"/>
      <point x="161" y="534" type="curve" smooth="yes"/>
      <point x="161" y="640"/>
      <point x="219" y="689"/>
      <point x="309" y="689" type="curve" smooth="yes"/>
      <point x="379" y="689"/>
      <point x="418" y="659"/>
      <point x="440" y="633" type="curve"/>
      <point x="442" y="637"/>
      <point x="437" y="660"/>
      <point x="422" y="669" type="curve"/>
      <point x="422" y="566" type="line"/>
      <point x="467" y="566" type="line"/>
      <point x="467" y="660" type="line"/>
      <point x="445" y="681"/>
      <point x="393" y="718"/>
      <point x="309" y="718" type="curve" smooth="yes"/>
      <point x="193" y="718"/>
      <point x="119" y="651"/>
      <point x="119" y="532" type="curve" smooth="yes"/>
      <point x="119" y="403"/>
      <point x="201" y="312"/>
      <point x="201" y="205" type="curve" smooth="yes"/>
      <point x="201" y="107"/>
      <point x="159" y="48"/>
      <point x="63" y="24" type="curve"/>
    </contour>
    <contour>
      <point x="364" y="-6" type="curve" smooth="yes"/>
      <point x="445" y="-6"/>
      <point x="484" y="59"/>
      <point x="506" y="143" type="curve"/>
      <point x="477" y="154" type="line"/>
      <point x="458" y="83"/>
      <point x="432" y="35"/>
      <point x="368" y="35" type="curve" smooth="yes"/>
      <point x="316" y="35"/>
      <point x="268" y="64"/>
      <point x="211" y="137" type="curve"/>
      <point x="195" y="109" type="line"/>
      <point x="253" y="40"/>
      <point x="299" y="-6"/>
    </contour>
  </outline>
</glyph>
<glyph name="naira" format="2">
  <advance width="560"/>
  <unicode hex="20A6"/>
  <outline>
    <contour>
      <point x="41" y="0" type="line"/>
      <point x="216" y="0" type="line"/>
      <point x="216" y="29" type="line"/>
      <point x="208" y="29" type="line" smooth="yes"/>
      <point x="173" y="29"/>
      <point x="135" y="37"/>
      <point x="135" y="44" type="curve" smooth="yes"/>
      <point x="135" y="707" type="line"/>
      <point x="124" y="702" type="line"/>
      <point x="414" y="0" type="line"/>
      <point x="456" y="0" type="line"/>
      <point x="456" y="640" type="line" smooth="yes"/>
      <point x="456" y="670"/>
      <point x="474" y="681"/>
      <point x="513" y="681" type="curve" smooth="yes"/>
      <point x="520" y="681" type="line"/>
      <point x="520" y="710" type="line"/>
      <point x="345" y="710" type="line"/>
      <point x="345" y="681" type="line"/>
      <point x="354" y="681" type="line" smooth="yes"/>
      <point x="389" y="681"/>
      <point x="426" y="673"/>
      <point x="426" y="666" type="curve" smooth="yes"/>
      <point x="426" y="27" type="line"/>
      <point x="430" y="44" type="line"/>
      <point x="159" y="710" type="line"/>
      <point x="41" y="710" type="line"/>
      <point x="41" y="681" type="line"/>
      <point x="47" y="681" type="line" smooth="yes"/>
      <point x="87" y="681"/>
      <point x="103" y="674"/>
      <point x="103" y="645" type="curve" smooth="yes"/>
      <point x="103" y="70" type="line" smooth="yes"/>
      <point x="103" y="40"/>
      <point x="86" y="29"/>
      <point x="47" y="29" type="curve" smooth="yes"/>
      <point x="41" y="29" type="line"/>
    </contour>
    <contour>
      <point x="125" y="439" type="line"/>
      <point x="36" y="439" type="line"/>
      <point x="36" y="410" type="line"/>
      <point x="120" y="410" type="line"/>
    </contour>
    <contour>
      <point x="525" y="410" type="line"/>
      <point x="525" y="439" type="line"/>
      <point x="253" y="439" type="line"/>
      <point x="260" y="410" type="line"/>
      <point x="433" y="410" type="line"/>
      <point x="440" y="410" type="line"/>
    </contour>
    <contour>
      <point x="331" y="251" type="line"/>
      <point x="320" y="280" type="line"/>
      <point x="128" y="280" type="line"/>
      <point x="119" y="280" type="line"/>
      <point x="36" y="280" type="line"/>
      <point x="36" y="251" type="line"/>
    </contour>
    <contour>
      <point x="447" y="251" type="line"/>
      <point x="525" y="251" type="line"/>
      <point x="525" y="280" type="line"/>
      <point x="447" y="280" type="line"/>
    </contour>
  </outline>
</glyph>
<glyph name="peseta" format="2">
  <advance width="560"/>
  <unicode hex="20A7"/>
  <outline>
    <contour>
      <point x="22" y="0" type="line"/>
      <point x="198" y="0" type="line"/>
      <point x="198" y="29" type="line"/>
      <point x="184" y="29" type="line" smooth="yes"/>
      <point x="154" y="29"/>
      <point x="124" y="35"/>
      <point x="124" y="42" type="curve" smooth="yes"/>
      <point x="124" y="280" type="line"/>
      <point x="141" y="280" type="line" smooth="yes"/>
      <point x="268" y="280"/>
      <point x="331" y="355"/>
      <point x="331" y="499" type="curve" smooth="yes"/>
      <point x="331" y="642"/>
      <point x="270" y="710"/>
      <point x="145" y="710" type="curve" smooth="yes"/>
      <point x="22" y="710" type="line"/>
      <point x="22" y="681" type="line"/>
      <point x="28" y="681" type="line" smooth="yes"/>
      <point x="70" y="681"/>
      <point x="85" y="674"/>
      <point x="85" y="645" type="curve" smooth="yes"/>
      <point x="85" y="68" type="line" smooth="yes"/>
      <point x="85" y="38"/>
      <point x="68" y="29"/>
      <point x="28" y="29" type="curve" smooth="yes"/>
      <point x="22" y="29" type="line"/>
    </contour>
    <contour>
      <point x="145" y="681" type="line" smooth="yes"/>
      <point x="245" y="681"/>
      <point x="290" y="627"/>
      <point x="290" y="498" type="curve" smooth="yes"/>
      <point x="290" y="369"/>
      <point x="246" y="309"/>
      <point x="141" y="309" type="curve" smooth="yes"/>
      <point x="124" y="309" type="line"/>
      <point x="124" y="681" type="line"/>
    </contour>
    <contour>
      <point x="426" y="508" type="line"/>
      <point x="391" y="492" type="line"/>
      <point x="391" y="106" type="line" smooth="yes"/>
      <point x="391" y="22"/>
      <point x="435" y="-11"/>
      <point x="489" y="-11" type="curve" smooth="yes"/>
      <point x="515" y="-11"/>
      <point x="533" y="-6"/>
      <point x="542" y="0" type="curve"/>
      <point x="542" y="31" type="line"/>
      <point x="533" y="27"/>
      <point x="515" y="21"/>
      <point x="497" y="21" type="curve" smooth="yes"/>
      <point x="456" y="21"/>
      <point x="429" y="50"/>
      <point x="429" y="106" type="curve" smooth="yes"/>
      <point x="429" y="648" type="line"/>
      <point x="396" y="648" type="line"/>
      <point x="396" y="546" type="line"/>
      <point x="396" y="511"/>
      <point x="379" y="503"/>
      <point x="333" y="503" type="curve" smooth="yes"/>
      <point x="313" y="503" type="line"/>
      <point x="313" y="479" type="line"/>
      <point x="532" y="479" type="line"/>
      <point x="532" y="508" type="line"/>
    </contour>
  </outline>
</glyph>
<glyph name="won" format="2">
  <advance width="560"/>
  <unicode hex="20A9"/>
  <outline>
    <contour>
      <point x="18" y="710" type="line"/>
      <point x="18" y="681" type="line"/>
      <point x="23" y="681" type="line" smooth="yes"/>
      <point x="53" y="681"/>
      <point x="66" y="678"/>
      <point x="71" y="644" type="curve" smooth="yes"/>
      <point x="147" y="0" type="line"/>
      <point x="192" y="0" type="line"/>
      <point x="286" y="685" type="line"/>
      <point x="278" y="689" type="line"/>
      <point x="379" y="0" type="line"/>
      <point x="427" y="0" type="line"/>
      <point x="490" y="638" type="line" smooth="yes"/>
      <point x="494" y="672"/>
      <point x="510" y="681"/>
      <point x="537" y="681" type="curve" smooth="yes"/>
      <point x="541" y="681" type="line"/>
      <point x="541" y="710" type="line"/>
      <point x="396" y="710" type="line"/>
      <point x="396" y="681" type="line"/>
      <point x="409" y="681" type="line" smooth="yes"/>
      <point x="435" y="681"/>
      <point x="465" y="674"/>
      <point x="465" y="663" type="curve"/>
      <point x="401" y="15" type="line"/>
      <point x="408" y="11" type="line"/>
      <point x="304" y="710" type="line"/>
      <point x="262" y="710" type="line"/>
      <point x="168" y="19" type="line"/>
      <point x="175" y="19" type="line"/>
      <point x="99" y="671" type="line"/>
      <point x="99" y="678"/>
      <point x="131" y="681"/>
      <point x="157" y="681" type="curve" smooth="yes"/>
      <point x="171" y="681" type="line"/>
      <point x="171" y="710" type="line"/>
    </contour>
    <contour>
      <point x="18" y="437" type="line"/>
      <point x="18" y="408" type="line"/>
      <point x="111" y="408" type="line"/>
      <point x="117" y="408" type="line"/>
      <point x="235" y="408" type="line"/>
      <point x="244" y="437" type="line"/>
    </contour>
    <contour>
      <point x="334" y="408" type="line"/>
      <point x="448" y="408" type="line"/>
      <point x="462" y="408" type="line"/>
      <point x="541" y="408" type="line"/>
      <point x="541" y="437" type="line"/>
      <point x="329" y="437" type="line"/>
    </contour>
    <contour>
      <point x="208" y="254" type="line"/>
      <point x="360" y="254" type="line"/>
      <point x="348" y="283" type="line"/>
      <point x="285" y="283" type="line"/>
      <point x="217" y="283" type="line"/>
    </contour>
    <contour>
      <point x="124" y="283" type="line"/>
      <point x="18" y="283" type="line"/>
      <point x="18" y="254" type="line"/>
      <point x="130" y="254" type="line"/>
    </contour>
    <contour>
      <point x="443" y="254" type="line"/>
      <point x="541" y="254" type="line"/>
      <point x="541" y="283" type="line"/>
      <point x="444" y="283" type="line"/>
    </contour>
  </outline>
</glyph>
<glyph name="peso" format="2">
  <advance width="560"/>
  <unicode hex="20B1"/>
  <outline>
    <contour>
      <point x="37" y="0" type="line"/>
      <point x="251" y="0" type="line"/>
      <point x="251" y="29" type="line"/>
      <point x="227" y="29" type="line" smooth="yes"/>
      <point x="197" y="29"/>
      <point x="158" y="32"/>
      <point x="158" y="39" type="curve" smooth="yes"/>
      <point x="158" y="262" type="line"/>
      <point x="228" y="262" type="line" smooth="yes"/>
      <point x="377" y="262"/>
      <point x="448" y="344"/>
      <point x="448" y="489" type="curve" smooth="yes"/>
      <point x="448" y="634"/>
      <point x="381" y="710"/>
      <point x="233" y="710" type="curve" smooth="yes"/>
      <point x="37" y="710" type="line"/>
      <point x="37" y="681" type="line"/>
      <point x="46" y="681" type="line" smooth="yes"/>
      <point x="89" y="681"/>
      <point x="119" y="674"/>
      <point x="119" y="645" type="curve" smooth="yes"/>
      <point x="119" y="65" type="line" smooth="yes"/>
      <point x="119" y="36"/>
      <point x="89" y="29"/>
      <point x="46" y="29" type="curve" smooth="yes"/>
      <point x="37" y="29" type="line"/>
    </contour>
    <contour>
      <point x="233" y="681" type="line" smooth="yes"/>
      <point x="356" y="681"/>
      <point x="407" y="619"/>
      <point x="407" y="488" type="curve" smooth="yes"/>
      <point x="407" y="357"/>
      <point x="355" y="290"/>
      <point x="228" y="290" type="curve" smooth="yes"/>
      <point x="158" y="290" type="line"/>
      <point x="158" y="681" type="line"/>
    </contour>
    <contour>
      <point x="37" y="503" type="line"/>
      <point x="37" y="474" type="line"/>
      <point x="137" y="474" type="line"/>
      <point x="143" y="474" type="line"/>
      <point x="424" y="474" type="line"/>
      <point x="432" y="474" type="line"/>
      <point x="522" y="474" type="line"/>
      <point x="522" y="503" type="line"/>
      <point x="433" y="503" type="line"/>
      <point x="424" y="503" type="line"/>
      <point x="145" y="503" type="line"/>
      <point x="138" y="503" type="line"/>
    </contour>
  </outline>
</glyph>
